<svg width="24" height="20" viewBox="0 0 24 20" fill="none" xmlns="http://www.w3.org/2000/svg">
<g clip-path="url(#clip0_54_998)">
<path d="M18.5642 1.21143H5.43032C3.98598 1.21143 3.47045 1.38855 2.94463 1.67971C2.37368 1.99585 1.9256 2.45977 1.62026 3.0509C1.33905 3.59531 1.16797 4.12906 1.16797 5.62447V14.3741C1.16797 15.8695 1.33905 16.4033 1.62026 16.9477C1.9256 17.5388 2.37368 18.0028 2.94463 18.3189C3.47045 18.6101 3.98598 18.7872 5.43032 18.7872H18.5642C20.0085 18.7872 20.524 18.6101 21.0498 18.3189C21.6208 18.0028 22.0689 17.5388 22.3742 16.9477C22.6554 16.4033 22.8265 15.8695 22.8265 14.3741V5.62447C22.8265 4.12906 22.6554 3.59531 22.3742 3.0509C22.0689 2.45977 21.6208 1.99585 21.0498 1.67971C20.524 1.38855 20.0085 1.21143 18.5642 1.21143Z" fill="#FF4B4B" stroke="#CECECE" stroke-width="1.17073"/>
<path d="M11.861 12.3464L10.707 12.9746C10.3553 13.166 9.9203 13.026 9.7354 12.6619C9.66178 12.5169 9.63637 12.3508 9.66312 12.1894L9.88353 10.8589C9.89981 10.7606 9.86833 10.6603 9.79935 10.5906L8.86569 9.64837C8.58118 9.36123 8.57535 8.88965 8.85269 8.59507C8.96313 8.47777 9.10783 8.40144 9.26441 8.37788L10.5547 8.18376C10.65 8.16942 10.7324 8.10743 10.7751 8.01799L11.3521 6.80746C11.5279 6.43857 11.9593 6.28711 12.3156 6.46917C12.4575 6.54167 12.5723 6.66057 12.6424 6.80746L13.2194 8.01799C13.262 8.10743 13.3444 8.16942 13.4398 8.18376L14.73 8.37788C15.1232 8.43703 15.3957 8.815 15.3385 9.2221C15.3158 9.38421 15.242 9.53403 15.1288 9.64837L14.1951 10.5906C14.1261 10.6603 14.0946 10.7606 14.1109 10.8589L14.3313 12.1894C14.3985 12.5948 14.1355 12.9799 13.7439 13.0494C13.5879 13.0771 13.4275 13.0508 13.2875 12.9746L12.1334 12.3464C12.0482 12.3 11.9463 12.3 11.861 12.3464Z" fill="#FFC300"/>
</g>
<defs>
<clipPath id="clip0_54_998">
<rect width="24" height="20" fill="white"/>
</clipPath>
</defs>
</svg>
