<svg width="24" height="20" viewBox="0 0 24 20" fill="none" xmlns="http://www.w3.org/2000/svg">
<g clip-path="url(#clip0_54_805)">
<path d="M18.5642 1.21338H5.43032C3.98598 1.21338 3.47045 1.3905 2.94463 1.68166C2.37368 1.9978 1.9256 2.46172 1.62026 3.05285C1.33905 3.59726 1.16797 4.13102 1.16797 5.62642V14.3761C1.16797 15.8715 1.33905 16.4053 1.62026 16.9497C1.9256 17.5408 2.37368 18.0047 2.94463 18.3209C3.47045 18.612 3.98598 18.7891 5.43032 18.7891H18.5642C20.0085 18.7891 20.524 18.612 21.0498 18.3209C21.6208 18.0047 22.0689 17.5408 22.3742 16.9497C22.6554 16.4053 22.8265 15.8715 22.8265 14.3761V5.62642C22.8265 4.13102 22.6554 3.59726 22.3742 3.05285C22.0689 2.46172 21.6208 1.9978 21.0498 1.68166C20.524 1.3905 20.0085 1.21338 18.5642 1.21338Z" fill="#EEEEEE" stroke="#CECECE" stroke-width="1.17073"/>
<path d="M5.43089 1.81909H18.5647C19.8433 1.81909 20.3069 1.95692 20.7744 2.21574C21.2418 2.47456 21.6086 2.85437 21.8586 3.33832C22.1086 3.82227 22.2417 4.3023 22.2417 5.62607V6.66758H1.75391V5.62607C1.75391 4.3023 1.88703 3.82227 2.13701 3.33832C2.387 2.85437 2.75383 2.47456 3.22126 2.21574C3.68868 1.95692 4.15232 1.81909 5.43089 1.81909Z" fill="#FF9600"/>
<path d="M22.2417 13.3342V14.3757C22.2417 15.6995 22.1086 16.1795 21.8586 16.6635C21.6086 17.1474 21.2418 17.5272 20.7744 17.7861C20.3069 18.0449 19.8433 18.1827 18.5647 18.1827H5.43089C4.15232 18.1827 3.68868 18.0449 3.22126 17.7861C2.75383 17.5272 2.387 17.1474 2.13701 16.6635C1.88703 16.1795 1.75391 15.6995 1.75391 14.3757V13.3342H22.2417Z" fill="#7AC70C"/>
<path d="M11.9977 12.4256C10.7046 12.4256 9.65625 11.3403 9.65625 10.0014C9.65625 8.66252 10.7046 7.57715 11.9977 7.57715C13.2909 7.57715 14.3392 8.66252 14.3392 10.0014C14.3392 11.3403 13.2909 12.4256 11.9977 12.4256ZM11.9977 11.2135C12.6443 11.2135 13.1684 10.6708 13.1684 10.0014C13.1684 9.33195 12.6443 8.78927 11.9977 8.78927C11.3511 8.78927 10.827 9.33195 10.827 10.0014C10.827 10.6708 11.3511 11.2135 11.9977 11.2135Z" fill="#1CB0F6"/>
</g>
<defs>
<clipPath id="clip0_54_805">
<rect width="24" height="20" fill="white"/>
</clipPath>
</defs>
</svg>
