<svg width="18" height="18" viewBox="0 0 18 18" fill="none" xmlns="http://www.w3.org/2000/svg">
<g clip-path="url(#clip0_55_2118)">
<path d="M12 0.75C13.2427 0.75 14.25 1.75736 14.25 3C14.25 3.41421 13.9142 3.75 13.5 3.75C13.0858 3.75 12.75 3.41421 12.75 3C12.75 2.58579 12.4142 2.25 12 2.25H3C2.58579 2.25 2.25 2.58579 2.25 3V15C2.25 15.4142 2.58579 15.75 3 15.75H12C12.4142 15.75 12.75 15.4142 12.75 15V14.25C12.75 13.8358 13.0858 13.5 13.5 13.5C13.9142 13.5 14.25 13.8358 14.25 14.25V15C14.25 16.2427 13.2427 17.25 12 17.25H3C1.75736 17.25 0.75 16.2427 0.75 15V3C0.75 1.75736 1.75736 0.75 3 0.75H12Z" fill="white"/>
<path fill-rule="evenodd" clip-rule="evenodd" d="M15.5993 6.15059C15.3745 5.92572 15.0099 5.92572 14.785 6.15059L8.93745 11.9982C8.8269 12.1087 8.75362 12.251 8.72797 12.4052L8.6046 13.1453L9.3447 13.022C9.4989 12.9963 9.64125 12.923 9.75173 12.8126L15.5993 6.96493C15.8243 6.74005 15.8243 6.37546 15.5993 6.15059ZM13.7243 5.08993C14.535 4.27927 15.8494 4.27926 16.66 5.08992C17.4706 5.90059 17.4706 7.21493 16.66 8.02561L10.8124 13.8732C10.4808 14.2048 10.0539 14.4245 9.5913 14.5016L8.8512 14.6249C7.836 14.7941 6.9558 13.914 7.12501 12.8987L7.24836 12.1586C7.32546 11.696 7.54515 11.2691 7.87672 10.9375L13.7243 5.08993Z" fill="white"/>
<path d="M3.75 5.25C3.75 4.83579 4.08579 4.5 4.5 4.5H10.5C10.9142 4.5 11.25 4.83579 11.25 5.25C11.25 5.66421 10.9142 6 10.5 6H4.5C4.08579 6 3.75 5.66421 3.75 5.25Z" fill="white"/>
<path d="M3.75 8.25C3.75 7.83578 4.08579 7.5 4.5 7.5H7.5C7.91423 7.5 8.25 7.83578 8.25 8.25C8.25 8.66422 7.91423 9 7.5 9H4.5C4.08579 9 3.75 8.66422 3.75 8.25Z" fill="white"/>
<path d="M3.75 11.25C3.75 10.8358 4.08579 10.5 4.5 10.5H5.25C5.66421 10.5 6 10.8358 6 11.25C6 11.6642 5.66421 12 5.25 12H4.5C4.08579 12 3.75 11.6642 3.75 11.25Z" fill="white"/>
</g>
<defs>
<clipPath id="clip0_55_2118">
<rect width="18" height="18" fill="white"/>
</clipPath>
</defs>
</svg>
