<svg width="30" height="30" viewBox="0 0 30 30" fill="none" xmlns="http://www.w3.org/2000/svg">
<path d="M18.1433 16.7021L18.1432 16.7022C18.019 17.162 17.775 17.5814 17.4356 17.9182C17.0962 18.2549 16.6733 18.4972 16.2095 18.6206C15.7457 18.7439 15.2573 18.7439 14.7935 18.6207C14.3351 18.4989 13.9168 18.2609 13.5794 17.9305H14.5902C14.719 17.9305 14.8427 17.8797 14.934 17.7891C15.0253 17.6985 15.0768 17.5754 15.0768 17.4469C15.0768 17.3184 15.0253 17.1953 14.934 17.1047C14.8427 17.0141 14.719 16.9633 14.5902 16.9633H12.403C12.2742 16.9633 12.1505 17.0141 12.0592 17.1047C11.9678 17.1953 11.9164 17.3184 11.9164 17.4469V19.6164C11.9164 19.7449 11.9678 19.868 12.0592 19.9586L12.1292 19.888L12.0592 19.9586C12.1505 20.0492 12.2742 20.1 12.403 20.1C12.5318 20.1 12.6555 20.0492 12.7468 19.9586C12.8381 19.868 12.8896 19.7449 12.8896 19.6164V18.6137C13.3481 19.065 13.9175 19.3897 14.5414 19.5556C15.1701 19.7228 15.832 19.7229 16.4608 19.5557C17.0895 19.3886 17.6629 19.0602 18.1232 18.6034C18.5836 18.1466 18.9147 17.5775 19.0833 16.9533C19.1169 16.8293 19.0994 16.697 19.0349 16.5858C18.9703 16.4746 18.864 16.3936 18.7396 16.3604C18.6151 16.3271 18.4824 16.3443 18.3706 16.4082C18.2586 16.4722 18.1769 16.5783 18.1433 16.7021ZM18.9442 14.8953L18.9443 14.8951C19.0355 14.8045 19.0868 14.6815 19.0867 14.5531C19.0867 14.5531 19.0867 14.5531 19.0867 14.5531V12.3836C19.0867 12.2551 19.0352 12.132 18.9439 12.0414C18.8526 11.9508 18.7289 11.9 18.6001 11.9C18.4713 11.9 18.3476 11.9508 18.2563 12.0414C18.1649 12.132 18.1135 12.2551 18.1135 12.3836V13.3869C17.655 12.9355 17.0856 12.6108 16.4617 12.4449C15.833 12.2777 15.171 12.2776 14.5423 12.4448C13.9136 12.6119 13.3402 12.9403 12.8798 13.3971C12.4198 13.8536 12.0888 14.4222 11.9202 15.0458C11.9018 15.1074 11.8959 15.172 11.9028 15.2359C11.9099 15.3004 11.9299 15.3627 11.9616 15.4193C11.9934 15.4759 12.0362 15.5255 12.0876 15.5652C12.1389 15.605 12.1977 15.6341 12.2606 15.6508C12.3234 15.6675 12.3889 15.6716 12.4533 15.6627C12.5177 15.6539 12.5797 15.6323 12.6356 15.5992C12.6915 15.5661 12.7402 15.5222 12.7787 15.4701C12.817 15.4183 12.8445 15.3595 12.8597 15.297C12.9838 14.8374 13.2277 14.4182 13.5668 14.0816C13.9063 13.7446 14.3293 13.5022 14.7932 13.3788C15.2572 13.2554 15.7458 13.2554 16.2098 13.3787C16.6681 13.5006 17.0864 13.7385 17.4237 14.069H16.4134C16.2846 14.069 16.1609 14.1198 16.0696 14.2104C15.9783 14.301 15.9268 14.4241 15.9268 14.5526C15.9268 14.6811 15.9783 14.8042 16.0696 14.8948C16.1609 14.9854 16.2846 15.0362 16.4134 15.0362H18.6006C18.6006 15.0362 18.6006 15.0362 18.6006 15.0362C18.7293 15.0362 18.8528 14.9856 18.9442 14.8953Z" fill="white" stroke="white" stroke-width="0.2"/>
<path fill-rule="evenodd" clip-rule="evenodd" d="M11.7116 4.08712C13.9023 3.97096 16.0977 3.97096 18.2884 4.08712C19.4856 4.15067 20.5541 4.80211 21.1756 5.78598L22.1921 7.39562C22.4892 7.86372 22.9907 8.1815 23.5664 8.26338C24.0443 8.32938 24.5197 8.40149 24.9927 8.47971C26.7656 8.77182 28 10.3045 28 12.0351V22.3334C28 23.3058 27.6087 24.2385 26.9121 24.9261C26.2155 25.6137 25.2708 26 24.2857 26H5.71429C4.7292 26 3.78445 25.6137 3.08789 24.9261C2.39133 24.2385 2 23.3058 2 22.3334V12.0351C2 10.3045 3.23438 8.77182 5.00733 8.47971C5.48029 8.40149 5.95571 8.32938 6.43238 8.26216C6.71171 8.22526 6.97948 8.12845 7.21689 7.97855C7.4543 7.82864 7.6556 7.62926 7.80667 7.3944L8.82438 5.7872C9.13204 5.29594 9.55506 4.88507 10.0576 4.58936C10.5602 4.29364 11.1275 4.12057 11.7116 4.08712ZM8.5 15.9168C8.5 14.215 9.18482 12.583 10.4038 11.3796C11.6228 10.1763 13.2761 9.50025 15 9.50025C16.7239 9.50025 18.3772 10.1763 19.5962 11.3796C20.8152 12.583 21.5 14.215 21.5 15.9168C21.5 17.6186 20.8152 19.2507 19.5962 20.454C18.3772 21.6574 16.7239 22.3334 15 22.3334C13.2761 22.3334 11.6228 21.6574 10.4038 20.454C9.18482 19.2507 8.5 17.6186 8.5 15.9168ZM23.3571 14.0835C23.6034 14.0835 23.8396 13.9869 24.0137 13.815C24.1879 13.6431 24.2857 13.41 24.2857 13.1669C24.2857 12.9238 24.1879 12.6906 24.0137 12.5187C23.8396 12.3468 23.6034 12.2502 23.3571 12.2502C23.1109 12.2502 22.8747 12.3468 22.7005 12.5187C22.5264 12.6906 22.4286 12.9238 22.4286 13.1669C22.4286 13.41 22.5264 13.6431 22.7005 13.815C22.8747 13.9869 23.1109 14.0835 23.3571 14.0835Z" fill="white"/>
</svg>
