<svg width="16" height="45" viewBox="0 0 16 45" fill="none" xmlns="http://www.w3.org/2000/svg">
<path d="M15.9906 27.6686C16.0611 27.3866 15.7187 27.2255 15.5173 27.4068C10.9155 31.6965 4.3501 34.1534 0.0100795 38.6344V44.5755C7.82412 42.0581 14.0069 35.6438 15.9906 27.6686Z" fill="#9BB865"/>
<path d="M11.3686 11.0033C11.3787 10.8422 11.1169 10.8019 11.0565 10.9429C8.43836 16.8135 3.20215 21.1334 0 26.6113V31.5051C1.41982 30.6291 3.25249 29.2193 3.82646 28.6353C8.51892 23.9428 11.127 17.5184 11.3686 11.0033Z" fill="#9BB865"/>
<path d="M4.50113 11.2349C4.54141 11.094 4.58169 10.953 4.62197 10.812C5.56851 7.4991 6.6661 3.61222 5.66921 0.19861C5.57858 -0.103479 5.1758 -0.043064 5.13552 0.259025C4.71259 3.62229 3.23236 6.69353 1.71184 9.68421C1.10766 10.8523 0.543761 12.0405 0 13.2287V20.9018C0.0503482 20.8313 0.100696 20.7608 0.140975 20.7105C2.12469 17.8406 3.5143 14.5781 4.50113 11.2349Z" fill="#9BB865"/>
<path d="M4.73273 5.00183C4.48099 4.94141 4.22925 5.09246 4.15876 5.3442C3.17194 9.23108 2.07435 13.5006 0 17.1962V19.0087C2.68859 14.9305 3.93723 10.0064 5.0751 5.5758C5.13552 5.32406 4.98447 5.06225 4.73273 5.00183Z" fill="#809A40"/>
<path d="M4.37023 25.8158C5.44769 24.3053 6.30361 22.6338 7.13939 21.0226C8.05572 19.2403 9.00227 17.3976 10.2408 15.8066C10.4019 15.6052 10.3617 15.3031 10.1603 15.152C9.95889 14.9909 9.66687 15.0312 9.50575 15.2326C8.21684 16.8941 7.25015 18.767 6.31368 20.5896C5.49803 22.1706 4.65218 23.8119 3.61501 25.262C2.56777 26.7321 1.31913 28.011 0.0100795 29.1891V30.4579C1.57087 29.0985 3.10146 27.588 4.37023 25.8158Z" fill="#809A40"/>
<path d="M14.2888 30.2867C14.4499 30.0853 14.4097 29.7933 14.2083 29.6322C14.0069 29.4711 13.7149 29.5113 13.5537 29.7127C9.84811 34.4455 5.20601 38.4431 0 41.4338V42.5213C5.50809 39.44 10.4019 35.2611 14.2888 30.2867Z" fill="#809A40"/>
</svg>
