<svg width="24" height="20" viewBox="0 0 24 20" fill="none" xmlns="http://www.w3.org/2000/svg">
<g clip-path="url(#clip0_54_1036)">
<path d="M18.5681 1.2124H5.43422C3.98988 1.2124 3.47435 1.38953 2.94855 1.68068C2.37759 1.99682 1.92951 2.46074 1.62416 3.05189C1.34295 3.59628 1.17188 4.13004 1.17188 5.62543V14.3751C1.17188 15.8705 1.34295 16.4043 1.62416 16.9487C1.92951 17.5398 2.37759 18.0037 2.94855 18.3199C3.47435 18.611 3.98988 18.7882 5.43422 18.7882H18.5681C20.0124 18.7882 20.5279 18.611 21.0537 18.3199C21.6247 18.0037 22.0728 17.5398 22.3781 16.9487C22.6593 16.4043 22.8304 15.8705 22.8304 14.3751V5.62543C22.8304 4.13004 22.6593 3.59628 22.3781 3.05189C22.0728 2.46074 21.6247 1.99682 21.0537 1.68068C20.5279 1.38953 20.0124 1.2124 18.5681 1.2124Z" fill="#FF4B4B" stroke="#CECECE" stroke-width="1.17073"/>
<path d="M1.75781 6.57036C1.75781 4.90718 1.75781 4.07557 2.07044 3.44033C2.34543 2.88154 2.78422 2.42724 3.32393 2.14253C3.93748 1.81885 4.74069 1.81885 6.34708 1.81885H17.6563C19.2627 1.81885 20.0659 1.81885 20.6795 2.14253C21.2192 2.42724 21.658 2.88154 21.933 3.44033C22.2456 4.07557 22.2456 4.90718 22.2456 6.57036V13.431C22.2456 15.0941 22.2456 15.9258 21.933 16.561C21.658 17.1198 21.2192 17.5741 20.6795 17.8588C20.0659 18.1825 19.2627 18.1825 17.6563 18.1825H6.34708C4.74069 18.1825 3.93748 18.1825 3.32393 17.8588C2.78422 17.5741 2.34543 17.1198 2.07044 16.561C1.75781 15.9258 1.75781 15.0941 1.75781 13.431V6.57036Z" fill="#1254A9"/>
<path d="M6.34708 18.1823H17.6563C19.2627 18.1823 20.0659 18.1823 20.6795 17.8586C21.2192 17.5739 21.658 17.1196 21.933 16.5608C22.2456 15.9256 22.2456 15.094 22.2456 13.4308V10.0005H1.75781V13.4308C1.75781 15.094 1.75781 15.9256 2.07044 16.5608C2.34543 17.1196 2.78422 17.5739 3.32393 17.8586C3.93748 18.1823 4.74069 18.1823 6.34708 18.1823Z" fill="#FF4B4B"/>
<path d="M9.21875 8.63663C9.21875 8.13454 9.61185 7.72754 10.0968 7.72754H13.9017C14.3866 7.72754 14.7797 8.13454 14.7797 8.63663V11.3639C14.7797 11.866 14.3866 12.273 13.9017 12.273H10.0968C9.61185 12.273 9.21875 11.866 9.21875 11.3639V8.63663Z" fill="#222222"/>
<path d="M12.7945 8.63574C12.9913 8.53147 13.238 8.62622 13.2517 8.85468C13.2559 8.92535 13.2546 8.9965 13.2476 9.06738C13.2265 9.2801 13.1552 9.48419 13.0398 9.66156C12.9244 9.83892 12.7686 9.98407 12.586 10.0842C12.4035 10.1843 12.2 10.2363 11.9934 10.2354C11.7869 10.2346 11.5837 10.1811 11.402 10.0796C11.2201 9.9781 11.0653 9.83174 10.9513 9.6535C10.8371 9.47525 10.7672 9.27062 10.7478 9.05774C10.7413 8.98674 10.7405 8.91556 10.7452 8.84489C10.7605 8.61659 11.0078 8.52371 11.2038 8.62941L11.9981 9.05774L12.7945 8.63574Z" fill="#47A600"/>
<path d="M11.6988 11.5026C11.832 11.4176 11.8308 11.2283 11.7202 11.1138L10.3971 9.74388C10.2865 9.62937 10.1037 9.62819 10.0215 9.76601C9.90371 9.96361 9.83984 10.1928 9.83984 10.4288C9.83984 10.7635 9.96824 11.0845 10.1968 11.3211C10.4254 11.5578 10.7354 11.6907 11.0587 11.6907C11.2866 11.6907 11.508 11.6246 11.6988 11.5026Z" fill="#1254A9"/>
<path d="M12.3015 11.5026C12.1683 11.4176 12.1695 11.2283 12.2801 11.1138L13.6032 9.74388C13.7138 9.62937 13.8966 9.62819 13.9788 9.76601C14.0966 9.96361 14.1605 10.1928 14.1605 10.4288C14.1605 10.7635 14.0321 11.0845 13.8035 11.3211C13.5749 11.5578 13.2649 11.6907 12.9416 11.6907C12.7137 11.6907 12.4923 11.6246 12.3015 11.5026Z" fill="#1254A9"/>
<path d="M11.7203 11.113C11.8309 11.2275 11.832 11.4168 11.6989 11.5019C11.508 11.6238 11.2866 11.69 11.0587 11.69C10.8764 11.69 10.6983 11.6476 10.5366 11.5683C10.5357 11.5508 10.5352 11.5331 10.5352 11.5153C10.5352 11.0722 10.8413 10.7031 11.2466 10.6226L11.7203 11.113Z" fill="#FF4B4B"/>
<path d="M12.7538 10.6226L12.2801 11.113C12.1695 11.2275 12.1683 11.4168 12.3015 11.5019C12.4923 11.6238 12.7137 11.69 12.9416 11.69C13.1239 11.69 13.3021 11.6476 13.4637 11.5683C13.4647 11.5508 13.4652 11.5331 13.4652 11.5153C13.4652 11.0722 13.159 10.7032 12.7538 10.6226Z" fill="#FF4B4B"/>
</g>
<defs>
<clipPath id="clip0_54_1036">
<rect width="24" height="20" fill="white"/>
</clipPath>
</defs>
</svg>
