<svg width="24" height="20" viewBox="0 0 24 20" fill="none" xmlns="http://www.w3.org/2000/svg">
<g clip-path="url(#clip0_54_900)">
<path d="M18.5642 1.21118H5.43032C3.98598 1.21118 3.47045 1.38831 2.94463 1.67946C2.37368 1.9956 1.9256 2.45952 1.62026 3.05065C1.33905 3.59507 1.16797 4.12882 1.16797 5.62422V14.3739C1.16797 15.8693 1.33905 16.4031 1.62026 16.9475C1.9256 17.5386 2.37368 18.0025 2.94463 18.3187C3.47045 18.6098 3.98598 18.7869 5.43032 18.7869H18.5642C20.0085 18.7869 20.524 18.6098 21.0498 18.3187C21.6208 18.0025 22.0689 17.5386 22.3742 16.9475C22.6554 16.4031 22.8265 15.8693 22.8265 14.3739V5.62422C22.8265 4.12882 22.6554 3.59507 22.3742 3.05065C22.0689 2.45952 21.6208 1.9956 21.0498 1.67946C20.524 1.38831 20.0085 1.21118 18.5642 1.21118Z" fill="#1CB0F6" stroke="#CECECE" stroke-width="1.17073"/>
<path d="M10.2417 1.81689V7.8772L22.2417 7.8775V12.1199L10.2417 12.1196V18.1805H6.14415V12.1196L1.75391 12.1199V7.8775L6.14415 7.8772V1.81689H10.2417Z" fill="#FFC800"/>
</g>
<defs>
<clipPath id="clip0_54_900">
<rect width="24" height="20" fill="white"/>
</clipPath>
</defs>
</svg>
