<svg width="24" height="20" viewBox="0 0 24 20" fill="none" xmlns="http://www.w3.org/2000/svg">
<g clip-path="url(#clip0_54_985)">
<path d="M18.5642 1.2124H5.43032C3.98598 1.2124 3.47045 1.38953 2.94463 1.68068C2.37368 1.99682 1.9256 2.46074 1.62026 3.05187C1.33905 3.59629 1.16797 4.13004 1.16797 5.62544V14.3751C1.16797 15.8705 1.33905 16.4043 1.62026 16.9487C1.9256 17.5398 2.37368 18.0037 2.94463 18.3199C3.47045 18.611 3.98598 18.7882 5.43032 18.7882H18.5642C20.0085 18.7882 20.524 18.611 21.0498 18.3199C21.6208 18.0037 22.0689 17.5398 22.3742 16.9487C22.6554 16.4043 22.8265 15.8705 22.8265 14.3751V5.62544C22.8265 4.13004 22.6554 3.59629 22.3742 3.05187C22.0689 2.46074 21.6208 1.99682 21.0498 1.68068C20.524 1.38953 20.0085 1.2124 18.5642 1.2124Z" fill="#EEEEEE" stroke="#CECECE" stroke-width="1.17073"/>
<path d="M22.2417 12.7275V14.3751C22.2417 15.6989 22.1086 16.1789 21.8586 16.6629C21.6086 17.1468 21.2418 17.5266 20.7744 17.7854C20.3069 18.0443 19.8433 18.1821 18.5647 18.1821H5.43089C4.15232 18.1821 3.68868 18.0443 3.22126 17.7854C2.75383 17.5266 2.387 17.1468 2.13701 16.6629C1.88703 16.1789 1.75391 15.6989 1.75391 14.3751V12.7275H22.2417Z" fill="#1CB0F6"/>
<path d="M5.43089 1.81787H18.5647C19.8433 1.81787 20.3069 1.9557 20.7744 2.21452C21.2418 2.47334 21.6086 2.85315 21.8586 3.3371C22.1086 3.82105 22.2417 4.30108 22.2417 5.62485V7.27242H1.75391V5.62485C1.75391 4.30108 1.88703 3.82105 2.13701 3.3371C2.387 2.85315 2.75383 2.47334 3.22126 2.21452C3.68868 1.9557 4.15232 1.81787 5.43089 1.81787Z" fill="#FF4B4B"/>
</g>
<defs>
<clipPath id="clip0_54_985">
<rect width="24" height="20" fill="white"/>
</clipPath>
</defs>
</svg>
