<svg width="25" height="65" viewBox="0 0 25 65" fill="none" xmlns="http://www.w3.org/2000/svg">
<path d="M15.1143 0.0914713C14.8786 -0.136039 14.4173 0.0914774 14.6038 0.437689C15.8015 2.75236 16.0763 5.37367 16.5574 7.90595C17.0188 10.2899 17.8827 12.5452 18.6288 14.85C19.1 16.3041 19.9933 18.0549 21.2107 19.0144C21.4659 19.2122 21.7801 19.4002 22.0844 19.3013C22.3004 19.232 22.4476 19.0441 22.5753 18.8561C24.4503 15.8688 21.7899 12.0209 20.6511 9.28091C19.2571 5.90782 17.7845 2.61387 15.1143 0.0914713Z" fill="#9BB865"/>
<path d="M0.251091 35.3654C-0.0237879 35.3753 -0.0924931 35.7512 0.143117 35.8897C6.99545 39.9552 11.8843 48.017 20.1601 49.0556C20.7099 49.204 21.3088 49.2732 21.9371 49.2831C22.2414 49.2831 22.3494 48.9468 22.2316 48.7094C18.1673 40.2619 9.3908 34.95 0.251091 35.3654Z" fill="#9BB865"/>
<path d="M21.8879 49.4216C21.5934 49.9162 21.348 50.4603 21.1713 51.0735C21.0829 51.3703 21.3774 51.5681 21.6327 51.5187C22.7813 51.3307 23.9005 51.0538 24.9901 50.6977V44.8615C23.7336 46.1771 22.6537 47.651 21.8879 49.4216Z" fill="#9BB865"/>
<path d="M3.91294 23.8317C3.75587 23.8119 3.68715 24.0493 3.82459 24.1284C9.8621 27.6895 13.6908 34.218 19.6301 37.8087C20.6216 38.8177 22.9385 38.8869 23.0563 38.9364C24.6761 39.6684 21.0241 34.0795 20.2191 33.0706C16.1549 28.006 10.2057 24.7714 3.91294 23.8317Z" fill="#9BB865"/>
<path d="M23.9888 34.9698C23.1053 36.0777 22.3887 37.5219 23.2526 38.5209C23.4293 38.7188 24.1361 38.3923 25 37.8582V33.0508C24.6269 33.674 24.2834 34.307 23.9888 34.9698Z" fill="#9BB865"/>
<path d="M19.4141 23.3766C17.9612 22.0512 16.4002 20.8641 14.7313 19.8057C11.7764 17.9362 8.3306 15.6215 4.74737 15.6413C4.44304 15.6413 4.39395 16.0469 4.65902 16.1557C7.66304 17.4614 10.1369 19.6574 12.5029 21.883C14.8393 24.0691 17.3525 26.0276 19.6791 28.2038C20.1602 28.6588 21.9273 29.5095 22.5948 29.559C23.5569 29.6282 23.2624 28.5797 22.9483 27.5015C22.4574 25.8001 20.6707 24.534 19.4141 23.3766Z" fill="#9BB865"/>
<path d="M23.4293 23.3766C23.0563 24.1977 20.3075 30.3207 23.2329 29.2919C23.6649 29.1435 24.5779 28.006 24.9804 27.4422V19.9046C24.4601 21.062 23.9496 22.2193 23.4293 23.3766Z" fill="#9BB865"/>
<path d="M18.8545 7.97519C18.1771 6.31337 17.539 4.74059 16.9205 3.08867C16.8322 2.85127 16.5475 2.72267 16.3315 2.82159C16.0959 2.91061 15.9781 3.17769 16.0664 3.41509C16.6849 5.0868 17.3623 6.72883 18.0102 8.33129L18.6287 9.85462C21.6622 17.3427 22.9188 25.9386 22.6046 36.9086C22.3101 47.1168 20.4351 56.3458 17.0285 64.3582C16.9304 64.5956 17.0383 64.8626 17.2641 64.9616C17.3721 65.011 17.4801 65.011 17.5881 64.9714C17.7059 64.9319 17.8139 64.8429 17.863 64.7143C21.3088 56.603 23.2133 47.2553 23.5078 36.9283C23.8317 25.8199 22.5457 17.1053 19.4632 9.49852L18.8545 7.97519Z" fill="#809A40"/>
<path d="M23.174 27.6697C22.0548 27.2542 21.1222 26.3837 20.2288 25.5331L20.0325 25.3451C17.0383 22.5458 13.7397 20.0629 10.235 17.956C10.0191 17.8274 9.73436 17.8966 9.60674 18.1142C9.47911 18.3319 9.54784 18.6187 9.76381 18.7473C13.2096 20.8246 16.4591 23.2777 19.4042 26.0276L19.6006 26.2156C20.5724 27.1256 21.5738 28.0653 22.8598 28.5401C22.958 28.5797 23.066 28.5797 23.1642 28.55C23.2918 28.5105 23.3998 28.4116 23.4488 28.2731C23.5372 28.0258 23.4096 27.7587 23.174 27.6697Z" fill="#809A40"/>
<path d="M22.2708 27.5806C22.0941 27.7686 22.1039 28.0554 22.2904 28.2335C22.418 28.3522 22.5947 28.3819 22.7518 28.3324C22.8205 28.3126 22.8893 28.2731 22.9383 28.2137C23.7041 27.3927 24.3913 26.5123 24.9901 25.5825V23.802C24.2342 25.1572 23.3409 26.4332 22.2708 27.5806Z" fill="#809A40"/>
<path d="M22.6243 37.4922C21.7898 37.4229 21.0437 36.8492 20.4154 36.325C18.9625 35.1083 17.5881 33.7234 16.253 32.3781C13.7496 29.8558 11.1579 27.2542 7.9281 25.6122C7.70231 25.4935 7.42743 25.5924 7.31944 25.8199C7.20164 26.0474 7.2998 26.3244 7.52559 26.4332C10.6278 28.006 13.1606 30.5581 15.6149 33.031C16.9598 34.3862 18.3539 35.7908 19.8362 37.0372C20.6314 37.7098 21.5149 38.333 22.5556 38.422C22.6145 38.422 22.6832 38.422 22.7323 38.4022C22.8992 38.3429 23.0268 38.1945 23.0464 38.0066C23.0562 37.7296 22.8697 37.512 22.6243 37.4922Z" fill="#809A40"/>
<path d="M22.6438 37.6208C22.4475 37.7791 22.418 38.0659 22.5751 38.2637C22.6929 38.4121 22.899 38.4715 23.0757 38.4121C23.1248 38.3923 23.1739 38.3726 23.223 38.333C23.8121 37.8582 24.4109 37.3537 24.9999 36.8393V35.593C24.2146 36.3052 23.4292 36.9778 22.6438 37.6208Z" fill="#809A40"/>
<path d="M21.888 48.4819C19.7773 48.1456 18.0888 46.8597 16.5868 45.5243C15.8112 44.8418 15.075 44.09 14.3583 43.3679C13.5435 42.5469 12.709 41.6962 11.8059 40.9246C9.57738 39.0056 6.92676 37.5318 4.13871 36.6415C3.89328 36.5624 3.63802 36.7008 3.5693 36.9382C3.49077 37.1855 3.62822 37.4427 3.86383 37.512C6.5439 38.3627 9.08652 39.7772 11.2168 41.617C12.0807 42.3589 12.9152 43.1997 13.7104 44.0108C14.4368 44.7428 15.1927 45.5045 15.9879 46.2167C17.5979 47.651 19.4141 49.0161 21.7604 49.392C21.8389 49.4019 21.9076 49.392 21.9763 49.3722C22.1334 49.3227 22.261 49.1842 22.2807 49.0062C22.3003 48.7589 22.1334 48.5215 21.888 48.4819Z" fill="#809A40"/>
<path d="M21.8095 49.3128C21.5837 49.4216 21.4855 49.6986 21.5935 49.9261C21.6917 50.1338 21.9371 50.2328 22.1531 50.1635C22.1727 50.1536 22.1924 50.1536 22.2022 50.1437C23.1446 49.6887 24.0772 49.1941 24.9902 48.6797V47.6114C23.9496 48.2148 22.8992 48.7984 21.8095 49.3128Z" fill="#809A40"/>
</svg>
