<svg width="24" height="20" viewBox="0 0 24 20" fill="none" xmlns="http://www.w3.org/2000/svg">
<g clip-path="url(#clip0_54_937)">
<path d="M18.5642 1.2124H5.43032C3.98598 1.2124 3.47045 1.38953 2.94463 1.68068C2.37368 1.99682 1.9256 2.46074 1.62026 3.05187C1.33905 3.59629 1.16797 4.13004 1.16797 5.62544V14.3751C1.16797 15.8705 1.33905 16.4043 1.62026 16.9487C1.9256 17.5398 2.37368 18.0037 2.94463 18.3199C3.47045 18.611 3.98598 18.7882 5.43032 18.7882H18.5642C20.0085 18.7882 20.524 18.611 21.0498 18.3199C21.6208 18.0037 22.0689 17.5398 22.3742 16.9487C22.6554 16.4043 22.8265 15.8705 22.8265 14.3751V5.62544C22.8265 4.13004 22.6554 3.59629 22.3742 3.05187C22.0689 2.46074 21.6208 1.99682 21.0498 1.68068C20.524 1.38953 20.0085 1.2124 18.5642 1.2124Z" fill="#FF4B4B" stroke="#CECECE" stroke-width="1.17073"/>
<path d="M7.74481 8.25244C7.67915 8.56118 7.64453 8.88198 7.64453 9.21116C7.64453 9.61801 7.69741 10.0121 7.79644 10.3864M9.30932 12.7225C10.034 13.3034 10.9435 13.6491 11.9309 13.6491C13.0668 13.806 14.0189 14.4001 14.7871 15.4313" stroke="#FFD300" stroke-width="0.774194" stroke-linecap="round" stroke-linejoin="round"/>
<path fill-rule="evenodd" clip-rule="evenodd" d="M8.42188 6.70044L8.43669 6.52516C8.52758 5.44953 9.44345 4.65385 10.4824 4.74795L10.6517 4.76329L10.6368 4.93857C10.5459 6.0142 9.63007 6.80988 8.59117 6.71577L8.42188 6.70044Z" fill="#FFD300"/>
<path fill-rule="evenodd" clip-rule="evenodd" d="M7.44141 8.87427L7.26531 8.72663C6.45485 8.04713 6.32988 6.81605 6.98617 5.97694L7.12877 5.79461L7.30487 5.94226C8.11533 6.62176 8.2403 7.85283 7.58401 8.69195L7.44141 8.87427Z" fill="#FFD300"/>
<path fill-rule="evenodd" clip-rule="evenodd" d="M9.3125 13.0229L9.097 13.0954C8.10517 13.4291 7.03989 12.8671 6.71763 11.8402L6.64761 11.6171L6.86311 11.5446C7.85494 11.211 8.92022 11.7729 9.24248 12.7998L9.3125 13.0229Z" fill="#FFD300"/>
<path fill-rule="evenodd" clip-rule="evenodd" d="M9.63672 12.9956L9.7431 12.7885C10.2327 11.8351 9.88314 10.6513 8.96234 10.1444L8.76227 10.0343L8.65589 10.2414C8.1663 11.1948 8.51585 12.3786 9.43665 12.8855L9.63672 12.9956Z" fill="#FFD300"/>
<path fill-rule="evenodd" clip-rule="evenodd" d="M7.31641 9.26367L7.34794 9.03135C7.49308 7.96212 8.44792 7.21716 9.48064 7.36743L9.70503 7.40008L9.67349 7.6324C9.52835 8.70163 8.57351 9.44659 7.54079 9.29632L7.31641 9.26367Z" fill="#FFD300"/>
<path d="M16.2396 8.25244C16.3052 8.56118 16.3398 8.88198 16.3398 9.21116C16.3398 9.61801 16.287 10.0121 16.1879 10.3864M14.6751 12.7225C13.9503 13.3034 13.0409 13.6491 12.0535 13.6491C10.9175 13.806 9.96548 14.4001 9.19729 15.4313" stroke="#FFD300" stroke-width="0.774194" stroke-linecap="round" stroke-linejoin="round"/>
<path fill-rule="evenodd" clip-rule="evenodd" d="M15.5625 6.70044L15.5477 6.52516C15.4568 5.44953 14.5409 4.65385 13.502 4.74795L13.3327 4.76329L13.3475 4.93857C13.4384 6.0142 14.3543 6.80988 15.3932 6.71577L15.5625 6.70044Z" fill="#FFD300"/>
<path fill-rule="evenodd" clip-rule="evenodd" d="M16.543 8.87427L16.7191 8.72663C17.5295 8.04713 17.6545 6.81605 16.9982 5.97694L16.8556 5.79461L16.6795 5.94226C15.869 6.62176 15.7441 7.85283 16.4004 8.69195L16.543 8.87427Z" fill="#FFD300"/>
<path fill-rule="evenodd" clip-rule="evenodd" d="M14.6719 13.0229L14.8874 13.0954C15.8792 13.4291 16.9445 12.8671 17.2667 11.8402L17.3368 11.6171L17.1213 11.5446C16.1294 11.211 15.0642 11.7729 14.7419 12.7998L14.6719 13.0229Z" fill="#FFD300"/>
<path fill-rule="evenodd" clip-rule="evenodd" d="M14.3477 12.9956L14.2413 12.7885C13.7517 11.8351 14.1012 10.6513 15.022 10.1444L15.2221 10.0343L15.3285 10.2414C15.8181 11.1948 15.4685 12.3786 14.5477 12.8855L14.3477 12.9956Z" fill="#FFD300"/>
<path fill-rule="evenodd" clip-rule="evenodd" d="M16.668 9.26367L16.6364 9.03135C16.4913 7.96212 15.5365 7.21716 14.5037 7.36743L14.2793 7.40008L14.3109 7.6324C14.456 8.70163 15.4109 9.44659 16.4436 9.29632L16.668 9.26367Z" fill="#FFD300"/>
</g>
<defs>
<clipPath id="clip0_54_937">
<rect width="24" height="20" fill="white"/>
</clipPath>
</defs>
</svg>
