<svg width="24" height="20" viewBox="0 0 24 20" fill="none" xmlns="http://www.w3.org/2000/svg">
<g clip-path="url(#clip0_54_1079)">
<path d="M18.5642 1.2124H5.43032C3.98598 1.2124 3.47045 1.38953 2.94463 1.68068C2.37368 1.99682 1.9256 2.46074 1.62026 3.05187C1.33905 3.59629 1.16797 4.13004 1.16797 5.62544V14.3751C1.16797 15.8705 1.33905 16.4043 1.62026 16.9487C1.9256 17.5398 2.37368 18.0037 2.94463 18.3199C3.47045 18.611 3.98598 18.7882 5.43032 18.7882H18.5642C20.0085 18.7882 20.524 18.611 21.0498 18.3199C21.6208 18.0037 22.0689 17.5398 22.3742 16.9487C22.6554 16.4043 22.8265 15.8705 22.8265 14.3751V5.62544C22.8265 4.13004 22.6554 3.59629 22.3742 3.05187C22.0689 2.46074 21.6208 1.99682 21.0498 1.68068C20.524 1.38953 20.0085 1.2124 18.5642 1.2124Z" fill="#055F44" stroke="#CECECE" stroke-width="1.17073"/>
<ellipse cx="12" cy="10.0007" rx="3.5" ry="3.62374" fill="#DA3434"/>
</g>
<defs>
<clipPath id="clip0_54_1079">
<rect width="24" height="20" fill="white"/>
</clipPath>
</defs>
</svg>
