<svg width="16" height="16" viewBox="0 0 16 16" fill="none" xmlns="http://www.w3.org/2000/svg">
<path d="M11.3333 2.33333H4.66665C2.66665 2.33333 1.33331 3.33333 1.33331 5.66666V10.3333C1.33331 12.6667 2.66665 13.6667 4.66665 13.6667H11.3333C13.3333 13.6667 14.6666 12.6667 14.6666 10.3333V5.66666C14.6666 3.33333 13.3333 2.33333 11.3333 2.33333ZM11.6466 6.39333L9.55998 8.05999C9.11998 8.41333 8.55998 8.58666 7.99998 8.58666C7.43998 8.58666 6.87331 8.41333 6.43998 8.05999L4.35331 6.39333C4.13998 6.21999 4.10665 5.89999 4.27331 5.68666C4.44665 5.47333 4.75998 5.43333 4.97331 5.60666L7.05998 7.27333C7.56665 7.67999 8.42665 7.67999 8.93331 7.27333L11.02 5.60666C11.2333 5.43333 11.5533 5.46666 11.72 5.68666C11.8933 5.89999 11.86 6.21999 11.6466 6.39333Z" fill="#0A8432"/>
</svg>
