<svg width="24" height="24" viewBox="0 0 24 24" fill="none" xmlns="http://www.w3.org/2000/svg">
<path d="M20.25 11H5.25C4.98478 11 4.73043 11.1054 4.54289 11.2929C4.35536 11.4804 4.25 11.7348 4.25 12C4.25 12.2652 4.35536 12.5196 4.54289 12.7071C4.73043 12.8946 4.98478 13 5.25 13H20.25C20.5152 13 20.7696 12.8946 20.9571 12.7071C21.1446 12.5196 21.25 12.2652 21.25 12C21.25 11.7348 21.1446 11.4804 20.9571 11.2929C20.7696 11.1054 20.5152 11 20.25 11Z" fill="#0A8432" stroke="#0A8432" stroke-width="0.5"/>
<path d="M11.9578 18.0422L11.9578 18.0422C12.1455 18.2299 12.2509 18.4845 12.2509 18.75C12.2509 19.0154 12.1455 19.27 11.9578 19.4577C11.7701 19.6455 11.5155 19.7509 11.25 19.7509C10.9845 19.7509 10.7299 19.6455 10.5422 19.4577L3.79244 12.708L11.9578 18.0422ZM11.9578 18.0422L5.91409 12L11.9578 5.95777L11.9578 5.95775C12.1455 5.77003 12.2509 5.51544 12.2509 5.24997C12.2509 4.9845 12.1455 4.72991 11.9578 4.54219C11.7701 4.35448 11.5155 4.24902 11.25 4.24902C10.9845 4.24902 10.7299 4.35448 10.5422 4.54219L10.7172 4.71716M11.9578 18.0422L10.7172 4.71716M10.7172 4.71716L10.5422 4.54219L3.79244 11.292L10.7172 4.71716ZM3.57502 12.3832C3.62539 12.5046 3.6992 12.6149 3.79222 12.7077L3.79222 11.2922C3.6992 11.385 3.62539 11.4953 3.57502 11.6167C3.52461 11.7382 3.49866 11.8684 3.49866 12C3.49866 12.1315 3.52461 12.2617 3.57502 12.3832Z" fill="#0A8432" stroke="#0A8432" stroke-width="0.5"/>
</svg>
