<svg width="18" height="18" viewBox="0 0 18 18" fill="none" xmlns="http://www.w3.org/2000/svg">
<path d="M14.8743 3.07429L14.8827 2.99831C13.9263 2.89159 12.985 2.66754 12.0779 2.33071C11.2463 2.02107 10.4484 1.61873 9.6979 1.13051L9.69761 1.13033C9.48793 0.995243 9.2465 0.923545 9 0.923545C8.7535 0.923545 8.51207 0.995243 8.30239 1.13033L8.30209 1.13052C7.55163 1.61888 6.75374 2.02123 5.92205 2.33073C5.01502 2.66753 4.07376 2.89157 3.11741 2.99829C2.78871 3.03396 2.48511 3.19659 2.26493 3.4535C2.04483 3.71034 1.92351 4.04329 1.92354 4.38788C1.92354 4.38788 1.92354 4.38789 1.92354 4.38789L1.92354 8.31504L1.92354 8.31508C1.92415 9.77682 2.29579 11.2121 3.00027 12.4723C3.70477 13.7325 4.71666 14.7722 5.93164 15.4833L5.93166 15.4833L8.35095 16.8981C8.35099 16.8981 8.35102 16.8981 8.35105 16.8982C8.5491 17.0147 8.77248 17.0762 8.99992 17.0765H8.99997C9.22737 17.0765 9.45077 17.0153 9.64887 16.899C9.64891 16.8989 9.64895 16.8989 9.64899 16.8989L12.0684 15.4833L12.0684 15.4833C13.2833 14.7722 14.2952 13.7325 14.9997 12.4723C15.7042 11.2121 16.0759 9.77682 16.0765 8.31508V8.31504V4.38789C16.0765 4.0433 15.9552 3.71034 15.7351 3.4535C15.5149 3.19657 15.2112 3.03393 14.8825 2.99828L14.8743 3.07429ZM14.8743 3.07429C15.183 3.10777 15.4691 3.26062 15.677 3.50325C15.885 3.74589 16 4.06109 16 4.38788V8.31504M14.8743 3.07429C13.9116 2.96688 12.9642 2.74138 12.0513 2.40238C11.2143 2.09076 10.4114 1.68587 9.65621 1.1946L16 8.31504M16 8.31504C15.9994 9.76391 15.631 11.1863 14.933 12.435C14.235 13.6837 13.2326 14.7133 12.0297 15.4173L16 8.31504ZM9.00055 2.20977L8.99929 2.20978C8.98277 2.20961 8.96626 2.21419 8.95151 2.22339C8.95136 2.22348 8.95121 2.22357 8.95106 2.22367L8.91026 2.15901L9.00055 2.20977ZM9.00055 2.20977C9.01702 2.20965 9.03348 2.21439 9.04808 2.22387M9.00055 2.20977L9.04808 2.22387M8.95101 15.7761L8.95134 15.7763C8.96624 15.7851 8.98273 15.7896 8.99928 15.7896C9.01583 15.7896 9.03233 15.7851 9.04723 15.7763L9.04758 15.7761L11.4685 14.3613L8.95101 15.7761ZM8.95101 15.7761L6.53154 14.3613C6.53153 14.3612 6.53153 14.3612 6.53152 14.3612C5.50854 13.7625 4.65565 12.8866 4.06153 11.8237C3.46739 10.7607 3.15376 9.54963 3.15338 8.3158C3.15338 8.31579 3.15338 8.31578 3.15338 8.31578V4.38867L8.95101 15.7761ZM14.7516 4.2772L14.7516 4.27718C13.6992 4.16001 12.6635 3.91351 11.6657 3.54276L11.6657 3.54275C10.7509 3.20247 9.87344 2.76033 9.04808 2.22387M14.7516 4.2772L9.04808 2.22387M14.7516 4.2772L14.7533 4.27735M14.7516 4.2772L14.7533 4.27735M14.7533 4.27735C14.7775 4.27951 14.8009 4.29122 14.8185 4.31141C14.8362 4.33171 14.8466 4.35897 14.8466 4.38791V8.31578C14.8466 8.31578 14.8466 8.31579 14.8466 8.3158C14.8462 9.54963 14.5326 10.7607 13.9385 11.8237C13.3444 12.8866 12.4915 13.7625 11.4685 14.3612L14.7533 4.27735Z" fill="white" stroke="white" stroke-width="0.15291"/>
<path d="M8.47235 10.9812C8.55353 10.9813 8.63386 10.9647 8.70833 10.9323C8.78283 10.8999 8.84987 10.8524 8.90527 10.7929L11.4889 8.0269C11.5433 7.97023 11.586 7.90331 11.6144 7.83C11.643 7.75652 11.6567 7.67808 11.6547 7.59924C11.6528 7.52041 11.6352 7.44274 11.6031 7.37076C11.571 7.29877 11.5249 7.23389 11.4676 7.1799C11.4102 7.12592 11.3427 7.0839 11.269 7.05631C11.1953 7.02872 11.1169 7.01611 11.0382 7.01922C10.9596 7.02234 10.8824 7.04111 10.8111 7.07444C10.74 7.10768 10.6761 7.15475 10.6233 7.21289L8.43444 9.55579L7.316 8.55839L7.31604 8.55835L7.31371 8.55642C7.19523 8.45889 7.04368 8.41111 6.89082 8.42318C6.73796 8.43525 6.59575 8.50621 6.49395 8.62111C6.39215 8.73601 6.33864 8.88593 6.34454 9.03946C6.35044 9.193 6.41531 9.33834 6.52564 9.44503L6.5256 9.44508L6.52789 9.44712L8.07814 10.8302C8.07816 10.8302 8.07818 10.8303 8.0782 10.8303C8.18655 10.9275 8.32689 10.9813 8.47235 10.9812ZM8.47235 10.9812C8.47232 10.9812 8.47229 10.9812 8.47226 10.9812L8.47238 10.9047L8.47245 10.9812C8.47242 10.9812 8.47238 10.9812 8.47235 10.9812Z" fill="white" stroke="white" stroke-width="0.15291"/>
</svg>
