<svg width="71" height="70" viewBox="0 0 71 70" fill="none" xmlns="http://www.w3.org/2000/svg">
<path d="M68.1795 39.4257L70.9079 29.519C71.2603 28.2504 70.5757 26.8812 69.297 26.2872L52.6146 18.5148C51.336 17.9208 49.8459 18.2832 49.1009 19.3605L43.2716 27.8276C43.1911 27.9383 43.1206 28.0591 43.0703 28.19L23.6192 69.9414H54.004L68.0285 39.8184C68.099 39.6875 68.1392 39.5566 68.1795 39.4257Z" fill="#A0DBEE"/>
<path d="M61.7059 36.2543L69.3172 27.7168C69.4481 27.5758 69.4279 27.3544 69.287 27.2235C69.146 27.0926 68.9245 27.1127 68.7936 27.2537L61.1823 35.7912C60.8803 36.1335 60.6286 36.5161 60.4474 36.9289L45.557 69.9414H46.3222L61.0817 37.2108C61.2428 36.8685 61.4441 36.5463 61.7059 36.2543Z" fill="#6BC2D6"/>
<path d="M67.0418 29.5693L50.7319 22.109C50.5608 22.0285 50.3493 22.109 50.2688 22.2802C50.1883 22.4513 50.2688 22.6628 50.4399 22.7433L66.7499 30.2036C66.77 30.2137 66.7901 30.2237 66.8103 30.2237C66.9714 30.264 67.1425 30.1835 67.213 30.0324C67.2935 29.8613 67.213 29.6499 67.0418 29.5693Z" fill="#6BC2D6"/>
<path d="M56.1484 34.3112L47.6008 30.3344C46.5135 29.831 45.2147 30.2941 44.7113 31.3915L26.7604 69.9514H41.9527L57.1955 37.2108C57.7089 36.1134 57.2358 34.8247 56.1484 34.3112Z" fill="white"/>
<path d="M31.8144 45.7685C32.7709 44.0267 33.9991 42.3957 35.2576 40.8755C36.6067 39.2445 37.8149 37.2712 39.7781 36.3248C39.8385 36.2946 39.909 36.2745 39.9794 36.2443C42.7582 33.7676 46.4833 32.489 49.8359 30.8378C49.7151 30.6969 49.5741 30.566 49.4533 30.4351C49.2721 30.2338 49.0909 30.0425 48.9096 29.8411C48.819 29.7404 48.7183 29.6398 48.6177 29.5491C48.5673 29.4988 48.3559 29.2974 48.3962 29.3377C48.4566 29.3881 48.225 29.1968 48.1747 29.1666C48.074 29.0961 47.9733 29.0256 47.8726 28.9652C47.8424 28.9451 47.7216 28.8746 47.7116 28.8746C47.6713 28.8645 47.6209 28.8343 47.6109 28.8343C47.5505 28.8142 47.48 28.7941 47.4196 28.7739C47.3793 28.7639 47.339 28.7538 47.2988 28.7437C47.2786 28.7437 47.2988 28.7437 47.2585 28.7437C47.1578 28.7336 47.0471 28.7336 46.9464 28.7336C47.1276 28.7336 46.7853 28.7538 46.735 28.7639C46.6041 28.7941 46.4229 28.8343 46.3323 28.8746C45.3053 29.2471 44.2986 29.9821 43.2213 30.3747C42.7984 30.6667 42.3555 30.9284 41.8823 31.1197C41.4091 31.311 40.9057 31.2506 40.5432 30.858C40.3117 30.6063 40.1103 30.3244 39.909 30.0525C39.4156 29.7606 38.9525 29.3981 38.5196 29.0155C38.2176 28.8645 37.9155 28.7336 37.5934 28.643C34.4723 27.7369 31.1701 28.7336 28.5122 30.3747C23.4178 33.5259 19.7934 39.2243 17.7899 44.812C15.5951 50.9031 15.1622 57.5277 16.622 63.8906C17.1053 65.9746 17.7899 67.9882 18.6356 69.9514H31.9453C30.5761 66.6089 29.9015 62.9341 29.4082 59.4205C28.7437 54.6382 29.4988 49.9869 31.8144 45.7685Z" fill="#FFC32C"/>
<path d="M24.0219 54.3664C24.5857 50.0876 26.5288 46.0806 29.1263 42.587C31.7238 39.0733 34.9858 36.053 38.4391 33.2843C37.5229 33.8985 36.5966 34.5227 35.6905 35.1569L33.0729 37.2209C31.4218 38.7109 29.8008 40.2613 28.4014 42.0131C25.5522 45.4664 23.4581 49.6748 22.8339 54.1852C22.1895 58.6956 23.0252 63.3369 24.8978 67.4143C25.2904 68.2701 25.7234 69.1158 26.1865 69.9313H27.0624C26.5791 68.995 26.1361 68.0285 25.7435 67.0519C24.1226 63.0348 23.3776 58.6352 24.0219 54.3664Z" fill="#FFA52B"/>
<path d="M23.3776 53.8429C23.8205 49.0405 25.6227 44.6812 28.8343 41.1071C30.1633 39.6271 31.7339 38.3183 33.3145 37.1303C35.0059 35.8516 36.6269 34.2005 38.7612 33.7273C38.8317 33.7072 38.9022 33.7072 38.9727 33.6971C42.2346 31.9252 46.1611 31.5225 49.8057 30.6868C49.7151 30.5258 49.6144 30.3647 49.5238 30.2036C49.3929 29.972 49.262 29.7304 49.1311 29.5089C49.0607 29.3881 48.9902 29.2773 48.9197 29.1565C48.8794 29.0961 48.7183 28.8545 48.7586 28.9048C48.809 28.9652 48.6277 28.7337 48.5875 28.6833C48.5069 28.5927 48.4264 28.5021 48.3358 28.4115C48.3056 28.3813 48.2049 28.2907 48.1948 28.2806C48.1646 28.2605 48.1143 28.2202 48.1042 28.2202C48.0438 28.19 47.9935 28.1497 47.9331 28.1195C47.9029 28.0994 47.8626 28.0793 47.8223 28.0591C47.8022 28.0491 47.8223 28.0591 47.782 28.0491C47.6814 28.0189 47.5807 27.9887 47.48 27.9685C47.6612 28.0088 47.3189 27.9585 47.2686 27.9585C47.1377 27.9585 46.9565 27.9585 46.8558 27.9685C45.7383 28.1195 44.6006 28.5927 43.4629 28.7337C42.9797 28.9149 42.4964 29.076 41.993 29.1465C41.4896 29.2169 41.0064 29.0458 40.7446 28.5827C40.5735 28.2806 40.4526 27.9685 40.3117 27.6564C39.8989 27.2638 39.5365 26.8006 39.1942 26.3275C38.9324 26.116 38.6706 25.9147 38.3787 25.7536C35.5496 24.1629 32.1064 24.3743 29.1464 25.3609C23.4682 27.2638 18.6356 31.9856 15.4038 36.9692C11.8801 42.3958 9.93697 48.7385 9.90677 55.2826C9.88663 58.6352 10.3598 61.9475 11.2861 65.1793C11.7391 66.7499 12.2928 68.391 12.9976 69.9515H24.9683C22.6929 64.9477 22.8943 59.1587 23.3776 53.8429Z" fill="#F2A933"/>
<path d="M18.0617 60.4575C17.4073 56.1585 17.6892 51.7085 19.29 47.7015C20.8203 43.6643 23.6293 40.201 26.9516 37.4021C30.2841 34.573 34.1401 32.3782 38.137 30.4754C37.1 30.858 36.0631 31.2607 35.0361 31.6735L32.0158 33.083C30.0626 34.1602 28.1397 35.2979 26.3778 36.6873C22.8138 39.3955 19.8135 43.0099 18.1725 47.2686C16.5113 51.5072 16.2697 56.229 17.1556 60.6186C17.81 63.8906 18.9578 67.0519 20.5485 69.9515H20.9109C20.4478 68.9245 20.035 67.8775 19.6827 66.8103C18.9376 64.7363 18.3839 62.612 18.0617 60.4575Z" fill="#F79521"/>
<path d="M17.4073 63.9309C16.2193 58.5849 17.6087 52.967 19.1793 47.8626C20.5988 43.2515 23.2567 39.3553 27.1429 36.5161C28.7538 35.3382 30.5459 34.3918 32.3379 33.5461C34.2508 32.64 36.1839 31.3614 38.3686 31.3412C38.4391 31.3412 38.5095 31.3513 38.58 31.3614C42.144 30.2942 46.0705 30.717 49.8057 30.6466C49.7453 30.4653 49.6849 30.2942 49.6345 30.113C49.554 29.8613 49.4734 29.5995 49.3929 29.3478C49.3526 29.2169 49.3023 29.086 49.2519 28.9552C49.2217 28.8847 49.1211 28.6129 49.1412 28.6733C49.1714 28.7437 49.0405 28.4719 49.0103 28.4216C48.9499 28.3108 48.8895 28.2101 48.8291 28.1095C48.809 28.0793 48.7284 27.9685 48.7183 27.9585C48.6881 27.9282 48.6579 27.888 48.6378 27.8779C48.5875 27.8376 48.5371 27.7873 48.4968 27.737C48.4666 27.7068 48.4364 27.6866 48.4062 27.6564C48.3861 27.6463 48.4062 27.6564 48.376 27.6363C48.2854 27.5859 48.1948 27.5356 48.1042 27.4953C48.2653 27.5658 47.9532 27.4551 47.9028 27.4349C47.772 27.4047 47.5907 27.3745 47.4901 27.3644C46.3725 27.2839 45.1543 27.5155 44.0066 27.4148C43.5032 27.4953 42.9897 27.5557 42.4863 27.5155C41.9829 27.4853 41.54 27.2134 41.3789 26.71C41.2782 26.3879 41.2178 26.0456 41.1473 25.7133C40.8251 25.2401 40.5634 24.7166 40.3318 24.183C40.1204 23.9212 39.8989 23.6695 39.6472 23.4581C37.2007 21.3137 33.7978 20.8103 30.6868 21.1727C24.7367 21.8674 19.0383 25.4918 14.8501 29.7002C10.2793 34.2911 7.0777 40.1003 5.6984 46.4833C4.99365 49.7554 4.77216 53.1079 5.01379 56.4505C5.24535 59.7024 5.81922 63.3168 7.3898 66.2062C8.26571 67.8272 9.6148 69.0353 11.1552 69.9313H18.4141C19.4712 67.9379 17.8503 65.8841 17.4073 63.9309Z" fill="#FFC32C"/>
<path d="M31.895 29.3176C29.7706 29.962 27.6463 30.6869 25.6328 31.6836C21.5955 33.5965 17.9107 36.5262 15.424 40.352C12.9271 44.1576 11.7089 48.7284 11.6888 53.2086C11.6485 57.6989 12.5043 62.169 14.246 66.2465C13.6017 64.1323 13.1285 61.9677 12.8667 59.783C12.5848 57.6083 12.4741 55.4135 12.605 53.2388C12.8566 48.8996 14.0447 44.6006 16.4307 41.0064C18.7564 37.3719 22.2198 34.563 26.0455 32.5091C29.8814 30.4251 34.12 29.076 38.4189 28.039C37.3215 28.2001 36.2342 28.3813 35.1368 28.5726L31.895 29.3176Z" fill="#FFA52B"/>
<path d="M53.3898 48.5472C55.2222 45.4362 53.0173 41.8118 49.3627 42.1641C50.5205 39.0834 48.4264 35.7409 44.8825 35.7509C44.1979 35.7509 43.0199 36.4154 42.5165 36.2744C41.7111 36.0328 41.5802 35.2777 40.9862 34.6737C39.758 33.4152 37.9055 32.6702 36.1436 32.9219C34.4019 33.1736 34.13 33.979 33.3951 35.1166C32.499 34.432 31.4318 34.0293 30.274 34.1703C28.7135 34.3515 27.9685 35.2677 27.6765 36.4657C27.002 36.3449 26.3274 36.355 25.6529 36.5261C22.8138 37.251 21.8875 39.9492 22.703 42.2346C19.8035 44.067 20.2666 48.5874 22.26 51.4769C25.6529 56.4202 31.1499 57.8398 36.798 57.5176C39.7781 57.3465 41.7917 59.5715 44.8926 59.3399C47.782 59.1285 51.3259 57.9002 53.6717 56.1887C56.3296 54.2355 57.2962 49.0304 53.3898 48.5472Z" fill="#9BB765"/>
<path d="M25.0085 42.1038C25.0186 42.3152 25.3307 42.3051 25.3408 42.0937C25.3811 39.8989 27.5557 38.9223 29.4485 39.6069C29.5894 39.6573 29.6398 39.4559 29.5391 39.3754C27.4752 37.8652 24.8978 39.768 25.0085 42.1038Z" fill="#7C9642"/>
<path d="M32.4487 36.4859C31.8346 36.496 29.9217 36.8483 30.3244 37.8249C30.415 38.0363 30.7573 37.9558 30.6767 37.7242C30.5358 37.2712 31.7037 37.09 31.9554 37.0799C32.3782 37.0497 32.8111 37.1202 33.2138 37.241C33.979 37.4625 34.4723 37.9357 35.0865 38.3988C35.2073 38.4894 35.3684 38.3384 35.3281 38.2075C34.9858 37.0698 33.5662 36.4758 32.4487 36.4859Z" fill="#7C9642"/>
<path d="M37.9457 35.1166C36.949 35.0864 36.0933 35.7912 36.0731 36.798C36.0731 36.9288 36.2644 36.9188 36.2745 36.798C36.4054 35.4489 37.9155 35.2676 38.872 35.912C39.4761 36.3248 39.8586 37.0195 40.2916 37.6034C40.4224 37.7846 40.7446 37.6839 40.6641 37.4423C40.2714 36.2543 39.2646 35.1569 37.9457 35.1166Z" fill="#7C9642"/>
<path d="M37.1705 41.8621C34.7341 42.8085 32.2473 42.285 30.9083 39.8989C30.8278 39.7579 30.5861 39.8586 30.6465 40.0096C31.6533 42.6877 34.9153 44.0267 37.3316 42.2346C37.5028 42.1138 37.4121 41.7715 37.1705 41.8621Z" fill="#7C9642"/>
<path d="M38.9324 39.8384C38.8418 39.8988 38.9223 40.0297 39.0129 39.9794C41.1373 38.7712 42.8085 39.9391 43.9865 41.7211C44.1073 41.9023 44.359 41.7815 44.3288 41.5802C43.9562 39.0733 40.7345 38.59 38.9324 39.8384Z" fill="#7C9642"/>
<path d="M43.916 37.986C43.7046 38.0464 43.8052 38.3484 44.0066 38.3082C44.7013 38.1672 45.4564 38.3988 45.8591 39.0129C46.141 39.4458 46.1712 40.0096 46.1712 40.513C46.1712 40.7043 46.4732 40.7949 46.5538 40.6137C47.2988 38.9726 45.4362 37.5531 43.916 37.986Z" fill="#7C9642"/>
<path d="M45.5268 45.849C44.3187 46.1611 43.181 46.2315 42.0232 45.708C41.0366 45.2549 40.5332 44.4898 39.7882 43.7448C39.6774 43.634 39.4559 43.7146 39.4761 43.8757C39.7982 46.6947 43.624 47.6612 45.7483 46.3725C46.0302 46.2013 45.8389 45.7684 45.5268 45.849Z" fill="#7C9642"/>
<path d="M45.7483 43.4931C45.6174 43.5334 45.6779 43.7146 45.8087 43.6945C48.0841 43.3421 49.9567 44.9731 50.2688 47.188C50.299 47.4196 50.6312 47.4297 50.6413 47.178C50.7621 44.4798 48.2653 42.7984 45.7483 43.4931Z" fill="#7C9642"/>
<path d="M52.3226 49.9667C50.2084 50.3392 48.376 50.0976 47.0672 48.1948C46.9363 47.9934 46.5437 48.1243 46.6544 48.376C47.5605 50.5305 50.44 51.9702 52.5039 50.3896C52.7153 50.2285 52.5844 49.9265 52.3226 49.9667Z" fill="#7C9642"/>
<path d="M35.469 6.19172C35.3986 6.17158 35.1569 5.83934 35.0865 5.77893C34.6233 5.35608 34.0696 5.13459 33.4957 4.9131C33.4353 4.89296 33.385 4.87283 33.3246 4.86276C33.234 4.85269 33.1534 4.8829 33.0628 4.9131C32.9219 4.95337 32.7809 4.98357 32.64 4.95337C32.3581 4.90303 32.3077 4.69161 32.2373 4.46005C32.0661 3.88618 31.603 3.41299 31.0493 3.17136C30.3344 2.86932 29.7706 3.18143 29.0659 3.35258C28.7135 2.64783 28.4316 1.89274 27.7772 1.46989C26.8812 0.885957 26.0254 1.64105 25.1495 1.86254C25.0891 1.72159 25.0186 1.58064 24.9683 1.42962C24.8877 1.15779 24.8475 0.896025 24.6864 0.654397C24.3441 0.161072 23.74 -0.050353 23.1561 0.0100541C21.5049 0.181208 20.3471 2.28539 19.7229 3.69489C17.6087 7.30925 16.2193 11.7089 14.548 15.4843C10.7827 23.9917 6.94682 32.4587 3.39287 41.0466C3.37273 41.0869 3.35259 41.1272 3.32239 41.1674C0.543664 44.8623 11.4673 49.5238 13.4507 50.5104C13.6017 50.591 13.803 50.5507 13.8936 50.3896C21.1526 36.7074 28.3511 23.005 35.6603 9.35302C35.8818 9.09126 36.1033 8.81943 36.3147 8.53753C36.5664 8.19522 37.0094 7.63142 37.0195 7.13809C37.0195 6.96694 36.9692 6.79579 36.8282 6.65484C36.5362 6.3528 35.8718 6.29239 35.469 6.19172Z" fill="#7C9642"/>
<path d="M24.4145 3.31233C24.0722 3.13111 23.6595 3.26199 23.4782 3.6043L0.553732 47.2585C0.372511 47.6008 0.503393 48.0136 0.8457 48.1948C0.896039 48.225 0.946378 48.2351 0.996718 48.2552C1.29875 48.3358 1.63099 48.1948 1.78201 47.9029L24.7065 4.24864C24.8877 3.90634 24.7569 3.49355 24.4145 3.31233Z" fill="#9BB765"/>
<path d="M27.9987 4.9433C27.6564 4.85269 27.304 5.04398 27.1832 5.35608C26.6899 6.41321 12.3231 33.093 4.76209 47.0974C4.58087 47.4296 4.70169 47.8525 5.04399 48.0337C5.09433 48.0639 5.14467 48.0841 5.20508 48.0941C5.50712 48.1747 5.82929 48.0337 5.99037 47.7518C28.3913 6.21185 28.4719 5.88968 28.5021 5.789C28.5927 5.41649 28.3712 5.03391 27.9987 4.9433Z" fill="#9BB765"/>
<path d="M32.2675 8.13484C31.9252 7.95361 31.5124 8.07443 31.3312 8.40667L10.1484 47.1276C9.96718 47.4599 10.088 47.8827 10.4202 48.0639C10.4706 48.0941 10.531 48.1143 10.5813 48.1243C10.8834 48.2049 11.2055 48.074 11.3565 47.782L32.5393 9.08121C32.7205 8.74897 32.5997 8.32612 32.2675 8.13484Z" fill="#9BB765"/>
<path d="M8.70869 19.2397L9.20202 11.0042L0 10.4504V11.1854L8.42679 11.6888L7.9536 19.592L8.11469 19.7129C10.5813 21.515 11.9405 24.4045 11.7593 27.445L9.24229 69.9414H9.97724L12.5043 27.4752C12.6855 24.2635 11.276 21.1928 8.70869 19.2397Z" fill="#9DE2F4"/>
<path d="M0 27.9886V69.9414H8.44693L10.7625 30.8278L0 27.9886Z" fill="#9DE2F4"/>
<path d="M10.2289 16.3401L10.541 11.135C10.7525 7.66162 8.09455 4.68153 4.62115 4.47011L0.110746 4.19828C0.070475 4.19828 0.0402714 4.19828 0 4.19828V17.8704C0.473189 17.9208 0.966514 17.961 1.46991 17.9912C5.9501 18.2631 9.85643 17.5281 10.2289 16.3401Z" fill="#773D6B"/>
<g opacity="0.5">
<path d="M5.44671 68.4111C5.32589 67.7566 5.22522 67.0821 5.0742 66.4378C4.96345 65.9646 4.75203 65.5417 4.28891 65.3504C3.73517 65.1189 3.03042 65.1289 2.44649 65.1088C1.78201 65.0887 1.10746 65.1189 0.442986 65.2095C0.291968 65.2296 0.14095 65.2497 0 65.2799V69.9414H5.73868C5.64807 69.448 5.55746 68.9547 5.46684 68.4715C5.45678 68.4513 5.44671 68.4312 5.44671 68.4111Z" fill="white"/>
</g>
<g opacity="0.5">
<path d="M4.58087 68.9346C4.85271 68.7936 5.17488 68.6527 5.46684 68.4715C5.45678 68.4513 5.45678 68.4312 5.45678 68.4111C5.33596 67.7566 5.23528 67.0821 5.08427 66.4378C4.97352 65.9646 4.76209 65.5417 4.29897 65.3504C3.74524 65.1189 3.04049 65.1289 2.45656 65.1088C1.79208 65.0887 1.11753 65.1189 0.453053 65.2095C0.291968 65.2296 0.14095 65.2497 0 65.2799V69.6293C1.42964 70.3844 3.29219 69.6192 4.58087 68.9346Z" fill="white"/>
</g>
<g opacity="0.5">
<path d="M4.76209 58.7459C5.53732 58.2325 6.33268 57.5579 6.7656 56.7122C7.0777 56.0981 7.11797 55.4739 6.96695 54.8698C6.90655 54.5879 6.7958 54.306 6.65485 54.0241C5.89976 52.5139 4.5406 50.3997 2.59751 50.5004C1.67126 50.5406 0.875903 51.1044 0.241628 51.7286C0.151018 51.7991 0.0805428 51.8998 0 51.9803V58.2929C0.624207 58.6452 1.31889 58.907 1.99344 59.1084C2.97002 59.4003 3.90633 59.3198 4.76209 58.7459Z" fill="white"/>
</g>
<g opacity="0.5">
<path d="M3.86606 56.5109C4.65135 56.2592 5.41651 55.8665 6.11119 55.4235C6.35282 55.2725 6.67499 55.0812 6.96695 54.8597C6.90655 54.5778 6.7958 54.2959 6.65485 54.014C5.89976 52.5038 4.5406 50.3896 2.59751 50.4903C1.67126 50.5305 0.875903 51.0943 0.241628 51.7186C0.151018 51.7991 0.0805428 51.8998 0 51.9803V53.8026C0.604071 54.5778 1.24841 55.3329 1.93303 56.0276C2.48676 56.5914 3.11097 56.7525 3.86606 56.5109Z" fill="white"/>
</g>
<g opacity="0.5">
<path d="M2.13438 64.7967C2.5069 64.3034 2.74852 63.7396 2.7888 63.1456C2.93981 62.7832 3.02036 62.3905 2.99015 61.9979C2.95995 61.7059 2.86934 61.4441 2.73846 61.1924C2.74852 61.132 2.72839 61.0716 2.66798 61.0313C2.64785 61.0213 2.62771 61.0011 2.61764 60.9911C2.44649 60.7495 2.23506 60.538 1.98337 60.3669C1.7216 60.1856 1.4397 60.0447 1.14774 59.934C0.98665 59.8232 0.825564 59.7024 0.664478 59.5916C0.442986 59.4507 0.221493 59.3097 0 59.1688V66.7499C0.785293 66.2163 1.57059 65.5619 2.13438 64.7967Z" fill="white"/>
</g>
<g opacity="0.5">
<path d="M0 59.1688V61.3938C0.241628 60.7998 0.463121 60.2058 0.65441 59.5916C0.442986 59.4507 0.221493 59.3097 0 59.1688Z" fill="white"/>
</g>
<path d="M10.7122 30.9586C10.7927 30.9083 10.833 30.858 10.8531 30.7975C10.8632 30.7472 10.8632 30.7271 10.8531 30.6969C10.8531 30.6667 10.833 30.6264 10.8129 30.5962C10.8028 30.5761 10.7927 30.5459 10.7726 30.5257C10.2994 29.831 7.70191 28.6732 4.17816 27.5456C3.23178 27.2436 2.21493 26.9416 1.1578 26.6496C0.765157 26.5388 0.382578 26.4482 0 26.3476V29.3478C0.130882 29.388 0.261764 29.4183 0.402714 29.4585C5.50712 30.8378 9.8665 31.462 10.7122 30.9586Z" fill="#65CDE5"/>
<path d="M1.25848 25.4616C2.44649 25.4314 3.6647 25.3408 4.81243 25.0086C4.90305 24.9783 4.90304 24.8475 4.80237 24.8374C3.68483 24.7971 2.5673 24.9179 1.44977 24.9481C0.966514 24.9683 0.483257 24.9582 0 24.9481V25.4717C0.42285 25.4717 0.8457 25.4717 1.25848 25.4616Z" fill="#9DE2F4"/>
<path d="M3.42307 8.80934C4.43992 8.77914 5.54739 8.77914 6.53404 8.46704C6.67499 8.42676 6.66492 8.23548 6.5139 8.21534C5.57759 8.07439 4.59094 8.21534 3.64456 8.22541C2.66798 8.24554 1.68133 8.23548 0.70475 8.1348C0.473189 8.11466 0.231561 8.06432 0 8.02405V8.55765C0.151018 8.58785 0.291968 8.61805 0.442986 8.64826C1.42964 8.79928 2.43642 8.83955 3.42307 8.80934Z" fill="#602651"/>
<path d="M59.501 63.2463C59.5916 63.0348 59.6923 62.8335 59.8031 62.6321C59.8131 62.6019 59.8333 62.5818 59.8433 62.5516C60.7897 60.7394 61.9475 58.6352 62.3301 56.5713C62.6825 54.6181 62.3502 52.7153 60.4877 51.1548C59.058 49.9567 57.2358 49.3425 55.4336 48.809C50.4198 47.3088 45.3053 46.2014 40.1808 45.0838C30.9083 43.0703 21.6257 41.0466 12.3533 39.0331C8.24557 38.137 4.09762 37.3115 0 36.3651V69.9514H58.3936C58.3432 67.6761 58.5244 65.4511 59.501 63.2463Z" fill="#F4D3C3"/>
<path d="M43.332 67.5452C43.1911 66.9411 43.0401 66.3069 42.5971 65.7934C42.2548 65.3806 41.7816 65.1289 41.3285 64.9074C40.1305 64.3235 38.8418 63.9007 37.6034 63.4879C35.7812 62.8737 34.0495 62.2999 32.5292 61.3031C38.9324 60.1655 45.6577 60.246 52.0307 61.5448C53.269 61.7965 54.5275 62.0985 55.7356 62.4005C56.974 62.6925 58.2325 63.0046 59.501 63.2664C59.5916 63.055 59.6923 62.8536 59.8031 62.6522C58.4842 62.4005 57.1753 62.0784 55.8867 61.7663C54.6684 61.4642 53.3999 61.1622 52.1616 60.9105C45.4564 59.5513 38.3585 59.5111 31.6433 60.8098C31.5225 60.83 31.4117 60.9306 31.3916 61.0615C31.3614 61.1823 31.4117 61.3132 31.5124 61.3938C33.2541 62.7428 35.3583 63.4476 37.4021 64.1322C38.6304 64.545 39.8888 64.9578 41.0466 65.5216C41.4192 65.7028 41.8219 65.9142 42.1038 66.2364C42.436 66.629 42.5669 67.1526 42.6978 67.7264C42.738 67.8976 42.7783 68.0788 42.8287 68.2399C42.9998 68.854 43.2817 69.4279 43.624 69.9615H44.4294C43.9965 69.3876 43.6542 68.7534 43.4529 68.0587C43.4126 67.8775 43.3723 67.7164 43.332 67.5452Z" fill="#E5BDAC"/>
<path d="M63.6087 54.2556C63.8302 52.5441 62.6321 50.9836 60.9307 50.752C59.2191 50.5305 57.6586 51.7286 57.427 53.4301C56.9438 57.0948 54.9 59.8131 51.195 61.7461C48.7888 63.0046 46.1712 63.8805 43.4025 64.8068C41.5098 65.441 39.5465 66.1055 37.6236 66.9009C35.5395 67.7667 33.5461 68.7836 31.6332 69.9313H47.7116C49.8459 69.1863 52.0005 68.3607 54.0845 67.2734C59.5614 64.4242 62.8637 59.9238 63.6087 54.2556Z" fill="#FFE4D9"/>
<path d="M62.2193 51.3461C60.7897 50.148 57.2357 49.3425 55.4437 48.809C50.4299 47.3088 45.3154 46.2014 40.1909 45.0838C30.9184 43.0703 21.6358 41.0466 12.3633 39.0331C8.24557 38.137 4.09762 37.3115 0 36.3651V43.8757L63.0046 56.6115C63.357 54.6584 64.0819 52.9066 62.2193 51.3461Z" fill="#FFE4D9"/>
</svg>
