<svg width="24" height="20" viewBox="0 0 24 20" fill="none" xmlns="http://www.w3.org/2000/svg">
<g clip-path="url(#clip0_54_1022)">
<path d="M18.5642 1.21338H5.43032C3.98598 1.21338 3.47045 1.3905 2.94463 1.68166C2.37368 1.9978 1.9256 2.46172 1.62026 3.05285C1.33905 3.59726 1.16797 4.13102 1.16797 5.62642V14.3761C1.16797 15.8715 1.33905 16.4053 1.62026 16.9497C1.9256 17.5408 2.37368 18.0047 2.94463 18.3209C3.47045 18.612 3.98598 18.7891 5.43032 18.7891H18.5642C20.0085 18.7891 20.524 18.612 21.0498 18.3209C21.6208 18.0047 22.0689 17.5408 22.3742 16.9497C22.6554 16.4053 22.8265 15.8715 22.8265 14.3761V5.62642C22.8265 4.13102 22.6554 3.59726 22.3742 3.05285C22.0689 2.46172 21.6208 1.9978 21.0498 1.68166C20.524 1.3905 20.0085 1.21338 18.5642 1.21338Z" fill="#009468" stroke="#CECECE" stroke-width="1.17073"/>
<path d="M7.99609 18.1936L4.65629 18.1936C3.64571 18.1936 3.27925 18.0871 2.9098 17.8873C2.54034 17.6874 2.25039 17.3942 2.05281 17.0205C1.85522 16.6468 1.75 16.2761 1.75 15.2539L1.75 4.75365C1.75 3.73146 1.85522 3.36078 2.05281 2.98709C2.25039 2.61339 2.54034 2.32011 2.9098 2.12025C3.27925 1.9204 3.64571 1.81396 4.65629 1.81396L7.99609 1.81396L7.99609 18.1936Z" fill="#222222"/>
<path d="M14.7843 6.97212C14.624 7.0188 14.4906 7.07398 14.3841 7.13766C13.3252 7.77063 12.9624 9.17253 13.5737 10.2689C14.1851 11.3652 15.5391 11.7409 16.598 11.1079C16.7046 11.0442 16.8174 10.9522 16.9366 10.8318C17.0095 10.7581 17.1263 10.7596 17.1975 10.8352C17.251 10.8919 17.265 10.977 17.2328 11.0489C17.0039 11.5603 16.5957 11.9915 16.0084 12.3426C14.5965 13.1866 12.7911 12.6858 11.976 11.224C11.1608 9.76217 11.6446 7.89298 13.0564 7.04901C13.6438 6.6979 14.2086 6.54756 14.7509 6.59799C14.8523 6.60742 14.9272 6.70025 14.9181 6.80533C14.9113 6.88429 14.858 6.95066 14.7843 6.97212Z" fill="#222222"/>
<path d="M17.1817 9.19105L17.0572 9.61121C17.0156 9.75174 16.8718 9.83072 16.736 9.7876C16.6818 9.77037 16.6346 9.73505 16.6018 9.68714L16.3512 9.32144C16.3163 9.27049 16.2595 9.24043 16.1992 9.24095L15.7697 9.24466C15.6266 9.24589 15.5096 9.12675 15.5084 8.97855C15.5079 8.92005 15.5259 8.863 15.5596 8.81608L15.8129 8.46378C15.8492 8.41322 15.8591 8.34736 15.8394 8.28775L15.7006 7.86877C15.6545 7.72984 15.726 7.57859 15.8602 7.53094C15.9142 7.51175 15.9729 7.51175 16.0269 7.53093L16.4315 7.67466C16.4891 7.69511 16.5527 7.68484 16.6016 7.64721L16.9418 7.385C17.0567 7.29651 17.219 7.32116 17.3045 7.44005C17.3382 7.48698 17.3562 7.54403 17.3558 7.60252L17.3522 8.04717C17.3517 8.10964 17.3807 8.16841 17.4299 8.20456L17.7832 8.46399C17.899 8.54905 17.9262 8.71519 17.8441 8.83509C17.8113 8.883 17.764 8.91832 17.7098 8.93555L17.304 9.06446C17.2455 9.08305 17.1997 9.13047 17.1817 9.19105Z" fill="#222222"/>
</g>
<defs>
<clipPath id="clip0_54_1022">
<rect width="24" height="20" fill="white"/>
</clipPath>
</defs>
</svg>
