<svg width="18" height="18" viewBox="0 0 18 18" fill="none" xmlns="http://www.w3.org/2000/svg">
<g clip-path="url(#clip0_55_2098)">
<path fill-rule="evenodd" clip-rule="evenodd" d="M4.09097 1.63636V0.818182C4.09097 0.366316 4.45728 0 4.90915 0C5.36102 0 5.72734 0.366316 5.72734 0.818182V1.63636H7.34963C7.3583 1.63622 7.36697 1.63622 7.37573 1.63636H9.00006C9.45195 1.63636 9.81825 2.00268 9.81825 2.45455C9.81825 2.90641 9.45195 3.27273 9.00006 3.27273H8.05482C7.64892 5.34487 6.77559 7.25748 5.44185 9.00695C6.31655 9.97691 7.36943 10.831 8.60292 11.5711C8.99041 11.8037 9.11608 12.3062 8.88355 12.6937C8.65111 13.0812 8.1485 13.2068 7.76101 12.9743C6.4583 12.1927 5.32932 11.2894 4.37626 10.2661C3.49489 11.2095 2.467 12.1005 1.29381 12.9385C0.926106 13.2011 0.415102 13.116 0.152466 12.7483C-0.110181 12.3806 -0.0250148 11.8696 0.342685 11.607C1.49569 10.7834 2.4895 9.91203 3.32565 8.99215C2.6651 8.0838 2.12118 7.09648 1.69504 6.03114C1.52722 5.61159 1.73129 5.13543 2.15083 4.96761C2.57039 4.79979 3.04655 5.00386 3.21436 5.42341C3.53363 6.22155 3.92743 6.96968 4.39648 7.66825C5.37144 6.30184 6.03208 4.83742 6.38285 3.27273H0.818245C0.366371 3.27273 6.24271e-05 2.90641 6.24271e-05 2.45455C6.24271e-05 2.00268 0.366371 1.63636 0.818245 1.63636H4.09097ZM15.0465 13.9091H11.1354L9.76367 17.4755C9.60151 17.8973 9.12811 18.1077 8.70634 17.9454C8.28456 17.7833 8.07421 17.3099 8.23645 16.8881L12.3274 6.25174C12.5963 5.55245 13.5856 5.55245 13.8546 6.25174L17.9455 16.8881C18.1077 17.3099 17.8974 17.7833 17.4756 17.9454C17.0538 18.1077 16.5804 17.8973 16.4183 17.4755L15.0465 13.9091ZM14.4172 12.2727L13.091 8.82466L11.7648 12.2727H14.4172Z" fill="white"/>
</g>
<defs>
<clipPath id="clip0_55_2098">
<rect width="18" height="18" fill="white"/>
</clipPath>
</defs>
</svg>
