<svg width="20" height="20" viewBox="0 0 20 20" fill="none" xmlns="http://www.w3.org/2000/svg">
<path d="M13.5318 10.1311L13.6689 10.2985L7.07837 15.6963C6.88938 15.8511 6.87022 16.1199 7.03559 16.2968L6.87754 16.4446C6.87755 16.4446 6.87755 16.4446 6.87755 16.4446C7.12185 16.7059 7.53836 16.7302 7.81428 16.5043L14.4048 11.1064C15.0933 10.5425 15.1037 9.58264 14.4267 9.00836L7.82303 3.40668C7.82303 3.40668 7.82303 3.40668 7.82302 3.40668C7.55095 3.17588 7.13414 3.19385 6.88541 3.45074C6.62875 3.71582 6.65215 4.12958 6.93247 4.36738L6.93247 4.36738L13.5361 9.96904C13.5816 10.0077 13.5859 10.0373 13.5858 10.0487C13.5856 10.0605 13.5802 10.0914 13.5318 10.1311Z" fill="#999999" stroke="#999999" stroke-width="0.432692"/>
</svg>
