<svg width="313" height="315" viewBox="0 0 313 315" fill="none" xmlns="http://www.w3.org/2000/svg">
<path d="M2.5 62.5V10.45C2.5 7.69691 2.5 6.32036 3.02727 5.26511C3.51124 4.29654 4.29654 3.51125 5.2651 3.02728C6.32035 2.5 7.6969 2.5 10.45 2.5H62.5" stroke="#FFC700" stroke-width="5" stroke-linecap="round"/>
<path d="M250.5 2.5001L302.55 2.5001C305.303 2.5001 306.68 2.5001 307.735 3.02738C308.703 3.51134 309.489 4.29664 309.973 5.26521C310.5 6.32045 310.5 7.697 310.5 10.4501V62.5001" stroke="#FFC700" stroke-width="5" stroke-linecap="round"/>
<path d="M2.5 252.5V304.55C2.5 307.303 2.5 308.68 3.02727 309.735C3.51124 310.703 4.29654 311.489 5.2651 311.973C6.32035 312.5 7.6969 312.5 10.45 312.5H62.5" stroke="#FFC700" stroke-width="5" stroke-linecap="round"/>
<path d="M250.5 312.5H302.55C305.303 312.5 306.68 312.5 307.735 311.973C308.703 311.489 309.489 310.703 309.973 309.735C310.5 308.68 310.5 307.303 310.5 304.55V252.5" stroke="#FFC700" stroke-width="5" stroke-linecap="round"/>
</svg>
