<svg width="24" height="20" viewBox="0 0 24 20" fill="none" xmlns="http://www.w3.org/2000/svg">
<g clip-path="url(#clip0_54_924)">
<path d="M18.5642 1.2124H5.43032C3.98598 1.2124 3.47045 1.38953 2.94463 1.68068C2.37368 1.99682 1.9256 2.46074 1.62026 3.05187C1.33905 3.59629 1.16797 4.13004 1.16797 5.62544V14.3751C1.16797 15.8705 1.33905 16.4043 1.62026 16.9487C1.9256 17.5398 2.37368 18.0037 2.94463 18.3199C3.47045 18.611 3.98598 18.7882 5.43032 18.7882H18.5642C20.0085 18.7882 20.524 18.611 21.0498 18.3199C21.6208 18.0037 22.0689 17.5398 22.3742 16.9487C22.6554 16.4043 22.8265 15.8705 22.8265 14.3751V5.62544C22.8265 4.13004 22.6554 3.59629 22.3742 3.05187C22.0689 2.46074 21.6208 1.99682 21.0498 1.68068C20.524 1.38953 20.0085 1.2124 18.5642 1.2124Z" fill="#EEEEEE" stroke="#CECECE" stroke-width="1.17073"/>
<path d="M8.66854 1.81812V18.1818H5.43089C4.15232 18.1818 3.68868 18.0439 3.22126 17.7851C2.75383 17.5263 2.387 17.1465 2.13701 16.6625C1.88703 16.1786 1.75391 15.6985 1.75391 14.3748V5.6251C1.75391 4.30133 1.88703 3.82129 2.13701 3.33734C2.387 2.85339 2.75383 2.47359 3.22126 2.21477C3.68868 1.95595 4.15232 1.81812 5.43089 1.81812H8.66854Z" fill="#78C800"/>
<path d="M15.3281 1.81812H18.5658C19.8443 1.81812 20.308 1.95595 20.7754 2.21477C21.2428 2.47359 21.6097 2.85339 21.8597 3.33734C22.1096 3.82129 22.2428 4.30133 22.2428 5.6251V14.3748C22.2428 15.6985 22.1096 16.1786 21.8597 16.6625C21.6097 17.1465 21.2428 17.5263 20.7754 17.7851C20.308 18.0439 19.8443 18.1818 18.5658 18.1818H15.3281V1.81812Z" fill="#FF4B4B"/>
</g>
<defs>
<clipPath id="clip0_54_924">
<rect width="24" height="20" fill="white"/>
</clipPath>
</defs>
</svg>
