<svg width="18" height="18" viewBox="0 0 18 18" fill="none" xmlns="http://www.w3.org/2000/svg">
<path fill-rule="evenodd" clip-rule="evenodd" d="M15 4.125C15 5.57475 13.8248 6.75 12.375 6.75C11.6985 6.75 11.0818 6.4941 10.6163 6.07382L6.6646 8.70833C6.72033 8.92118 6.75 9.14468 6.75 9.375C6.75 9.60533 6.72033 9.82882 6.6646 10.0417L10.2029 12.4006C10.6752 11.7061 11.4719 11.25 12.375 11.25C13.8248 11.25 15 12.4253 15 13.875C15 15.3248 13.8248 16.5 12.375 16.5C10.9341 16.5 9.76433 15.339 9.75015 13.9015L5.88365 11.3238C5.41822 11.7441 4.80149 12 4.125 12C2.67525 12 1.5 10.8247 1.5 9.375C1.5 7.92525 2.67525 6.75 4.125 6.75C4.80149 6.75 5.41822 7.0059 5.88365 7.42618L9.83543 4.79168C9.7797 4.57879 9.75 4.35536 9.75 4.125C9.75 2.67525 10.9253 1.5 12.375 1.5C13.8248 1.5 15 2.67525 15 4.125ZM12.375 5.25C12.9963 5.25 13.5 4.74632 13.5 4.125C13.5 3.50368 12.9963 3 12.375 3C11.7537 3 11.25 3.50368 11.25 4.125C11.25 4.74632 11.7537 5.25 12.375 5.25ZM4.125 10.5C4.74632 10.5 5.25 9.9963 5.25 9.375C5.25 8.7537 4.74632 8.25 4.125 8.25C3.50368 8.25 3 8.7537 3 9.375C3 9.9963 3.50368 10.5 4.125 10.5ZM13.5 13.875C13.5 14.4963 12.9963 15 12.375 15C11.7537 15 11.25 14.4963 11.25 13.875C11.25 13.2537 11.7537 12.75 12.375 12.75C12.9963 12.75 13.5 13.2537 13.5 13.875Z" fill="white"/>
</svg>
