<svg width="308" height="308" viewBox="0 0 308 308" fill="none" xmlns="http://www.w3.org/2000/svg">
<path d="M301.999 1.09818L301.999 62.6548C301.999 63.2289 301.534 63.6944 300.96 63.6944C300.386 63.6944 299.92 63.2289 299.92 62.6548L299.92 1.09818L301.999 1.09818Z" fill="#FFC700"/>
<path d="M301.999 2.19637L243.841 2.19636C243.235 2.19636 242.743 1.70469 242.743 1.09818C242.743 0.491674 243.235 2.10883e-06 243.841 2.16335e-06L301.999 7.39098e-06L301.999 2.19637Z" fill="#FFC700"/>
<path d="M1.03955 0H59.1977C59.8042 0 60.2958 0.491672 60.2958 1.09818C60.2958 1.70469 59.8042 2.19636 59.1977 2.19636H1.03955V0Z" fill="#FFC700"/>
<path d="M2.0791 0L2.0791 61.5566C2.0791 62.1308 1.61366 62.5962 1.03951 62.5962C0.465368 62.5962 -6.93281e-05 62.1308 -6.93044e-05 61.5566L-6.67572e-05 -9.60058e-08L2.0791 0Z" fill="#FFC700"/>
<path d="M290 302L243 302C242.448 302 242 301.552 242 301C242 300.448 242.448 300 243 300L290 300L290 302Z" fill="#FFC700"/>
<path d="M300 288L300 240C300 239.448 300.448 239 301 239C301.552 239 302 239.448 302 240L302 288L300 288Z" fill="#FFC700"/>
<path d="M0 300.901L-2.69073e-06 239.344C-2.71582e-06 238.77 0.465435 238.305 1.03958 238.305C1.61373 238.305 2.07917 238.77 2.07917 239.344L2.07917 300.901L0 300.901Z" fill="#FFC700"/>
<path d="M0 299.803L58.1581 299.803C58.7646 299.803 59.2563 300.295 59.2563 300.901C59.2563 301.508 58.7646 301.999 58.1581 301.999L0 301.999L0 299.803Z" fill="#FFC700"/>
<path d="M294.987 294L298.69 297.703L301 295.4L301 301L295.4 301L297.703 298.697L294 294.987L294.987 294ZM308 307.013L304.297 303.31L306.6 301L301 301L301 306.6L303.303 304.297L307.013 308L308 307.013Z" fill="#FFC700"/>
</svg>
