<svg width="13" height="13" viewBox="0 0 13 13" fill="none" xmlns="http://www.w3.org/2000/svg">
<mask id="mask0_66_619" style="mask-type:alpha" maskUnits="userSpaceOnUse" x="-6" y="-6" width="25" height="25">
<rect x="-5.79462" y="-5.79462" width="24.5892" height="24.5892" fill="#D9D9D9"/>
</mask>
<g mask="url(#mask0_66_619)">
<path d="M6.49999 7.57968L1.30233 12.7773C1.16048 12.9192 0.982177 12.9918 0.767414 12.995C0.552668 12.9983 0.371084 12.9258 0.222661 12.7773C0.0742201 12.6289 0 12.4489 0 12.2375C0 12.026 0.0742201 11.8461 0.222661 11.6976L5.42029 6.49999L0.222661 1.30233C0.0807943 1.16048 0.00822185 0.982178 0.00494329 0.767415C0.00164765 0.552669 0.0742201 0.371084 0.222661 0.222661C0.371084 0.0742201 0.551029 0 0.762497 0C0.973964 0 1.15391 0.0742201 1.30233 0.222661L6.49999 5.42029L11.6976 0.222661C11.8395 0.0807943 12.0178 0.00822185 12.2326 0.00494329C12.4473 0.00164765 12.6289 0.0742201 12.7773 0.222661C12.9258 0.371084 13 0.551029 13 0.762497C13 0.973964 12.9258 1.15391 12.7773 1.30233L7.57968 6.49999L12.7773 11.6976C12.9192 11.8395 12.9918 12.0178 12.995 12.2326C12.9983 12.4473 12.9258 12.6289 12.7773 12.7773C12.6289 12.9258 12.4489 13 12.2375 13C12.026 13 11.8461 12.9258 11.6976 12.7773L6.49999 7.57968Z" fill="#999999"/>
</g>
</svg>
