<svg width="24" height="20" viewBox="0 0 24 20" fill="none" xmlns="http://www.w3.org/2000/svg">
<g clip-path="url(#clip0_54_819)">
<path d="M18.5642 1.21118H5.43032C3.98598 1.21118 3.47045 1.38831 2.94463 1.67946C2.37368 1.9956 1.9256 2.45952 1.62026 3.05065C1.33905 3.59507 1.16797 4.12882 1.16797 5.62422V14.3739C1.16797 15.8693 1.33905 16.4031 1.62026 16.9475C1.9256 17.5386 2.37368 18.0025 2.94463 18.3187C3.47045 18.6098 3.98598 18.7869 5.43032 18.7869H18.5642C20.0085 18.7869 20.524 18.6098 21.0498 18.3187C21.6208 18.0025 22.0689 17.5386 22.3742 16.9475C22.6554 16.4031 22.8265 15.8693 22.8265 14.3739V5.62422C22.8265 4.12882 22.6554 3.59507 22.3742 3.05065C22.0689 2.45952 21.6208 1.9956 21.0498 1.67946C20.524 1.38831 20.0085 1.21118 18.5642 1.21118Z" fill="#78C800" stroke="#CECECE" stroke-width="1.17073"/>
<path fill-rule="evenodd" clip-rule="evenodd" d="M3.54171 9.81094L11.652 3.69089C11.8574 3.53585 12.1361 3.53584 12.3415 3.69089L20.4518 9.81094C20.7131 10.0081 20.7705 10.3872 20.5801 10.6577C20.5439 10.7091 20.5001 10.7543 20.4504 10.7916L12.3401 16.8732C12.1353 17.0268 11.8583 17.0268 11.6534 16.8732L3.54313 10.7916C3.2813 10.5952 3.22277 10.2163 3.4124 9.94522C3.44843 9.89371 3.49207 9.8484 3.54171 9.81094Z" fill="#FFC800"/>
<path d="M11.9966 13.9387C13.9363 13.9387 15.5088 12.3107 15.5088 10.3024C15.5088 8.29407 13.9363 6.66602 11.9966 6.66602C10.0568 6.66602 8.48438 8.29407 8.48438 10.3024C8.48438 12.3107 10.0568 13.9387 11.9966 13.9387Z" fill="#1CB0F6"/>
<path fill-rule="evenodd" clip-rule="evenodd" d="M8.49219 10.0623C8.52154 9.59485 8.63618 9.15152 8.82017 8.74878L15.5052 10.4745C15.484 10.943 15.3772 11.3883 15.2007 11.794L8.49219 10.0623Z" fill="#222222"/>
</g>
<defs>
<clipPath id="clip0_54_819">
<rect width="24" height="20" fill="white"/>
</clipPath>
</defs>
</svg>
