<svg width="50" height="50" viewBox="0 0 50 50" fill="none" xmlns="http://www.w3.org/2000/svg">
<path fill-rule="evenodd" clip-rule="evenodd" d="M50 25C50 38.807 38.807 50 25 50C11.1929 50 0 38.807 0 25C0 11.1929 11.1929 0 25 0C38.807 0 50 11.1929 50 25ZM35.0758 17.4242C35.808 18.1564 35.808 19.3436 35.0758 20.0758L22.5758 32.5758C21.8435 33.308 20.6565 33.308 19.9242 32.5758L14.9242 27.5758C14.1919 26.8435 14.1919 25.6565 14.9242 24.9242C15.6564 24.192 16.8436 24.192 17.5758 24.9242L21.25 28.5982L26.837 23.0112L32.4242 17.4242C33.1565 16.6919 34.3435 16.6919 35.0758 17.4242Z" fill="#0A8432"/>
</svg>
