<svg width="7" height="7" viewBox="0 0 7 7" fill="none" xmlns="http://www.w3.org/2000/svg">
<path d="M1.37881 0.236565C1.06339 -0.078855 0.551985 -0.078855 0.236565 0.236565C-0.078855 0.551996 -0.078855 1.06339 0.236565 1.3788L2.35774 3.50002L0.236587 5.62123C-0.0788334 5.93656 -0.0788334 6.44799 0.236587 6.76342C0.552007 7.07885 1.06342 7.07885 1.37881 6.76342L3.50003 4.64231L5.62114 6.76342C5.93657 7.07885 6.448 7.07885 6.76343 6.76342C7.07886 6.44799 7.07886 5.93656 6.76343 5.62113L4.64221 3.50002L6.76343 1.3788C7.07886 1.06342 7.07886 0.552017 6.76343 0.236597C6.448 -0.0788339 5.93657 -0.0788339 5.62114 0.236597L3.50003 2.35773L1.37881 0.236565Z" fill="#222222"/>
</svg>
