<svg width="30" height="30" viewBox="0 0 30 30" fill="none" xmlns="http://www.w3.org/2000/svg">
<path d="M27.2125 2.78751C26.8375 2.41251 26.225 2.41251 25.85 2.78751L2.78748 25.8625C2.41248 26.2375 2.41248 26.85 2.78748 27.225C2.97498 27.4 3.21248 27.5 3.46248 27.5C3.71248 27.5 3.94998 27.4 4.13748 27.2125L27.2125 4.13751C27.6 3.76251 27.6 3.16251 27.2125 2.78751Z" fill="white"/>
<path d="M18.525 4.39999V11.475L11.475 18.525V16.6H7.61251C5.86251 16.6 5.37501 15.525 6.53751 14.2125L15 4.58749L16 3.44999C17.3875 1.87499 18.525 2.29999 18.525 4.39999Z" fill="white"/>
<path d="M23.4625 15.7875L15 25.4125L14 26.55C12.6125 28.125 11.475 27.7 11.475 25.6V22.275L20.35 13.4H22.3875C24.1375 13.4 24.625 14.475 23.4625 15.7875Z" fill="white"/>
</svg>
