<svg width="24" height="24" viewBox="0 0 24 24" fill="none" xmlns="http://www.w3.org/2000/svg">
<path d="M21.3001 22C21.1201 22 20.9401 21.93 20.8101 21.8L18.9501 19.94C18.6801 19.67 18.6801 19.23 18.9501 18.95C19.2201 18.68 19.6601 18.68 19.9401 18.95L21.8001 20.81C22.0701 21.08 22.0701 21.52 21.8001 21.8C21.6601 21.93 21.4801 22 21.3001 22Z" fill="#999999"/>
<path d="M11.5 2C6.26 2 2 6.26 2 11.5C2 16.74 6.26 21 11.5 21C16.74 21 21 16.74 21 11.5C21 6.26 16.74 2 11.5 2ZM14 12.45H9C8.59 12.45 8.25 12.11 8.25 11.7C8.25 11.29 8.59 10.95 9 10.95H14C14.41 10.95 14.75 11.29 14.75 11.7C14.75 12.11 14.41 12.45 14 12.45Z" fill="#999999"/>
</svg>
