<svg width="24" height="20" viewBox="0 0 24 20" fill="none" xmlns="http://www.w3.org/2000/svg">
<g clip-path="url(#clip0_54_780)">
<path d="M18.5642 1.2124H5.43032C3.98598 1.2124 3.47045 1.38953 2.94463 1.68068C2.37368 1.99682 1.9256 2.46074 1.62026 3.05187C1.33905 3.59629 1.16797 4.13004 1.16797 5.62544V14.3751C1.16797 15.8705 1.33905 16.4043 1.62026 16.9487C1.9256 17.5398 2.37368 18.0037 2.94463 18.3199C3.47045 18.611 3.98598 18.7882 5.43032 18.7882H18.5642C20.0085 18.7882 20.524 18.611 21.0498 18.3199C21.6208 18.0037 22.0689 17.5398 22.3742 16.9487C22.6554 16.4043 22.8265 15.8705 22.8265 14.3751V5.62544C22.8265 4.13004 22.6554 3.59629 22.3742 3.05187C22.0689 2.46074 21.6208 1.99682 21.0498 1.68068C20.524 1.38953 20.0085 1.2124 18.5642 1.2124Z" fill="#7AC70C" stroke="#CECECE" stroke-width="1.17073"/>
<path fill-rule="evenodd" clip-rule="evenodd" d="M12.1462 14.2605C14.4901 14.2605 16.3901 12.3611 16.3901 10.0181C16.3901 7.67503 14.4901 5.77563 12.1462 5.77563C9.8024 5.77563 7.90234 7.67503 7.90234 10.0181C7.90234 12.3611 9.8024 14.2605 12.1462 14.2605Z" stroke="white" stroke-width="0.936585"/>
<path d="M12.3906 5.95948C13.027 5.95948 13.5911 5.97546 13.7541 5.15259" stroke="#7AC70C" stroke-width="1.87317" stroke-linecap="round" stroke-linejoin="round"/>
<path fill-rule="evenodd" clip-rule="evenodd" d="M12.5947 14.6756L9.96015 15.4243C9.64839 15.5129 9.32629 15.323 9.24072 15.0002C9.20837 14.8782 9.21373 14.7487 9.25607 14.6299L9.51287 13.9097C9.60244 13.6585 9.87174 13.53 10.1144 13.6228C10.1196 13.6248 10.1247 13.6268 10.1299 13.629L12.5947 14.6756Z" fill="white"/>
<path fill-rule="evenodd" clip-rule="evenodd" d="M11.6983 14.6756L14.3328 15.4243C14.6446 15.5129 14.9667 15.323 15.0522 15.0002C15.0846 14.8782 15.0792 14.7487 15.0369 14.6299L14.7801 13.9097C14.6905 13.6585 14.4212 13.53 14.1786 13.6228C14.1734 13.6248 14.1682 13.6268 14.1631 13.629L11.6983 14.6756Z" fill="white"/>
<path fill-rule="evenodd" clip-rule="evenodd" d="M12.3121 5.71836L11.1747 5.95504L11.0625 6.23824C11.3898 6.18528 11.7754 6.14279 12.2193 6.11097C12.6236 6.08199 12.9588 5.92373 13.2256 5.63696L12.3121 5.71836Z" stroke="white" stroke-width="0.292683"/>
<path d="M12.1438 12.728C13.6794 12.728 14.9243 11.4392 14.9243 9.84925C14.9243 8.25934 13.6794 6.97046 12.1438 6.97046C10.6081 6.97046 9.36328 8.25934 9.36328 9.84925C9.36328 11.4392 10.6081 12.728 12.1438 12.728Z" fill="white"/>
<path d="M12.1443 10.9102C13.3567 10.9102 14.3395 9.89267 14.3395 8.63747C14.3395 7.38228 13.3567 6.36475 12.1443 6.36475C10.932 6.36475 9.94922 7.38228 9.94922 8.63747C9.94922 9.89267 10.932 10.9102 12.1443 10.9102Z" fill="#7AC70C"/>
<path fill-rule="evenodd" clip-rule="evenodd" d="M12.0484 6.00908C11.9892 5.53895 12.1335 5.05327 12.4811 4.70565C12.8162 4.37063 13.2685 4.23554 13.7052 4.29578C13.7648 4.76589 13.6205 5.25157 13.2728 5.59918C12.9383 5.93365 12.4869 6.06884 12.0509 6.00935L12.0484 6.00908Z" fill="white" stroke="white" stroke-width="0.22207" stroke-linecap="round" stroke-linejoin="round"/>
<path fill-rule="evenodd" clip-rule="evenodd" d="M12.2445 6.00908C12.3038 5.53895 12.1595 5.05327 11.8118 4.70565C11.4768 4.37063 11.0245 4.23554 10.5877 4.29578C10.5282 4.76589 10.6725 5.25157 11.0202 5.59918C11.3547 5.93365 11.806 6.06884 12.2421 6.00935L12.2445 6.00908Z" fill="white" stroke="white" stroke-width="0.22207" stroke-linecap="round" stroke-linejoin="round"/>
</g>
<defs>
<clipPath id="clip0_54_780">
<rect width="24" height="20" fill="white"/>
</clipPath>
</defs>
</svg>
