<svg width="24" height="20" viewBox="0 0 24 20" fill="none" xmlns="http://www.w3.org/2000/svg">
<g clip-path="url(#clip0_54_833)">
<path d="M18.5642 1.21338H5.43032C3.98598 1.21338 3.47045 1.3905 2.94463 1.68166C2.37368 1.9978 1.9256 2.46172 1.62026 3.05285C1.33905 3.59726 1.16797 4.13102 1.16797 5.62642V14.3761C1.16797 15.8715 1.33905 16.4053 1.62026 16.9497C1.9256 17.5408 2.37368 18.0047 2.94463 18.3209C3.47045 18.612 3.98598 18.7891 5.43032 18.7891H18.5642C20.0085 18.7891 20.524 18.612 21.0498 18.3209C21.6208 18.0047 22.0689 17.5408 22.3742 16.9497C22.6554 16.4053 22.8265 15.8715 22.8265 14.3761V5.62642C22.8265 4.13102 22.6554 3.59726 22.3742 3.05285C22.0689 2.46172 21.6208 1.9978 21.0498 1.68166C20.524 1.3905 20.0085 1.21338 18.5642 1.21338Z" fill="#FF4B4B" stroke="#CECECE" stroke-width="1.17073"/>
<path d="M22.2417 12.7288V14.3763C22.2417 15.7001 22.1086 16.1801 21.8586 16.6641C21.6086 17.148 21.2418 17.5278 20.7744 17.7867C20.3069 18.0455 19.8433 18.1833 18.5647 18.1833H5.43089C4.15232 18.1833 3.68868 18.0455 3.22126 17.7867C2.75383 17.5278 2.387 17.148 2.13701 16.6641C1.88703 16.1801 1.75391 15.7001 1.75391 14.3763V12.7288H22.2417Z" fill="#FFC800"/>
<path d="M5.43089 1.81909H18.5647C19.8433 1.81909 20.3069 1.95692 20.7744 2.21574C21.2418 2.47456 21.6086 2.85437 21.8586 3.33832C22.1086 3.82227 22.2417 4.3023 22.2417 5.62607V7.27364H1.75391V5.62607C1.75391 4.3023 1.88703 3.82227 2.13701 3.33832C2.387 2.85437 2.75383 2.47456 3.22126 2.21574C3.68868 1.95692 4.15232 1.81909 5.43089 1.81909Z" fill="#4C4C4C"/>
</g>
<defs>
<clipPath id="clip0_54_833">
<rect width="24" height="20" fill="white"/>
</clipPath>
</defs>
</svg>
