<svg width="24" height="20" viewBox="0 0 24 20" fill="none" xmlns="http://www.w3.org/2000/svg">
<g clip-path="url(#clip0_54_757)">
<path fill-rule="evenodd" clip-rule="evenodd" d="M18.5642 1.2124H5.43032C3.98598 1.2124 3.47045 1.38953 2.94463 1.68068C2.37368 1.99682 1.9256 2.46074 1.62026 3.05187C1.33905 3.59629 1.16797 4.13004 1.16797 5.62544V14.3751C1.16797 15.8705 1.33905 16.4043 1.62026 16.9487C1.9256 17.5398 2.37368 18.0037 2.94463 18.3199C3.47045 18.611 3.98598 18.7882 5.43032 18.7882H18.5642C20.0085 18.7882 20.524 18.611 21.0498 18.3199C21.6208 18.0037 22.0689 17.5398 22.3742 16.9487C22.6554 16.4043 22.8265 15.8705 22.8265 14.3751V5.62544C22.8265 4.13004 22.6554 3.59629 22.3742 3.05187C22.0689 2.46074 21.6208 1.99682 21.0498 1.68068C20.524 1.38953 20.0085 1.2124 18.5642 1.2124Z" fill="#EEEEEE" stroke="#CECECE" stroke-width="1.17073"/>
<path fill-rule="evenodd" clip-rule="evenodd" d="M5.43061 1.81812H18.5644C19.843 1.81812 20.3066 1.95595 20.7741 2.21477C21.2415 2.47359 21.6083 2.85339 21.8583 3.33734C21.9087 3.43484 21.9543 3.53218 21.995 3.6363H2C2.04074 3.53218 2.08636 3.43484 2.13673 3.33734C2.38671 2.85339 2.75355 2.47359 3.22097 2.21477C3.6884 1.95595 4.15204 1.81812 5.43061 1.81812Z" fill="#FF4B4B"/>
<path fill-rule="evenodd" clip-rule="evenodd" d="M22.2409 5.45483C22.2414 5.51011 22.2417 5.56696 22.2417 5.62545V7.27302H1.75391V5.62545C1.75391 5.56696 1.75417 5.51011 1.75468 5.45483H22.2409Z" fill="#FF4B4B"/>
<path fill-rule="evenodd" clip-rule="evenodd" d="M22.2417 9.09082V10.909H1.75391L1.75391 9.09082H22.2417Z" fill="#FF4B4B"/>
<path fill-rule="evenodd" clip-rule="evenodd" d="M22.2417 14.3753C22.2417 14.4338 22.2414 14.4907 22.2409 14.546H1.75468C1.75417 14.4907 1.75391 14.4338 1.75391 14.3753V12.7278H22.2417V14.3753Z" fill="#FF4B4B"/>
<path fill-rule="evenodd" clip-rule="evenodd" d="M21.995 16.3635C21.9543 16.4676 21.9087 16.565 21.8583 16.6625C21.6083 17.1464 21.2415 17.5262 20.7741 17.7851C20.3066 18.0439 19.843 18.1817 18.5644 18.1817H5.43061C4.15204 18.1817 3.6884 18.0439 3.22097 17.7851C2.75355 17.5262 2.38671 17.1464 2.13673 16.6625C2.08636 16.565 2.04074 16.4676 2 16.3635H21.995Z" fill="#FF4B4B"/>
<path fill-rule="evenodd" clip-rule="evenodd" d="M5.43089 1.81812H11.9978V9.09084H1.75391V5.6251C1.75391 4.30133 1.88703 3.82129 2.13701 3.33734C2.387 2.85339 2.75383 2.47359 3.22126 2.21477C3.68868 1.95595 4.15232 1.81812 5.43089 1.81812Z" fill="#1CB0F6"/>
<path d="M9.89154 4.72801L9.51821 4.93122C9.40098 4.99503 9.25598 4.94836 9.19435 4.82699C9.16981 4.77866 9.16134 4.7233 9.17026 4.66948L9.24156 4.23907C9.24835 4.19811 9.23523 4.15632 9.20649 4.12731L8.90445 3.82249C8.80961 3.72677 8.80767 3.56958 8.90012 3.47139C8.93693 3.43229 8.98516 3.40684 9.03735 3.39899L9.45476 3.33619C9.49448 3.33022 9.52882 3.30439 9.54658 3.26712L9.73325 2.87552C9.79186 2.75255 9.93566 2.70207 10.0544 2.76275C10.1017 2.78692 10.14 2.82655 10.1633 2.87552L10.35 3.26712C10.3678 3.30439 10.4021 3.33022 10.4418 3.33619L10.8592 3.39899C10.9903 3.41871 11.0811 3.5447 11.0621 3.6804C11.0545 3.73443 11.0299 3.78437 10.9921 3.82249L10.6901 4.12731C10.6614 4.15632 10.6482 4.19811 10.655 4.23907L10.7263 4.66948C10.7487 4.80463 10.661 4.93299 10.5305 4.95617C10.4785 4.9654 10.4251 4.95663 10.3784 4.93122L10.005 4.72801C9.96951 4.70867 9.92707 4.70867 9.89154 4.72801Z" fill="white"/>
<path d="M9.89154 7.75828L9.51821 7.96149C9.40098 8.0253 9.25598 7.97864 9.19435 7.85727C9.16981 7.80893 9.16134 7.75357 9.17026 7.69976L9.24156 7.26934C9.24835 7.22838 9.23523 7.18659 9.20649 7.15758L8.90445 6.85276C8.80961 6.75705 8.80767 6.59986 8.90012 6.50166C8.93693 6.46256 8.98516 6.43712 9.03735 6.42926L9.45476 6.36647C9.49448 6.36049 9.52882 6.33466 9.54658 6.2974L9.73325 5.90579C9.79186 5.78283 9.93566 5.73234 10.0544 5.79303C10.1017 5.81719 10.14 5.85683 10.1633 5.90579L10.35 6.2974C10.3678 6.33466 10.4021 6.36049 10.4418 6.36647L10.8592 6.42926C10.9903 6.44898 11.0811 6.57497 11.0621 6.71067C11.0545 6.76471 11.0299 6.81465 10.9921 6.85276L10.6901 7.15758C10.6614 7.18659 10.6482 7.22838 10.655 7.26934L10.7263 7.69976C10.7487 7.83491 10.661 7.96326 10.5305 7.98644C10.4785 7.99567 10.4251 7.9869 10.3784 7.96149L10.005 7.75828C9.96951 7.73894 9.92707 7.73894 9.89154 7.75828Z" fill="white"/>
<path d="M6.96576 4.72801L6.59242 4.93122C6.4752 4.99503 6.3302 4.94836 6.26857 4.82699C6.24403 4.77866 6.23556 4.7233 6.24448 4.66948L6.31578 4.23907C6.32256 4.19811 6.30945 4.15632 6.28071 4.12731L5.97867 3.82249C5.88383 3.72677 5.88189 3.56958 5.97433 3.47139C6.01115 3.43229 6.05938 3.40684 6.11157 3.39899L6.52898 3.33619C6.5687 3.33022 6.60304 3.30439 6.6208 3.26712L6.80747 2.87552C6.86608 2.75255 7.00988 2.70207 7.12864 2.76275C7.17593 2.78692 7.21421 2.82655 7.23755 2.87552L7.42422 3.26712C7.44199 3.30439 7.47632 3.33022 7.51605 3.33619L7.93345 3.39899C8.06452 3.41871 8.15533 3.5447 8.13628 3.6804C8.1287 3.73443 8.10412 3.78437 8.06635 3.82249L7.76432 4.12731C7.73558 4.15632 7.72246 4.19811 7.72924 4.23907L7.80055 4.66948C7.82293 4.80463 7.73526 4.93299 7.60473 4.95617C7.55275 4.9654 7.49928 4.95663 7.4526 4.93122L7.07926 4.72801C7.04373 4.70867 7.00129 4.70867 6.96576 4.72801Z" fill="white"/>
<path d="M6.96576 7.75828L6.59242 7.96149C6.4752 8.0253 6.3302 7.97864 6.26857 7.85727C6.24403 7.80893 6.23556 7.75357 6.24448 7.69976L6.31578 7.26934C6.32256 7.22838 6.30945 7.18659 6.28071 7.15758L5.97867 6.85276C5.88383 6.75705 5.88189 6.59986 5.97433 6.50166C6.01115 6.46256 6.05938 6.43712 6.11157 6.42926L6.52898 6.36647C6.5687 6.36049 6.60304 6.33466 6.6208 6.2974L6.80747 5.90579C6.86608 5.78283 7.00988 5.73234 7.12864 5.79303C7.17593 5.81719 7.21421 5.85683 7.23755 5.90579L7.42422 6.2974C7.44199 6.33466 7.47632 6.36049 7.51605 6.36647L7.93345 6.42926C8.06452 6.44898 8.15533 6.57497 8.13628 6.71067C8.1287 6.76471 8.10412 6.81465 8.06635 6.85276L7.76432 7.15758C7.73558 7.18659 7.72246 7.22838 7.72924 7.26934L7.80055 7.69976C7.82293 7.83491 7.73526 7.96326 7.60473 7.98644C7.55275 7.99567 7.49928 7.9869 7.4526 7.96149L7.07926 7.75828C7.04373 7.73894 7.00129 7.73894 6.96576 7.75828Z" fill="white"/>
<path d="M4.03998 4.72801L3.66664 4.93122C3.54942 4.99503 3.40442 4.94836 3.34279 4.82699C3.31825 4.77866 3.30978 4.7233 3.3187 4.66948L3.39 4.23907C3.39678 4.19811 3.38367 4.15632 3.35492 4.12731L3.05289 3.82249C2.95805 3.72677 2.95611 3.56958 3.04855 3.47139C3.08537 3.43229 3.1336 3.40684 3.18579 3.39899L3.6032 3.33619C3.64292 3.33022 3.67725 3.30439 3.69502 3.26712L3.88169 2.87552C3.9403 2.75255 4.0841 2.70207 4.20286 2.76275C4.25015 2.78692 4.28843 2.82655 4.31177 2.87552L4.49844 3.26712C4.51621 3.30439 4.55054 3.33022 4.59026 3.33619L5.00767 3.39899C5.13873 3.41871 5.22954 3.5447 5.2105 3.6804C5.20292 3.73443 5.17834 3.78437 5.14057 3.82249L4.83854 4.12731C4.80979 4.15632 4.79668 4.19811 4.80346 4.23907L4.87476 4.66948C4.89715 4.80463 4.80948 4.93299 4.67895 4.95617C4.62697 4.9654 4.5735 4.95663 4.52682 4.93122L4.15348 4.72801C4.11795 4.70867 4.07551 4.70867 4.03998 4.72801Z" fill="white"/>
<path d="M4.03998 7.75828L3.66664 7.96149C3.54942 8.0253 3.40442 7.97864 3.34279 7.85727C3.31825 7.80893 3.30978 7.75357 3.3187 7.69976L3.39 7.26934C3.39678 7.22838 3.38367 7.18659 3.35492 7.15758L3.05289 6.85276C2.95805 6.75705 2.95611 6.59986 3.04855 6.50166C3.08537 6.46256 3.1336 6.43712 3.18579 6.42926L3.6032 6.36647C3.64292 6.36049 3.67725 6.33466 3.69502 6.2974L3.88169 5.90579C3.9403 5.78283 4.0841 5.73234 4.20286 5.79303C4.25015 5.81719 4.28843 5.85683 4.31177 5.90579L4.49844 6.2974C4.51621 6.33466 4.55054 6.36049 4.59026 6.36647L5.00767 6.42926C5.13873 6.44898 5.22954 6.57497 5.2105 6.71067C5.20292 6.76471 5.17834 6.81465 5.14057 6.85276L4.83854 7.15758C4.80979 7.18659 4.79668 7.22838 4.80346 7.26934L4.87476 7.69976C4.89715 7.83491 4.80948 7.96326 4.67895 7.98644C4.62697 7.99567 4.5735 7.9869 4.52682 7.96149L4.15348 7.75828C4.11795 7.73894 4.07551 7.73894 4.03998 7.75828Z" fill="white"/>
</g>
<defs>
<clipPath id="clip0_54_757">
<rect width="24" height="20" fill="white"/>
</clipPath>
</defs>
</svg>
