<svg width="32" height="65" viewBox="0 0 32 65" fill="none" xmlns="http://www.w3.org/2000/svg">
<path d="M19.5265 62.512L21.9673 21.6901C22.1474 18.6847 23.828 16.0077 26.4789 14.5348L26.6489 14.4353L27.1191 6.62323L31.9907 6.91184V6.18536L26.4388 5.85693L25.9487 13.9975C23.1878 15.6196 21.4372 18.4558 21.2471 21.6404L18.8063 62.4622C18.7563 63.2982 18.7063 64.1441 18.6462 64.98H19.3765C19.4265 64.164 19.4765 63.338 19.5265 62.512Z" fill="#9DE2F4"/>
<path d="M31.9807 23.5213L22.6676 21.0732L20.4769 59.7953C20.3768 61.5269 20.2668 63.2585 20.1567 64.9901H31.9807V23.5213Z" fill="#9DE2F4"/>
<path d="M25.4685 5.85695L25.1584 11.012C25.3685 12.0867 28.2195 13.1217 31.9808 13.5297V0.0053714C28.5796 -0.133952 25.6686 2.45347 25.4685 5.85695Z" fill="#773D6B"/>
<g opacity="0.5">
<path d="M30.3002 64.2536C30.3202 64.2038 30.3102 64.1441 30.2701 64.0844C30.2601 64.0645 30.2401 64.0546 30.2301 64.0347C30.1201 63.7859 29.97 63.557 29.78 63.348C29.5799 63.129 29.3498 62.9499 29.0997 62.7907C28.9797 62.6514 28.8497 62.522 28.7296 62.3926C28.3895 62.0344 28.0394 61.696 27.6593 61.3775C26.969 60.8103 26.1387 60.3326 25.2184 60.3625C23.2878 60.4321 22.1274 62.6215 21.5072 64.174C21.3972 64.4427 21.3171 64.7114 21.2771 64.99H30.3802C30.3902 64.7313 30.3702 64.4924 30.3002 64.2536Z" fill="white"/>
</g>
<g opacity="0.5">
<path d="M27.6593 61.3775C26.969 60.8103 26.1387 60.3326 25.2184 60.3625C23.2878 60.4321 22.1274 62.6215 21.5072 64.174C21.3972 64.4427 21.3171 64.7114 21.2771 64.99H26.949C27.5992 64.164 28.2094 63.2982 28.7296 62.3926C28.3895 62.0344 28.0394 61.686 27.6593 61.3775Z" fill="white"/>
</g>
<g opacity="0.5">
<path d="M31.98 60.3824C31.57 60.452 31.16 60.5814 30.86 60.87C30.83 60.8999 30.8 60.9297 30.78 60.9695C30.52 61.1188 30.29 61.3278 30.11 61.5666C29.99 61.7159 29.89 61.8851 29.82 62.0443C29.5899 62.5817 29.5699 63.1987 29.5699 63.7759C29.5699 64.1839 29.5999 64.592 29.6299 65H31.98V60.3824Z" fill="white"/>
</g>
<g opacity="0.5">
<path d="M30.86 60.8601C30.83 60.8899 30.8 60.9198 30.78 60.9596C30.52 61.1089 30.29 61.3178 30.11 61.5567C30.23 61.8851 30.37 62.2035 30.52 62.522C30.84 63.2286 31.13 64.164 31.83 64.6019C31.88 64.6318 31.94 64.6517 32 64.6815V60.3824C31.57 60.452 31.16 60.5715 30.86 60.8601Z" fill="white"/>
</g>
<g opacity="0.5">
<path d="M31.24 48.0721C31.12 48.2114 31.01 48.3607 30.9 48.5C30.67 48.6791 30.46 48.8881 30.27 49.117C30.1 49.3459 29.97 49.5847 29.88 49.8435C29.87 49.8634 29.86 49.8733 29.84 49.8932C29.8 49.943 29.8 50.0127 29.82 50.0624C29.77 50.3112 29.76 50.57 29.81 50.8387C29.89 51.1969 30.07 51.5253 30.3 51.794C30.5 52.3115 30.87 52.7394 31.34 53.0778C31.54 53.2171 31.75 53.3564 31.97 53.4759V47.2361C31.72 47.5048 31.47 47.7835 31.24 48.0721Z" fill="white"/>
</g>
<g opacity="0.5">
<path d="M31.2405 48.0721C31.4705 48.4005 31.7305 48.7189 31.9805 49.0374V47.2361C31.7205 47.5048 31.4705 47.7835 31.2405 48.0721Z" fill="white"/>
</g>
<g opacity="0.5">
<path d="M30.1202 47.8034C30.0402 47.6442 29.9201 47.4949 29.7901 47.3456C29.59 47.1267 29.3399 46.9376 29.0699 46.8083C29.0398 46.7784 29.0098 46.7486 28.9798 46.7187C28.5397 46.3704 27.9295 46.3306 27.3893 46.3007C26.7291 46.2709 26.0589 46.3007 25.3986 46.3704C24.8184 46.44 24.1282 46.4898 23.598 46.7585C23.1479 46.9874 22.9778 47.4253 22.9078 47.893C22.8177 48.5399 22.7677 49.2066 22.6977 49.8634C22.6977 49.8833 22.6977 49.9032 22.6877 49.9231C22.6277 50.56 22.5577 51.1969 22.4976 51.8339C22.4476 52.3215 22.4476 52.7992 22.8578 53.1375C23.2579 53.4659 23.8281 53.6053 24.3082 53.7745C24.8784 53.9834 25.4686 54.1725 26.0588 54.3118C27.1192 54.5606 28.4296 54.7099 29.45 54.2521C30.5404 53.7645 30.5104 52.3613 30.5504 51.3363C30.5704 50.7193 30.5604 50.1023 30.5103 49.4853C30.4703 48.9379 30.4003 48.3209 30.1202 47.8034Z" fill="white"/>
</g>
<g opacity="0.5">
<path d="M28.9797 46.7287C28.5396 46.3804 27.9294 46.3406 27.3892 46.3107C26.729 46.2809 26.0588 46.3107 25.3986 46.3804C24.8184 46.45 24.1281 46.4998 23.5979 46.7685C23.1478 46.9974 22.9777 47.4352 22.9077 47.903C22.8177 48.5498 22.7677 49.2166 22.6976 49.8734C22.6976 49.8933 22.6976 49.9132 22.6876 49.9331C22.9877 50.0824 23.3178 50.1919 23.5979 50.3113C24.9784 50.8985 26.9991 51.5354 28.3495 50.5103C29.0098 50.0128 29.2098 49.0574 29.4699 48.3309C29.5799 48.0025 29.69 47.6642 29.79 47.3358C29.59 47.1168 29.3399 46.9277 29.0698 46.7984C29.0398 46.7884 29.0198 46.7585 28.9797 46.7287Z" fill="white"/>
</g>
<g opacity="0.5">
<path d="M31.2905 53.9536C30.4502 53.5157 29.4699 53.2072 28.5196 53.4461C26.5289 53.9536 25.8186 56.4913 25.5185 58.2528C25.4685 58.5812 25.4385 58.8897 25.4685 59.1982C25.5085 59.855 25.7386 60.472 26.2488 60.9895C26.949 61.706 27.9594 62.1439 28.9097 62.4225C29.96 62.741 30.9304 62.532 31.8307 61.9349C31.8807 61.905 31.9307 61.8652 31.9807 61.8254V54.3318C31.7506 54.2024 31.5206 54.073 31.2905 53.9536Z" fill="white"/>
</g>
<g opacity="0.5">
<path d="M28.5196 53.4461C26.5289 53.9536 25.8186 56.4913 25.5185 58.2528C25.4685 58.5812 25.4385 58.8897 25.4685 59.1982C25.8386 59.3375 26.2188 59.427 26.5089 59.5067C27.3492 59.7355 28.2495 59.8948 29.1198 59.9048C29.96 59.9048 30.5402 59.5564 30.9204 58.82C31.3005 58.0836 31.6606 57.3173 31.9807 56.5411V54.3417C31.7506 54.2024 31.5206 54.073 31.2905 53.9536C30.4402 53.5157 29.4699 53.1973 28.5196 53.4461Z" fill="white"/>
</g>
<path d="M30.1002 21.4413C26.4389 20.6153 23.588 20.3168 22.9077 20.7049C22.8277 20.7546 22.7877 20.7845 22.7677 20.8342C22.9778 21.8095 26.9291 23.4615 31.9808 24.8647V21.8991C31.3406 21.7299 30.7004 21.5707 30.1002 21.4413Z" fill="#65CDE5"/>
<path d="M30.0801 20.3666C28.9898 20.2173 27.9194 19.9984 26.8991 19.6003C26.3489 19.3913 25.8087 19.1326 25.2885 18.844C25.0684 18.7246 24.8584 18.5952 24.6583 18.4459C24.4582 18.2966 24.3082 18.0976 24.0781 17.9981C24.0581 17.9881 24.0381 18.008 24.0381 18.0279C24.1381 18.4558 24.6483 18.7843 24.9884 19.0331C25.4186 19.3416 25.8687 19.6003 26.3489 19.8292C27.3992 20.3268 28.5296 20.6552 29.68 20.8343C30.4403 20.9537 31.2105 21.0134 31.9908 21.0333V20.5159C31.3506 20.486 30.7103 20.4462 30.0801 20.3666Z" fill="#9DE2F4"/>
<path d="M27.7494 2.35399C27.6694 2.30423 27.5994 2.41369 27.6694 2.4734C28.8898 3.50838 30.4203 4.04579 31.9808 4.32443V3.797C30.4903 3.55815 29.0598 3.10036 27.7494 2.35399Z" fill="#602651"/>
<path d="M31.9808 31.7912C31.4706 31.6717 30.9504 31.5622 30.4402 31.4329C26.779 30.5571 23.6479 29.8903 20.5569 32.7564C19.4665 33.7715 18.6663 34.9856 18.0861 36.3192C17.2958 38.1503 16.8957 40.1804 16.6856 42.1409C16.1154 47.4054 15.8953 52.5902 14.7149 57.775C14.1447 60.2729 13.4045 62.6514 12.5542 64.9801H31.9808V31.7912Z" fill="#F4D3C3"/>
<path d="M25.7487 62.2433C25.1085 61.696 24.4282 61.1387 24.0181 60.4918C23.9081 60.3127 23.848 60.1634 23.8581 60.054C23.8781 59.7455 24.2382 59.6161 24.8484 59.427C25.0785 59.3573 25.2985 59.2877 25.4986 59.1981C26.0388 58.9593 26.4389 58.4915 26.649 57.8944C26.9191 57.1182 26.8391 56.1927 26.4589 55.4662C25.8087 54.2322 24.5383 53.4759 23.5179 52.8688C23.3679 52.7793 23.1678 52.829 23.0678 52.9783C22.9777 53.1375 23.0278 53.3266 23.1878 53.4261C24.1881 54.0232 25.3185 54.6999 25.8887 55.7747C26.1888 56.3519 26.2488 57.0884 26.0388 57.6954C25.9387 57.994 25.7087 58.402 25.2385 58.611C25.0585 58.6906 24.8684 58.7503 24.6683 58.81C24.0481 58.9991 23.2678 59.2379 23.2178 60.0241C23.1978 60.3625 23.3579 60.661 23.4879 60.8501C23.9481 61.5766 24.6583 62.1737 25.3385 62.7509C26.2388 63.5072 27.0291 64.174 27.1892 65H27.8494C27.6793 63.8854 26.709 63.0494 25.7487 62.2433Z" fill="#E5BDAC"/>
<path d="M6.67226 63.6764C9.82332 52.431 17.6359 42.4693 24.5383 33.682C25.5886 32.3385 25.3485 30.4078 23.9981 29.353C22.6476 28.308 20.707 28.5469 19.6466 29.8904C12.3942 39.1355 4.17142 49.6047 0.700248 62.0244C0.450164 62.9201 0.200067 63.9152 0 64.99H6.33212C6.44215 64.5322 6.56222 64.0944 6.67226 63.6764Z" fill="#FFE4D9"/>
<path d="M30.4402 31.4428C26.779 30.5671 21.1771 27.8104 19.9467 29.761C19.1465 31.0149 16.2655 34.6174 15.6753 35.941L31.9808 39.2151V31.7911C31.4706 31.6817 30.9504 31.5622 30.4402 31.4428Z" fill="#FFE4D9"/>
</svg>
