<svg width="24" height="20" viewBox="0 0 24 20" fill="none" xmlns="http://www.w3.org/2000/svg">
<g clip-path="url(#clip0_54_858)">
<path fill-rule="evenodd" clip-rule="evenodd" d="M18.5642 1.21118H5.43032C3.98598 1.21118 3.47045 1.38831 2.94463 1.67946C2.37368 1.9956 1.9256 2.45952 1.62026 3.05065C1.33905 3.59507 1.16797 4.12882 1.16797 5.62422V14.3739C1.16797 15.8693 1.33905 16.4031 1.62026 16.9475C1.9256 17.5386 2.37368 18.0025 2.94463 18.3187C3.47045 18.6098 3.98598 18.7869 5.43032 18.7869H18.5642C20.0085 18.7869 20.524 18.6098 21.0498 18.3187C21.6208 18.0025 22.0689 17.5386 22.3742 16.9475C22.6554 16.4031 22.8265 15.8693 22.8265 14.3739V5.62422C22.8265 4.12882 22.6554 3.59507 22.3742 3.05065C22.0689 2.45952 21.6208 1.9956 21.0498 1.67946C20.524 1.38831 20.0085 1.21118 18.5642 1.21118Z" fill="#EEEEEE" stroke="#CECECE" stroke-width="1.17073"/>
<path d="M11.9963 13.9381C14.0977 13.9381 15.8012 12.1744 15.8012 9.99872C15.8012 7.82305 14.0977 6.05933 11.9963 6.05933C9.89491 6.05933 8.19141 7.82305 8.19141 9.99872C8.19141 12.1744 9.89491 13.9381 11.9963 13.9381Z" fill="#FF4B4B"/>
<path d="M8.19531 10.1508C8.84618 10.8543 9.48717 11.206 10.1183 11.206C10.7503 11.206 11.3794 10.8533 12.0057 10.1478C12.5784 9.44233 13.1951 9.0896 13.8559 9.0896C14.493 9.0896 15.1416 9.41744 15.8016 10.0731C15.7633 12.2144 14.0748 13.9381 11.9974 13.9381C9.94523 13.9381 8.27251 12.256 8.19531 10.1508Z" fill="#1CB0F6"/>
<path d="M6.74516 16.2525L4.17142 13.5938C4.02123 13.4387 4.02095 13.1869 4.1708 13.0314C4.32065 12.8759 4.56388 12.8756 4.71406 13.0307L7.28781 15.6894C7.438 15.8446 7.43828 16.0964 7.28843 16.2519C7.13858 16.4074 6.89535 16.4077 6.74516 16.2525Z" fill="#4C4C4C"/>
<path d="M18.291 8.01232L17.3584 7.04547C17.2085 6.89004 17.2087 6.63821 17.3588 6.483C17.5089 6.32778 17.7521 6.32796 17.9021 6.48338L18.8346 7.45023C18.9845 7.60566 18.9844 7.85749 18.8342 8.0127C18.6841 8.16792 18.4409 8.16775 18.291 8.01232Z" fill="#4C4C4C"/>
<path d="M4.45625 6.99301C4.30606 7.14815 4.06284 7.14787 3.91299 6.99237C3.76314 6.83687 3.76341 6.58504 3.9136 6.4299L6.48735 3.7712C6.63754 3.61606 6.88077 3.61634 7.03062 3.77184C7.18047 3.92734 7.18019 4.17917 7.03 4.33431L4.45625 6.99301Z" fill="#4C4C4C"/>
<path d="M16.5888 6.2536L15.7183 5.35433C15.5681 5.19919 15.5678 4.94736 15.7177 4.79186C15.8675 4.63636 16.1107 4.63608 16.2609 4.79122L17.1315 5.69049C17.2817 5.84564 17.2819 6.09746 17.1321 6.25296C16.9822 6.40846 16.739 6.40874 16.5888 6.2536Z" fill="#4C4C4C"/>
<path d="M6.05367 13.4345L5.18313 12.5352C5.03295 12.3801 5.03267 12.1283 5.18252 11.9728C5.33237 11.8173 5.57559 11.817 5.72578 11.9721L6.59632 12.8714C6.74651 13.0265 6.74678 13.2784 6.59694 13.4339C6.44709 13.5894 6.20386 13.5897 6.05367 13.4345Z" fill="#4C4C4C"/>
<path d="M16.2375 15.1939C16.0873 15.3491 15.8441 15.3488 15.6942 15.1933C15.5444 15.0378 15.5447 14.786 15.6949 14.6308L18.2686 11.9721C18.4188 11.817 18.662 11.8173 18.8119 11.9728C18.9617 12.1283 18.9614 12.3801 18.8113 12.5352L16.2375 15.1939Z" fill="#4C4C4C"/>
<path d="M19.3183 6.95372L18.3858 5.98688C18.2358 5.83145 18.236 5.57962 18.3861 5.4244C18.5363 5.26919 18.7795 5.26936 18.9294 5.42479L19.862 6.39164C20.0119 6.54707 20.0117 6.7989 19.8616 6.95411C19.7115 7.10933 19.4682 7.10915 19.3183 6.95372Z" fill="#4C4C4C"/>
<path d="M5.4836 8.0516C5.33341 8.20675 5.09018 8.20646 4.94033 8.05096C4.79048 7.89547 4.79076 7.64364 4.94095 7.48849L7.5147 4.8298C7.66488 4.67465 7.90811 4.67494 8.05796 4.83043C8.20781 4.98593 8.20753 5.23776 8.05734 5.3929L5.4836 8.0516Z" fill="#4C4C4C"/>
<path d="M17.2609 16.2525C17.1108 16.4077 16.8675 16.4074 16.7177 16.2519C16.5678 16.0964 16.5681 15.8446 16.7183 15.6894L19.292 13.0307C19.4422 12.8756 19.6855 12.8759 19.8353 13.0314C19.9852 13.1869 19.9849 13.4387 19.8347 13.5938L17.2609 16.2525Z" fill="#4C4C4C"/>
<path d="M17.6162 5.19501L16.7456 4.29574C16.5954 4.14059 16.5952 3.88876 16.745 3.73327C16.8949 3.57777 17.1381 3.57748 17.2883 3.73263L18.1588 4.6319C18.309 4.78704 18.3093 5.03887 18.1594 5.19437C18.0096 5.34986 17.7664 5.35015 17.6162 5.19501Z" fill="#4C4C4C"/>
<path d="M7.75582 15.193L6.82326 14.2261C6.67335 14.0707 6.67352 13.8189 6.82364 13.6637C6.97376 13.5084 7.21699 13.5086 7.3669 13.664L8.29946 14.6309C8.44937 14.7863 8.44921 15.0382 8.29908 15.1934C8.14896 15.3486 7.90573 15.3484 7.75582 15.193Z" fill="#4C4C4C"/>
</g>
<defs>
<clipPath id="clip0_54_858">
<rect width="24" height="20" fill="white"/>
</clipPath>
</defs>
</svg>
