<svg width="50" height="50" viewBox="0 0 50 50" fill="none" xmlns="http://www.w3.org/2000/svg">
<path d="M25 0C11.225 0 0 11.225 0 25C0 38.775 11.225 50 25 50C38.775 50 50 38.775 50 25C50 11.225 38.775 0 25 0ZM35.875 33.925C35.525 34.525 34.9 34.85 34.25 34.85C33.925 34.85 33.6 34.775 33.3 34.575L25.55 29.95C23.625 28.8 22.2 26.275 22.2 24.05V13.8C22.2 12.775 23.05 11.925 24.075 11.925C25.1 11.925 25.95 12.775 25.95 13.8V24.05C25.95 24.95 26.7 26.275 27.475 26.725L35.225 31.35C36.125 31.875 36.425 33.025 35.875 33.925Z" fill="#999999"/>
</svg>
