<svg width="40" height="37" viewBox="0 0 40 37" fill="none" xmlns="http://www.w3.org/2000/svg">
<path d="M35.0075 3.49634C34.9977 3.42783 34.9781 3.35932 34.9683 3.29081C34.9389 3.17336 34.9193 3.05592 34.8997 2.93847C34.8899 2.88953 34.8801 2.83081 34.8605 2.78187C34.8506 2.71336 34.831 2.63507 34.8212 2.56656C34.8114 2.49805 34.7918 2.41975 34.7722 2.35124C34.733 2.18486 34.6839 2.00869 34.6349 1.8423C34.6153 1.77379 34.5859 1.70528 34.5565 1.63677C34.3603 1.11805 34.076 0.658051 33.6151 0.354647C32.8796 -0.124926 31.9186 -0.017265 31.0557 0.100182C21.8381 1.37252 12.6302 2.64485 3.41254 3.91719C1.2258 4.22059 0.343259 4.95464 0.0883026 6.40314C0.0784966 6.47165 0.0686843 6.54995 0.0588783 6.61846C0.0392663 6.78484 0.0196533 6.96101 0.0196533 7.14697C0.0196533 7.21548 0.0196533 7.29378 0.0196533 7.37208C0.0196533 7.44059 0.0196533 7.51888 0.0196533 7.59718C0.0196533 7.76356 0.0294635 7.93973 0.0392696 8.1159C0.0392696 8.18441 0.0490777 8.25292 0.0490777 8.33122C0.0588837 8.41931 0.0588804 8.50739 0.0686864 8.59548C0.696272 16.5623 1.32386 24.5388 1.94164 32.5154C2.00048 33.3082 2.07892 34.1401 2.54961 34.7958C3.16739 35.6473 4.28527 35.9409 5.31491 36.1367C16.2878 38.2605 27.9178 36.3911 37.8905 31.3507C38.018 31.2822 38.1455 31.2137 38.2828 31.155C38.8025 30.8907 39.332 30.5971 39.6556 30.1078C40.1655 29.3346 40.0086 28.3167 39.8223 27.4065C38.2043 19.4299 36.6059 11.4631 35.0075 3.49634Z" fill="#A0DBEE"/>
<path d="M34.89 2.92865C34.8802 2.87972 34.8704 2.82099 34.8508 2.77206C34.841 2.70355 34.8214 2.62525 34.8116 2.55674C34.8018 2.48823 34.7822 2.40993 34.7625 2.34142C34.7233 2.17504 34.6743 1.99887 34.6253 1.83249C34.6056 1.76398 34.5762 1.69546 34.5468 1.62695L0.0786516 6.39333C0.0688456 6.46184 0.0590408 6.54013 0.0492347 6.60864C0.0296227 6.77502 0.0100098 6.95119 0.0100098 7.13715C0.0100098 7.20566 0.0100098 7.28396 0.0100098 7.36226C0.0100098 7.43077 0.0100098 7.50906 0.0100098 7.58736C0.0100098 7.75375 0.0198125 7.92992 0.0296185 8.10609C0.0296185 8.1746 0.0394266 8.24311 0.0394266 8.3214L35.0175 3.48652C35.0077 3.41801 34.9881 3.3495 34.9783 3.28099C34.9391 3.17333 34.9194 3.0461 34.89 2.92865Z" fill="white"/>
<path d="M16.9939 28.8061C14.3855 26.144 9.708 28.5223 10.2081 32.1729C10.5121 34.3554 12.5321 35.8724 14.7091 35.5788C16.9448 35.2656 18.2785 33.1222 18.0627 31.0865C17.9843 30.2644 17.6411 29.4618 16.9939 28.8061Z" fill="#013970"/>
<path d="M12.5615 32.075C12.5419 32.0554 12.5321 32.0358 12.5125 32.0163C12.5223 31.9086 12.5027 31.8107 12.4634 31.7128C12.4242 31.6248 12.3752 31.5465 12.2967 31.478C12.2281 31.3899 12.1791 31.3312 12.1104 31.2822C12.032 31.2235 11.9535 31.1843 11.8555 31.1648C11.7574 31.1354 11.6692 31.1256 11.5613 31.1452C11.375 31.1843 11.1887 31.2724 11.071 31.429C10.9631 31.5954 10.9043 31.7716 10.9239 31.9771C10.9435 32.1141 10.9827 32.2511 11.022 32.3882C11.0514 32.4958 11.071 32.6035 11.1102 32.6916C11.1494 32.7797 11.1985 32.858 11.2573 32.9362C11.3161 33.0145 11.3848 33.0733 11.4534 33.1418C11.4828 33.1614 11.5123 33.1907 11.5417 33.2005C11.6201 33.2494 11.7084 33.3082 11.7966 33.3375C11.8849 33.3767 11.983 33.3963 12.081 33.3865C12.1791 33.3963 12.2771 33.3767 12.3752 33.3277C12.434 33.2984 12.4831 33.2592 12.5419 33.2299C12.6203 33.1711 12.6792 33.1026 12.7184 33.0145C12.7576 32.9656 12.7772 32.9069 12.787 32.8384C12.8165 32.7405 12.8263 32.6426 12.8067 32.5448C12.787 32.4763 12.7674 32.4175 12.7576 32.349C12.7282 32.2414 12.6596 32.1533 12.5615 32.075Z" fill="#02335B"/>
<path d="M12.3751 13.2346C9.76671 10.5725 5.08923 12.9508 5.58934 16.6014C5.89332 18.784 7.91337 20.301 10.0903 20.0074C12.3261 19.6942 13.6597 17.5508 13.444 15.515C13.3557 14.6929 13.0125 13.8904 12.3751 13.2346Z" fill="#013970"/>
<path d="M7.94285 16.5035C7.92324 16.4839 7.91344 16.4644 7.89383 16.4448C7.90363 16.3371 7.88402 16.2393 7.8448 16.1414C7.80557 16.0533 7.75654 15.975 7.67809 15.9065C7.60945 15.8184 7.56042 15.7597 7.49178 15.7107C7.41333 15.652 7.33488 15.6129 7.23682 15.5933C7.13876 15.5639 7.05051 15.5541 6.94264 15.5737C6.75633 15.6129 6.57001 15.701 6.45234 15.8576C6.34448 16.0239 6.28564 16.2001 6.30525 16.4056C6.32486 16.5427 6.36409 16.6797 6.40331 16.8167C6.43273 16.9244 6.45234 17.032 6.49157 17.1201C6.53079 17.2082 6.57982 17.2865 6.63865 17.3648C6.69749 17.4431 6.76613 17.5018 6.83478 17.5703C6.86419 17.5899 6.89361 17.6192 6.92303 17.629C7.00148 17.678 7.08973 17.7367 7.17799 17.7661C7.26624 17.8052 7.3643 17.8248 7.46236 17.815C7.56042 17.8248 7.65848 17.8052 7.75654 17.7661C7.81538 17.7367 7.86441 17.6975 7.92325 17.6682C8.00169 17.6095 8.06053 17.5409 8.09975 17.4529C8.13898 17.4039 8.15859 17.3452 8.1684 17.2767C8.19781 17.1788 8.20762 17.081 8.188 16.9831C8.16839 16.9146 8.14878 16.8558 8.13898 16.7873C8.10956 16.6699 8.03111 16.572 7.94285 16.5035Z" fill="#02335B"/>
<path d="M7.25644 20.761C5.13834 21.3874 3.9322 23.5993 4.54998 25.7133C5.18737 27.8763 7.5212 28.8746 9.49221 28.3559C10.2963 28.1503 11.0416 27.6903 11.5907 26.9563C13.8461 23.981 10.7964 19.7138 7.25644 20.761Z" fill="#013970"/>
<path d="M8.11945 21.495C7.94294 21.407 7.74682 21.3776 7.56051 21.4363C7.42322 21.4755 7.29574 21.5342 7.16827 21.5929C7.07021 21.6321 6.96234 21.6712 6.88389 21.7299C6.80544 21.7887 6.727 21.8474 6.65836 21.9159C6.58971 21.9844 6.54068 22.0627 6.48185 22.141C6.46223 22.1704 6.44262 22.1997 6.43281 22.2389C6.39359 22.3172 6.35437 22.415 6.33475 22.5129C6.30534 22.6108 6.30533 22.7087 6.32495 22.8065C6.33475 22.9044 6.36418 23.0023 6.42301 23.0904C6.46224 23.1393 6.50146 23.1882 6.54068 23.2372C6.60932 23.3057 6.68777 23.3546 6.78583 23.384C6.84467 23.4133 6.90351 23.4329 6.97215 23.4329C7.07021 23.4525 7.16827 23.4427 7.26633 23.4133C7.32517 23.384 7.384 23.3546 7.45264 23.335C7.56051 23.2665 7.63895 23.1784 7.69779 23.0708C7.7174 23.0512 7.73702 23.0316 7.74682 23.0121C7.85469 23.0023 7.95275 22.9729 8.041 22.9142C8.12925 22.8652 8.1979 22.7967 8.24693 22.7184C8.32538 22.6304 8.37441 22.5814 8.41363 22.5031C8.46266 22.415 8.49208 22.327 8.49208 22.2291C8.5117 22.1312 8.50189 22.0333 8.47247 21.9355C8.40383 21.7593 8.29596 21.5831 8.11945 21.495Z" fill="#02335B"/>
<path d="M33.2521 27.3184C29.6729 21.9354 23.3088 31.4584 29.4964 32.7601C31.9578 33.2788 34.0857 31.1158 33.8209 28.8452C33.7719 28.3363 33.5856 27.8175 33.2521 27.3184Z" fill="#013970"/>
<path d="M32.5854 29.8925C32.5559 29.8337 32.5167 29.7848 32.4677 29.7456C32.4089 29.6771 32.3304 29.6184 32.2323 29.589C32.046 29.5205 31.8401 29.5205 31.6538 29.589C31.5067 29.6478 31.3596 29.7359 31.2321 29.8239C31.0948 29.912 30.987 30.0295 30.8791 30.1469C30.8105 30.2252 30.7516 30.3035 30.6928 30.3916C30.6144 30.5286 30.5261 30.6656 30.4771 30.8222C30.4378 30.9103 30.4182 31.0082 30.428 31.1061C30.4182 31.2039 30.4378 31.3018 30.4771 31.3997C30.5163 31.4878 30.5653 31.5661 30.6438 31.6346C30.7026 31.7031 30.7811 31.7618 30.8791 31.7912C31.0654 31.8597 31.2714 31.8695 31.4577 31.7912C31.5655 31.7324 31.6832 31.6541 31.7617 31.5563C31.8107 31.5269 31.8695 31.4878 31.9186 31.4584C32.0068 31.3899 32.0656 31.3116 32.1147 31.2137C32.1735 31.1061 32.252 31.0082 32.3402 30.9201C32.3598 30.9005 32.3794 30.881 32.4089 30.8614C32.4873 30.8027 32.5461 30.7341 32.5854 30.6461C32.6442 30.5678 32.6736 30.4797 32.6834 30.372C32.6834 30.3035 32.6834 30.235 32.6834 30.1763C32.6834 30.0686 32.6442 29.9707 32.5854 29.8925Z" fill="#02335B"/>
<path d="M14.7286 17.815C15.6602 20.1542 18.6412 20.7218 20.3867 19.2538C20.7887 18.921 21.1221 18.4806 21.3477 17.9325C23.8776 11.9623 12.3948 11.9427 14.7286 17.815Z" fill="#013970"/>
<path d="M18.1509 17.6193C18.0038 17.5605 17.8371 17.5312 17.6802 17.5018C17.5822 17.4822 17.4743 17.4822 17.3762 17.4822C17.2095 17.492 17.0526 17.5018 16.8957 17.541C16.7977 17.5605 16.7094 17.5997 16.631 17.6584C16.5427 17.7073 16.4741 17.7759 16.4152 17.8639C16.3564 17.9422 16.327 18.0303 16.3172 18.1282C16.2878 18.2163 16.2878 18.3141 16.3074 18.412C16.3564 18.598 16.4545 18.7839 16.631 18.8916C16.7388 18.9503 16.8663 18.9993 16.9938 19.009C17.0526 19.0384 17.1017 19.0678 17.1605 19.0873C17.2586 19.1167 17.3664 19.1265 17.4743 19.1167C17.6018 19.1069 17.7194 19.1167 17.8469 19.1363C17.8763 19.1461 17.9058 19.1461 17.9352 19.1559C18.0234 19.1852 18.1215 19.2048 18.2195 19.1852C18.3176 19.1852 18.4059 19.1656 18.4941 19.1167C18.553 19.0776 18.602 19.0384 18.6608 19.009C18.7393 18.9405 18.7981 18.8622 18.8373 18.7741C18.8765 18.7154 18.8962 18.6567 18.8962 18.598C18.9256 18.5001 18.9256 18.412 18.906 18.3141C18.8569 18.1184 18.7491 17.952 18.5824 17.8346C18.4451 17.7563 18.298 17.6878 18.1509 17.6193Z" fill="#02335B"/>
<path d="M23.8679 23.4329C21.9165 23.7069 20.8575 25.6742 21.8773 27.0835C23.3972 29.178 27.2412 27.8861 26.8686 25.4099C26.7019 24.2452 25.6134 23.198 23.8679 23.4329Z" fill="#013970"/>
<path d="M24.5053 24.3137C24.4562 24.2648 24.368 24.1962 24.3288 24.1669C24.2503 24.1179 24.1817 24.0788 24.0934 24.0592C23.9169 24.0103 23.7992 23.9907 23.6129 24.0201C23.5835 24.0201 23.407 24.069 23.3776 24.0788C23.2207 24.1571 23.1128 24.206 23.0049 24.2745C22.9559 24.3039 22.9069 24.3333 22.8677 24.3724C22.8186 24.4116 22.7696 24.4507 22.7206 24.4899C22.6715 24.529 22.6225 24.5682 22.5833 24.6171C22.5048 24.6954 22.4656 24.7835 22.4362 24.8716C22.397 24.9694 22.3872 25.0673 22.397 25.1652C22.4068 25.2631 22.446 25.3609 22.5048 25.4392C22.5539 25.5273 22.6225 25.5958 22.7108 25.6448C22.7696 25.6741 22.8382 25.7035 22.8971 25.7328C23.0442 25.7818 23.1913 25.7916 23.3383 25.772L23.5639 25.7133C23.6227 25.6937 23.6718 25.6643 23.7208 25.6252C23.76 25.6252 23.7992 25.6252 23.8286 25.6252C23.8679 25.6154 23.9463 25.5958 23.9463 25.5958C23.9757 25.586 24.0346 25.5762 24.0738 25.5665C24.2111 25.5175 24.368 25.4099 24.4562 25.312C24.4857 25.2826 24.5641 25.1554 24.5837 25.1358C24.6131 25.0673 24.6327 24.9988 24.6524 24.9401C24.672 24.7835 24.6622 24.7345 24.6229 24.6073C24.6229 24.4703 24.6131 24.4507 24.5053 24.3137Z" fill="#02335B"/>
<path d="M34.4878 23.8146C32.4971 25.4686 34.0563 29.2073 36.498 28.669C37.6551 28.4146 38.6357 27.2597 38.2729 25.5469C37.8708 23.6286 35.8312 22.6988 34.4878 23.8146Z" fill="#013970"/>
<path d="M37.6061 25.1065C37.5179 24.9597 37.459 24.852 37.3806 24.7542C37.3512 24.7052 37.3119 24.6661 37.2727 24.6269C37.2335 24.578 37.1845 24.5388 37.1452 24.4899C37.0962 24.4507 37.057 24.4018 37.008 24.3627C36.9295 24.2942 36.8314 24.255 36.7432 24.2354C36.6451 24.1963 36.5471 24.1963 36.449 24.2256C36.3509 24.2452 36.2627 24.2844 36.1843 24.3529C36.1058 24.4018 36.0372 24.4801 35.9881 24.578C35.9587 24.6465 35.9391 24.7052 35.9097 24.7737C35.8705 24.9205 35.8705 25.0673 35.8999 25.2239L35.9685 25.4393C35.9979 25.498 36.0274 25.5469 36.0666 25.5958C36.0666 25.635 36.0764 25.6741 36.0764 25.7035C36.0862 25.7427 36.1156 25.821 36.1156 25.821C36.1254 25.8503 36.1352 25.8993 36.1548 25.9384C36.2137 26.0656 36.3313 26.2222 36.4392 26.3005C36.4784 26.3299 36.5961 26.3984 36.6255 26.4082C36.6942 26.4278 36.7628 26.4473 36.8216 26.4571C36.9883 26.4669 37.0276 26.4571 37.155 26.4082C37.2825 26.3593 37.3021 26.3495 37.4296 26.232C37.4786 26.1831 37.5375 26.095 37.5669 26.0461C37.6061 25.9678 37.6453 25.8895 37.665 25.8112C37.7042 25.635 37.714 25.5176 37.6748 25.3316C37.6748 25.3022 37.6159 25.1358 37.6061 25.1065Z" fill="#02335B"/>
<path d="M2.23573 17.2963C0.421616 18.8035 1.84349 22.2192 4.06946 21.7201C5.12851 21.4852 6.01105 20.438 5.68745 18.872C5.32463 17.1201 3.46148 16.2784 2.23573 17.2963Z" fill="#013970"/>
<path d="M5.07956 18.4708C5.00111 18.3338 4.94227 18.2359 4.87363 18.1478C4.84421 18.1087 4.8148 18.0695 4.77557 18.0304C4.73635 17.9912 4.69712 17.9521 4.6579 17.9129C4.61867 17.8738 4.57945 17.8346 4.54022 17.7955C4.46177 17.7368 4.38333 17.6976 4.29507 17.678C4.20682 17.6487 4.11857 17.6389 4.03031 17.6682C3.94206 17.6878 3.86361 17.727 3.79497 17.7857C3.71652 17.8346 3.65769 17.9031 3.61846 17.9912C3.59885 18.0499 3.56943 18.1087 3.54982 18.1674C3.5106 18.3044 3.51059 18.4316 3.54001 18.5785L3.60865 18.7742C3.62827 18.8231 3.66749 18.8721 3.6969 18.9112C3.6969 18.9406 3.70671 18.9895 3.70671 19.0091C3.71652 19.0482 3.74594 19.1168 3.74594 19.1168C3.75574 19.1461 3.76555 19.195 3.78516 19.2244C3.83419 19.3419 3.95186 19.4789 4.04992 19.5572C4.07934 19.5767 4.19702 19.6453 4.21663 19.655C4.28527 19.6746 4.3441 19.6844 4.40294 19.704C4.55003 19.7138 4.58926 19.704 4.70693 19.6648C4.8246 19.6159 4.84421 19.6159 4.96188 19.5082C5.00111 19.4593 5.05995 19.381 5.08936 19.3419C5.12859 19.2733 5.158 19.1951 5.17762 19.1265C5.20703 18.9699 5.21684 18.8525 5.18742 18.6861C5.13839 18.6567 5.08936 18.4904 5.07956 18.4708Z" fill="#02335B"/>
<path d="M25.6132 11.4925C23.6226 13.1465 25.1818 16.8852 27.6235 16.347C28.7806 16.0925 29.7612 14.9376 29.3984 13.2248C29.0061 11.3065 26.9567 10.3768 25.6132 11.4925Z" fill="#013970"/>
<path d="M28.7316 12.7844C28.6434 12.6376 28.5845 12.5299 28.5061 12.4321C28.4767 12.3831 28.4374 12.344 28.3982 12.3048C28.359 12.2559 28.31 12.2168 28.2707 12.1678C28.2217 12.1287 28.1825 12.0797 28.1334 12.0406C28.055 11.9721 27.9569 11.9329 27.8687 11.9133C27.7706 11.8742 27.6726 11.8742 27.5745 11.9036C27.4764 11.9231 27.3882 11.9623 27.3097 12.0308C27.2313 12.0797 27.1627 12.158 27.1136 12.2559C27.0842 12.3244 27.0646 12.3831 27.0352 12.4516C26.9959 12.5985 26.9959 12.7453 27.0254 12.9019L27.094 13.1172C27.1234 13.1759 27.1528 13.2248 27.1921 13.2738C27.1921 13.3129 27.2019 13.3521 27.2019 13.3814C27.2117 13.4206 27.2411 13.4989 27.2411 13.4989C27.2509 13.5282 27.2607 13.5772 27.2803 13.6163C27.3392 13.7436 27.4568 13.9002 27.5647 13.9784C27.6039 14.0078 27.7216 14.0763 27.751 14.0861C27.8197 14.1057 27.8883 14.1253 27.9471 14.135C28.1138 14.1448 28.1531 14.135 28.2805 14.0861C28.408 14.0372 28.4276 14.0274 28.5551 13.9099C28.6041 13.861 28.663 13.7729 28.6924 13.724C28.7316 13.6457 28.7708 13.5674 28.7904 13.4793C28.8297 13.3031 28.8395 13.1857 28.8003 12.9997C28.8003 12.9899 28.7414 12.8138 28.7316 12.7844Z" fill="#02335B"/>
<path d="M34.0072 18.5491C32.5657 17.4823 30.5162 17.7759 29.4474 19.2244C28.3491 20.7023 28.8394 22.7087 30.1534 23.7363C30.6829 24.1572 31.3498 24.4116 32.095 24.4116C35.1349 24.4116 36.4293 20.3304 34.0072 18.5491Z" fill="#013970"/>
<path d="M33.4189 18.9014C33.3405 18.8525 33.2718 18.8133 33.1934 18.784C33.1149 18.7644 33.0463 18.7448 32.9679 18.7252C32.8894 18.7154 32.811 18.7154 32.7325 18.7252C32.7031 18.7252 32.6737 18.735 32.6443 18.735C32.5756 18.7546 32.4874 18.7742 32.4187 18.8035C32.3403 18.8329 32.2814 18.8818 32.2226 18.9406C32.1638 18.9993 32.1147 19.058 32.0853 19.1363C32.0755 19.1852 32.0559 19.2342 32.0461 19.2929C32.0363 19.3712 32.0461 19.4495 32.0657 19.518C32.0755 19.5669 32.0951 19.6159 32.1245 19.655C32.1638 19.7333 32.2128 19.792 32.2814 19.8312C32.3305 19.8605 32.3795 19.8801 32.4285 19.9095C32.5266 19.9486 32.6246 19.9584 32.7227 19.9486C32.7423 19.9486 32.7619 19.9584 32.7815 19.9584C32.8404 20.0269 32.909 20.0759 32.9875 20.0954C33.0659 20.1248 33.1346 20.1346 33.213 20.1346C33.3013 20.1444 33.3699 20.1444 33.4287 20.1346C33.5072 20.1248 33.5758 20.0954 33.6445 20.0563C33.7131 20.0171 33.7817 19.9682 33.821 19.8997C33.9092 19.7725 33.9681 19.6159 33.9288 19.4495C33.8994 19.2929 33.821 19.1559 33.6935 19.058C33.6249 19.0091 33.517 18.9503 33.4189 18.9014Z" fill="#02335B"/>
<path d="M19.3473 21.2797C17.9058 20.2129 15.8563 20.5065 14.7875 21.955C13.6892 23.4329 14.1795 25.4392 15.4935 26.4669C16.023 26.8877 16.6898 27.1422 17.4351 27.1422C20.475 27.152 21.7596 23.0707 19.3473 21.2797Z" fill="#013970"/>
<path d="M18.7491 21.6418C18.6707 21.5928 18.602 21.5537 18.5236 21.5243C18.4451 21.5047 18.3765 21.4852 18.2981 21.4656C18.2196 21.4558 18.1412 21.4558 18.0627 21.4656C18.0333 21.4656 18.0039 21.4754 17.9745 21.4754C17.9058 21.4949 17.8176 21.5145 17.7489 21.5439C17.6705 21.5732 17.6116 21.6222 17.5528 21.6809C17.494 21.7396 17.4449 21.7984 17.4155 21.8767C17.4057 21.9256 17.3861 21.9745 17.3763 22.0332C17.3665 22.1115 17.3763 22.1898 17.3959 22.2584C17.4057 22.3073 17.4253 22.3562 17.4547 22.4052C17.494 22.4835 17.543 22.5422 17.6116 22.5813C17.6607 22.6107 17.7097 22.6303 17.7489 22.6596C17.847 22.6988 17.945 22.7086 18.0431 22.6988C18.0627 22.6988 18.0823 22.7086 18.1019 22.7086C18.1608 22.7771 18.2294 22.826 18.3079 22.8456C18.3863 22.8749 18.4549 22.8847 18.5334 22.8847C18.6216 22.8945 18.6903 22.8945 18.7491 22.8847C18.8276 22.8749 18.8962 22.8456 18.9649 22.8064C19.0335 22.7673 19.1021 22.7184 19.1414 22.6498C19.2296 22.5226 19.2885 22.366 19.2492 22.1996C19.2198 22.043 19.1414 21.906 19.0139 21.8081C18.9551 21.7396 18.857 21.6907 18.7491 21.6418Z" fill="#02335B"/>
<path d="M31.7519 14.4385C30.3888 15.6716 30.4771 17.7367 31.5655 18.9993C32.0068 19.5082 32.605 19.8899 33.3404 20.0367C36.3313 20.624 38.3807 16.8755 36.3607 14.6538C35.1447 13.3227 33.0855 13.2248 31.7519 14.4385Z" fill="#013970"/>
<path d="M35.7037 14.8886C35.635 14.8299 35.5762 14.7712 35.5075 14.732C35.4389 14.6929 35.3703 14.6635 35.2918 14.6342C35.2232 14.6048 35.1349 14.595 35.0663 14.5852C35.0369 14.5852 35.0074 14.5754 34.978 14.5852C34.9094 14.5852 34.8211 14.595 34.7427 14.6146C34.6642 14.6244 34.5858 14.6635 34.5269 14.7125C34.4583 14.7516 34.3995 14.8103 34.3602 14.8788C34.3406 14.9278 34.3112 14.9767 34.2916 15.0257C34.2622 15.1039 34.2622 15.1822 34.272 15.2508C34.272 15.2997 34.2818 15.3584 34.3014 15.3976C34.321 15.4759 34.3602 15.5444 34.4191 15.6031C34.4583 15.6422 34.4975 15.6716 34.5466 15.7108C34.6348 15.7695 34.7231 15.7891 34.8309 15.7988C34.8505 15.7988 34.8701 15.8086 34.8898 15.8184C34.9388 15.8967 34.9878 15.9554 35.0663 15.9946C35.1349 16.0435 35.2036 16.0631 35.282 16.0729C35.3703 16.1022 35.4291 16.112 35.4977 16.112C35.5762 16.1218 35.6546 16.1022 35.7233 16.0729C35.8017 16.0533 35.8704 16.0142 35.9292 15.9554C36.0371 15.8478 36.1253 15.701 36.1253 15.5444C36.1253 15.3878 36.0763 15.2312 35.9684 15.1137C35.8802 15.0354 35.7919 14.9571 35.7037 14.8886Z" fill="#02335B"/>
<path d="M4.37352 29.9022C3.06932 30.8712 2.80456 32.7112 3.77536 34.0129C4.77557 35.3439 6.63872 35.4418 7.87427 34.5805C8.37438 34.2282 8.77643 33.729 8.96274 33.0831C9.74722 30.4503 6.55046 28.2776 4.37352 29.9022Z" fill="#013970"/>
<path d="M5.511 30.4014C5.42274 30.2937 5.29526 30.2057 5.15798 30.1861C5.01089 30.1665 4.8736 30.2057 4.75593 30.284C4.66767 30.3427 4.59904 30.421 4.53039 30.4895C4.47156 30.5482 4.41272 30.5971 4.37349 30.6559C4.33427 30.7146 4.29505 30.7733 4.26563 30.8418C4.23621 30.9005 4.2166 30.9788 4.20679 31.0474C4.19699 31.0767 4.19699 31.0963 4.19699 31.1257C4.19699 31.1942 4.18718 31.2725 4.19699 31.341C4.20679 31.4193 4.2264 31.478 4.26563 31.5465C4.29505 31.615 4.34407 31.6737 4.40291 31.7129C4.44213 31.7325 4.48136 31.7618 4.52059 31.7814C4.58923 31.8108 4.65787 31.8205 4.72651 31.8205C4.77554 31.8303 4.82457 31.8205 4.86379 31.801C4.93244 31.7912 5.00108 31.7618 5.05992 31.7129C5.09914 31.6835 5.12856 31.6444 5.16778 31.615C5.22662 31.5465 5.25603 31.4584 5.27565 31.3703C5.28545 31.3508 5.29526 31.341 5.29526 31.3214C5.37371 31.292 5.42274 31.2431 5.47177 31.1844C5.5208 31.1257 5.55022 31.0669 5.56002 30.9984C5.58944 30.9201 5.60906 30.8712 5.61886 30.8125C5.62867 30.7439 5.62867 30.6754 5.60905 30.6069C5.58944 30.5286 5.56003 30.4601 5.511 30.4014Z" fill="#02335B"/>
<path d="M24.064 29.5303C20.8869 27.8567 17.9353 32.3099 20.5241 34.6588C21.4262 35.4711 22.8187 35.6963 23.9366 35.1971C25.3879 34.5414 25.8978 33.1809 25.6918 31.9086C25.5349 30.9201 24.9564 30.0099 24.064 29.5303Z" fill="#013970"/>
<path d="M24.0935 33.3375C24.0053 33.2396 23.9072 33.1613 23.7895 33.1124C23.7013 33.0733 23.6032 33.0537 23.5051 33.0635C23.4071 33.0537 23.309 33.0733 23.211 33.1222C22.8972 33.2298 22.5834 33.3375 22.2598 33.4452C22.2009 33.4745 22.1519 33.5137 22.0931 33.543C22.0146 33.6018 21.9558 33.6703 21.9166 33.7584C21.8773 33.8073 21.8479 33.866 21.8479 33.9345C21.8185 34.0324 21.8087 34.1303 21.8283 34.2281C21.8479 34.3554 21.9068 34.4826 21.9852 34.5903C22.044 34.6686 22.1127 34.7273 22.2009 34.7762C22.2794 34.835 22.3676 34.8643 22.4755 34.8741C22.9952 34.9426 23.5444 34.8154 23.966 34.5022C24.0445 34.4435 24.1033 34.375 24.1425 34.2869C24.2014 34.2086 24.2308 34.1205 24.2406 34.0128C24.2504 33.915 24.2602 33.866 24.2602 33.8073C24.27 33.7388 24.2602 33.6703 24.2308 33.6115C24.2014 33.5039 24.1622 33.4158 24.0935 33.3375Z" fill="#02335B"/>
<path d="M26.6921 17.0125C25.3781 16.1121 23.9464 16.3959 22.9658 17.2278C22.2009 17.8738 21.7204 18.8427 21.7793 19.8606C21.995 23.4427 27.3491 23.6287 28.0061 20.2031C28.2316 19.0091 27.6923 17.6976 26.6921 17.0125Z" fill="#013970"/>
<path d="M26.0743 17.3648C25.986 17.3257 25.888 17.3159 25.7899 17.3257C25.6918 17.3159 25.5938 17.3355 25.5055 17.3844C25.4173 17.4235 25.3682 17.4431 25.3192 17.4823C25.2604 17.5116 25.2015 17.5508 25.1623 17.6095C25.0839 17.678 25.0348 17.7563 25.0054 17.8542C24.9662 17.9716 24.9564 18.0989 24.9662 18.2261C24.976 18.324 25.0152 18.4121 25.0741 18.5001C25.1231 18.5882 25.1819 18.6665 25.2702 18.7252C25.5251 18.9406 25.7801 19.1461 26.0448 19.3614C26.1037 19.3908 26.1625 19.4201 26.2116 19.4495C26.2998 19.4886 26.3979 19.4984 26.4959 19.4886C26.5646 19.4984 26.6234 19.4886 26.6822 19.4593C26.7803 19.4397 26.8686 19.3908 26.947 19.3223C27.0451 19.2342 27.1235 19.1265 27.1725 19.0091C27.2118 18.921 27.2216 18.8231 27.2118 18.7252C27.2216 18.6274 27.202 18.5295 27.1529 18.4414C26.9666 17.9618 26.5646 17.5508 26.0743 17.3648Z" fill="#02335B"/>
<path d="M34.8606 2.77209C34.8508 2.70358 34.8312 2.62528 34.8214 2.55677C34.8116 2.48826 34.792 2.40997 34.7724 2.34145C34.7331 2.17507 34.6841 1.9989 34.6351 1.83252L0.0492347 6.61846C0.0296227 6.78485 0.0100098 6.96102 0.0100098 7.14697C0.0100098 7.21548 0.0100098 7.29378 0.0100098 7.37208C0.0100098 7.44059 0.0100098 7.51889 0.0100098 7.59718C0.0100098 7.76357 0.0198125 7.93973 0.0296185 8.1159L34.9783 3.28103C34.9489 3.16358 34.9292 3.04613 34.9096 2.92869C34.8802 2.87975 34.8704 2.83081 34.8606 2.77209Z" fill="#9BB765"/>
<path d="M34.7623 2.34143L0 7.14695C0 7.21546 0 7.29376 0 7.37205C0 7.44057 0 7.51886 0 7.59716L34.8604 2.77207C34.8506 2.70356 34.831 2.62526 34.8212 2.55675C34.8114 2.48824 34.782 2.41973 34.7623 2.34143Z" fill="#CE2820"/>
</svg>
