<svg width="24" height="20" viewBox="0 0 24 20" fill="none" xmlns="http://www.w3.org/2000/svg">
<g clip-path="url(#clip0_54_1010)">
<path d="M18.5642 1.21338H5.43032C3.98598 1.21338 3.47045 1.3905 2.94463 1.68166C2.37368 1.9978 1.9256 2.46172 1.62026 3.05285C1.33905 3.59726 1.16797 4.13102 1.16797 5.62642V14.3761C1.16797 15.8715 1.33905 16.4053 1.62026 16.9497C1.9256 17.5408 2.37368 18.0047 2.94463 18.3209C3.47045 18.612 3.98598 18.7891 5.43032 18.7891H18.5642C20.0085 18.7891 20.524 18.612 21.0498 18.3209C21.6208 18.0047 22.0689 17.5408 22.3742 16.9497C22.6554 16.4053 22.8265 15.8715 22.8265 14.3761V5.62642C22.8265 4.13102 22.6554 3.59726 22.3742 3.05285C22.0689 2.46172 21.6208 1.9978 21.0498 1.68166C20.524 1.3905 20.0085 1.21338 18.5642 1.21338Z" fill="#1CB0F6" stroke="#CECECE" stroke-width="1.17073"/>
<path d="M22.2417 10.002V14.3768C22.2417 15.7006 22.1086 16.1806 21.8586 16.6645C21.6086 17.1485 21.2418 17.5283 20.7744 17.7871C20.3069 18.0459 19.8433 18.1838 18.5647 18.1838H5.43089C4.15232 18.1838 3.68868 18.0459 3.22126 17.7871C2.75383 17.5283 2.387 17.1485 2.13701 16.6645C1.88703 16.1806 1.75391 15.7006 1.75391 14.3768V10.002H22.2417Z" fill="#FFC300"/>
</g>
<defs>
<clipPath id="clip0_54_1010">
<rect width="24" height="20" fill="white"/>
</clipPath>
</defs>
</svg>
