<svg width="18" height="18" viewBox="0 0 18 18" fill="none" xmlns="http://www.w3.org/2000/svg">
<path d="M8.95653 3.80131C9.12302 3.33773 9.20624 3.10594 9.32936 3.0417C9.43588 2.9861 9.56411 2.9861 9.6707 3.0417C9.79375 3.10594 9.87697 3.33773 10.0435 3.80131L11.1441 6.86605C11.1915 6.99799 11.2151 7.06396 11.2578 7.11309C11.2955 7.15649 11.3436 7.19031 11.3979 7.21161C11.4594 7.23574 11.5315 7.23716 11.6758 7.24L15.0271 7.30611C15.5341 7.31611 15.7875 7.32111 15.8887 7.41457C15.9762 7.49546 16.0159 7.61355 15.9942 7.72879C15.9691 7.86197 15.7671 8.01019 15.3631 8.30675L12.6919 10.2669C12.5769 10.3514 12.5194 10.3935 12.4843 10.448C12.4533 10.4962 12.435 10.5509 12.4308 10.6074C12.4261 10.6714 12.447 10.7383 12.4888 10.872L13.4595 13.9776C13.6063 14.4474 13.6797 14.6823 13.6191 14.8042C13.5667 14.9098 13.4629 14.9828 13.343 14.9985C13.2044 15.0165 12.9963 14.8764 12.5801 14.596L9.82863 12.7428C9.71018 12.663 9.65099 12.6231 9.58662 12.6076C9.52973 12.5939 9.47025 12.5939 9.41344 12.6076C9.34907 12.6231 9.28981 12.663 9.17135 12.7428L6.41993 14.596C6.00374 14.8764 5.79565 15.0165 5.65706 14.9985C5.53711 14.9828 5.43333 14.9098 5.38091 14.8042C5.32034 14.6823 5.39376 14.4474 5.54058 13.9776L6.51126 10.872C6.55304 10.7383 6.57393 10.6714 6.56923 10.6074C6.56507 10.5509 6.54671 10.4962 6.51571 10.448C6.48064 10.3935 6.42314 10.3514 6.30815 10.2669L3.63699 8.30675C3.23294 8.01019 3.03092 7.86197 3.00584 7.72879C2.98413 7.61355 3.02377 7.49546 3.11132 7.41457C3.21247 7.32111 3.46594 7.31611 3.97287 7.30611L7.32422 7.24C7.46849 7.23716 7.54064 7.23574 7.6021 7.21161C7.65639 7.19031 7.70449 7.15649 7.7422 7.11309C7.78489 7.06396 7.80858 6.99799 7.85597 6.86605L8.95653 3.80131Z" stroke="white" stroke-width="1.5" stroke-linecap="round" stroke-linejoin="round"/>
</svg>
