<svg width="24" height="20" viewBox="0 0 24 20" fill="none" xmlns="http://www.w3.org/2000/svg">
<g clip-path="url(#clip0_54_970)">
<path fill-rule="evenodd" clip-rule="evenodd" d="M18.5642 1.2124H5.43032C3.98598 1.2124 3.47045 1.38953 2.94463 1.68068C2.37368 1.99682 1.9256 2.46074 1.62026 3.05187C1.33905 3.59629 1.16797 4.13004 1.16797 5.62544V14.3751C1.16797 15.8705 1.33905 16.4043 1.62026 16.9487C1.9256 17.5398 2.37368 18.0037 2.94463 18.3199C3.47045 18.611 3.98598 18.7882 5.43032 18.7882H18.5642C20.0085 18.7882 20.524 18.611 21.0498 18.3199C21.6208 18.0037 22.0689 17.5398 22.3742 16.9487C22.6554 16.4043 22.8265 15.8705 22.8265 14.3751V5.62544C22.8265 4.13004 22.6554 3.59629 22.3742 3.05187C22.0689 2.46074 21.6208 1.99682 21.0498 1.68068C20.524 1.38953 20.0085 1.2124 18.5642 1.2124Z" fill="#FF4B4B" stroke="#CECECE" stroke-width="1.17073"/>
<path fill-rule="evenodd" clip-rule="evenodd" d="M1.75391 6.49316H22.2417V13.5062H1.75391V6.49316Z" fill="#FFC800"/>
<path fill-rule="evenodd" clip-rule="evenodd" d="M9.72145 8.24756C10.0358 8.24756 10.2906 8.51136 10.2906 8.83678V11.1648C10.2906 11.4902 10.0358 11.7541 9.72145 11.7541C9.40714 11.7541 9.15234 11.4902 9.15234 11.1648V8.83678C9.15234 8.51136 9.40714 8.24756 9.72145 8.24756Z" fill="#222222"/>
<path fill-rule="evenodd" clip-rule="evenodd" d="M4.03004 8.24756C4.34435 8.24756 4.59915 8.51136 4.59915 8.83678V11.1648C4.59915 11.4902 4.34435 11.7541 4.03004 11.7541C3.71573 11.7541 3.46094 11.4902 3.46094 11.1648V8.83678C3.46094 8.51136 3.71573 8.24756 4.03004 8.24756Z" fill="#222222"/>
<path fill-rule="evenodd" clip-rule="evenodd" d="M5.68016 7.66211H8.07041C8.35329 7.66211 8.5826 7.89953 8.5826 8.19241V10.5698C8.5826 11.546 7.81821 12.3374 6.87529 12.3374C5.93236 12.3374 5.16797 11.546 5.16797 10.5698V8.19241C5.16797 7.89953 5.39729 7.66211 5.68016 7.66211Z" fill="#FF4B4B"/>
</g>
<defs>
<clipPath id="clip0_54_970">
<rect width="24" height="20" fill="white"/>
</clipPath>
</defs>
</svg>
