<svg width="200" height="195" viewBox="0 0 200 195" fill="none" xmlns="http://www.w3.org/2000/svg">
<path d="M136.757 124.539L199.055 124.539V122.192L136.757 122.192V124.539Z" stroke="#263238" stroke-linecap="round" stroke-linejoin="round"/>
<path d="M139.647 188.041H196.165V124.608L139.647 124.608V188.041Z" stroke="#263238" stroke-linecap="round" stroke-linejoin="round"/>
<path d="M141.683 141.324H194.201V127.562H141.683V141.324Z" stroke="#263238" stroke-linecap="round" stroke-linejoin="round"/>
<path d="M165.404 135.706H170.655V133.171H165.404V135.706Z" fill="#263238" stroke="#263238" stroke-linecap="round" stroke-linejoin="round"/>
<path d="M141.683 158.71H194.201V144.948L141.683 144.948V158.71Z" stroke="#263238" stroke-linecap="round" stroke-linejoin="round"/>
<path d="M165.404 153.097H170.655V150.561H165.404V153.097Z" fill="#263238" stroke="#263238" stroke-linecap="round" stroke-linejoin="round"/>
<path d="M141.683 176.174H194.201V162.411H141.683V176.174Z" stroke="#263238" stroke-linecap="round" stroke-linejoin="round"/>
<path d="M165.404 170.56H170.655V168.025H165.404V170.56Z" fill="#263238" stroke="#263238" stroke-linecap="round" stroke-linejoin="round"/>
<path d="M170.51 94.4408C171.146 94.7183 172.704 94.6841 172.704 94.6841C172.704 94.6841 172.371 93.6639 172.341 93.5999C171.999 92.887 170.919 91.7046 170.04 91.8241C169.893 91.8471 169.754 91.9007 169.629 91.9815C169.505 92.0623 169.399 92.1683 169.318 92.2928C169.238 92.4173 169.184 92.5574 169.162 92.7039C169.139 92.8504 169.147 93.0001 169.186 93.1431C169.3 93.442 169.478 93.7127 169.706 93.9367C169.934 94.1607 170.208 94.3327 170.51 94.4408Z" fill="#263238"/>
<path d="M186.248 94.7823C186.248 94.7823 186.53 93.7493 186.539 93.681C186.65 92.8955 186.398 91.3161 185.599 90.9277C185.464 90.8672 185.318 90.8359 185.17 90.8359C185.022 90.8359 184.876 90.8672 184.741 90.9276C184.606 90.9881 184.485 91.0764 184.387 91.1867C184.288 91.2971 184.214 91.427 184.169 91.568C184.098 91.8792 184.096 92.2021 184.161 92.5146C184.227 92.827 184.359 93.1215 184.549 93.3779C184.929 93.9499 186.244 94.7823 186.248 94.7823Z" fill="#263238"/>
<path d="M190.897 89.1391C190.014 89.0452 188.964 90.2532 188.643 90.9746C188.613 91.0387 188.293 92.0674 188.31 92.0674C188.144 92.2552 187.965 92.4601 187.777 92.6906C187.431 93.1175 187.047 93.5956 186.663 94.1505C186.241 94.7403 185.855 95.3547 185.506 95.9904C185.109 96.7016 184.777 97.4474 184.516 98.2186C184.516 98.2186 184.516 98.2186 184.516 98.2442C184.516 97.9838 184.516 97.2582 184.516 97.2027C184.413 96.4172 183.756 94.9573 182.881 94.7951C182.735 94.7728 182.586 94.7814 182.444 94.8203C182.302 94.8592 182.17 94.9276 182.056 95.021C181.942 95.1144 181.849 95.2307 181.783 95.3625C181.717 95.4942 181.679 95.6383 181.673 95.7855C181.687 96.105 181.771 96.4175 181.918 96.7013C182.066 96.9851 182.273 97.2334 182.526 97.4289C183.026 97.8558 184.405 98.304 184.516 98.3381C184.27 99.1274 184.074 99.9316 183.931 100.746C183.85 101.224 183.777 101.702 183.713 102.184C183.713 101.962 183.713 101.757 183.713 101.732C183.611 100.946 182.953 99.4864 182.082 99.3285C181.937 99.3048 181.788 99.3123 181.645 99.3504C181.502 99.3885 181.369 99.4563 181.255 99.5495C181.14 99.6426 181.047 99.759 180.981 99.8908C180.914 100.023 180.877 100.167 180.87 100.315C180.884 100.634 180.968 100.947 181.115 101.231C181.263 101.514 181.47 101.763 181.724 101.958C182.318 102.351 182.968 102.651 183.653 102.846C183.632 103.034 183.606 103.217 183.585 103.405C183.478 104.293 183.376 105.185 183.248 106.052C183.205 106.359 183.15 106.658 183.094 106.961C183.094 106.76 183.094 106.59 183.094 106.564C182.992 105.779 182.334 104.323 181.459 104.161C181.314 104.138 181.165 104.146 181.023 104.184C180.881 104.222 180.749 104.29 180.635 104.383C180.521 104.477 180.427 104.593 180.361 104.724C180.295 104.856 180.258 105 180.251 105.147C180.265 105.466 180.349 105.779 180.496 106.063C180.644 106.347 180.852 106.595 181.105 106.79C181.681 107.171 182.313 107.459 182.979 107.644C182.915 107.951 182.851 108.259 182.774 108.553C182.714 108.75 182.676 108.946 182.607 109.142C182.539 109.339 182.479 109.535 182.42 109.727C182.287 110.094 182.151 110.474 181.993 110.828C181.899 111.072 181.805 111.306 181.711 111.541C181.758 111.238 181.839 110.641 181.839 110.589C181.829 109.892 181.641 109.209 181.293 108.604C181.3 108.441 181.271 108.278 181.207 108.127C181.143 107.977 181.046 107.842 180.923 107.734C180.8 107.627 180.654 107.548 180.496 107.504C180.339 107.46 180.173 107.453 180.012 107.482C179.158 107.712 178.612 109.215 178.569 110.009C178.569 110.056 178.599 110.564 178.625 110.884C178.578 110.7 178.539 110.517 178.492 110.325C178.403 109.945 178.3 109.569 178.194 109.168C178.138 108.971 178.078 108.775 178.019 108.579C177.959 108.382 177.878 108.182 177.809 107.981C177.643 107.516 177.447 107.055 177.242 106.594C177.935 106.449 178.601 106.198 179.218 105.851C179.484 105.675 179.708 105.442 179.875 105.17C180.041 104.898 180.146 104.593 180.183 104.276C180.187 104.128 180.16 103.982 180.103 103.845C180.047 103.709 179.962 103.586 179.855 103.484C179.748 103.383 179.621 103.305 179.482 103.256C179.342 103.207 179.194 103.188 179.047 103.2C178.164 103.298 177.4 104.703 177.242 105.48C177.242 105.527 177.178 106.099 177.156 106.41C177.028 106.133 176.904 105.86 176.768 105.582C176.375 104.788 175.948 103.998 175.53 103.204C175.402 102.965 175.278 102.722 175.15 102.479C175.27 102.449 176.674 102.124 177.199 101.719C177.465 101.543 177.689 101.31 177.856 101.038C178.022 100.766 178.127 100.461 178.164 100.144C178.168 99.9963 178.141 99.8495 178.084 99.7132C178.028 99.5768 177.943 99.4539 177.836 99.3524C177.729 99.2509 177.602 99.1731 177.463 99.1241C177.323 99.0751 177.175 99.056 177.028 99.0681C176.149 99.1663 175.381 100.571 175.223 101.348C175.223 101.403 175.137 102.223 175.129 102.432C174.851 101.898 174.578 101.365 174.33 100.823C173.997 100.096 173.712 99.3492 173.477 98.5857C173.532 98.5857 175.001 98.24 175.538 97.8259C175.804 97.6495 176.028 97.4171 176.195 97.145C176.362 96.8729 176.467 96.5677 176.503 96.2507C176.507 96.1032 176.48 95.9565 176.424 95.8201C176.367 95.6837 176.283 95.5608 176.176 95.4593C176.069 95.3578 175.941 95.28 175.802 95.231C175.663 95.1821 175.515 95.163 175.368 95.175C174.488 95.2732 173.72 96.6776 173.562 97.4503C173.562 97.5015 173.494 98.129 173.472 98.4278H173.425C173.203 97.6535 173.051 96.8605 172.973 96.0587C172.922 95.6318 172.9 95.2049 172.888 94.778C173.604 94.7117 174.307 94.536 174.971 94.2573C175.254 94.1101 175.502 93.9028 175.698 93.65C175.893 93.3971 176.031 93.1047 176.102 92.7931C176.122 92.647 176.111 92.4984 176.069 92.357C176.028 92.2155 175.957 92.0843 175.862 91.972C175.766 91.8596 175.648 91.7687 175.515 91.7049C175.382 91.6412 175.238 91.6062 175.09 91.6021C174.202 91.6021 173.289 92.9126 173.046 93.6682C173.046 93.7066 172.943 94.1377 172.883 94.4536C172.883 94.2701 172.883 94.078 172.883 93.8987C172.883 93.2242 172.926 92.6181 172.969 92.0674C172.994 91.7601 173.024 91.4783 173.054 91.2137C173.657 90.8256 174.197 90.3477 174.655 89.7965C174.839 89.5355 174.963 89.2376 175.02 88.9235C175.077 88.6094 175.064 88.2868 174.984 87.978C174.934 87.8394 174.855 87.7127 174.753 87.6063C174.651 87.4999 174.528 87.416 174.392 87.3601C174.255 87.3042 174.109 87.2775 173.961 87.2817C173.814 87.286 173.669 87.321 173.536 87.3846C172.751 87.8115 172.542 89.3781 172.683 90.1593C172.683 90.2276 172.99 91.2649 173.003 91.2564C172.969 91.5082 172.935 91.7771 172.9 92.0717C172.849 92.6138 172.794 93.2285 172.777 93.903C172.752 94.629 172.769 95.3559 172.828 96.08C172.89 96.89 173.025 97.6928 173.229 98.479V98.5089C173.088 98.2869 172.678 97.6893 172.64 97.6551C172.123 97.0575 170.766 96.2038 169.951 96.5496C169.817 96.6109 169.698 96.6998 169.6 96.8102C169.503 96.9207 169.43 97.0504 169.386 97.1909C169.343 97.3313 169.329 97.4795 169.346 97.6256C169.363 97.7718 169.41 97.9127 169.485 98.0393C169.672 98.2986 169.912 98.5143 170.19 98.6713C170.468 98.8283 170.777 98.9229 171.095 98.9486C171.756 99.0425 173.144 98.6412 173.255 98.6071C173.488 99.4032 173.773 100.183 174.108 100.942C174.301 101.369 174.505 101.821 174.719 102.261L174.458 101.89C173.938 101.288 172.585 100.438 171.769 100.784C171.635 100.845 171.515 100.934 171.418 101.044C171.32 101.154 171.247 101.284 171.203 101.425C171.159 101.565 171.145 101.714 171.163 101.86C171.18 102.006 171.228 102.147 171.304 102.274C171.49 102.533 171.73 102.749 172.008 102.906C172.286 103.063 172.595 103.157 172.913 103.183C173.626 103.183 174.334 103.073 175.013 102.859C175.099 103.025 175.18 103.196 175.261 103.362C175.688 104.165 176.068 104.963 176.443 105.757C176.576 106.035 176.695 106.316 176.815 106.611C176.704 106.444 176.606 106.308 176.589 106.286C176.072 105.689 174.715 104.835 173.899 105.181C173.765 105.243 173.646 105.332 173.549 105.443C173.451 105.554 173.379 105.684 173.335 105.825C173.291 105.965 173.277 106.114 173.294 106.26C173.311 106.407 173.359 106.548 173.434 106.675C173.621 106.933 173.862 107.148 174.139 107.304C174.417 107.46 174.726 107.554 175.043 107.58C175.737 107.582 176.426 107.479 177.088 107.273C177.203 107.563 177.318 107.853 177.417 108.126C177.476 108.323 177.553 108.51 177.604 108.711L177.771 109.3C177.861 109.68 177.955 110.069 178.036 110.444C178.091 110.7 178.142 110.948 178.194 111.195C178.066 110.918 177.805 110.372 177.767 110.342C177.34 109.672 176.136 108.634 175.278 108.843C175.136 108.884 175.005 108.954 174.892 109.049C174.779 109.144 174.688 109.261 174.623 109.393C174.558 109.525 174.522 109.67 174.516 109.817C174.511 109.964 174.536 110.111 174.591 110.248C174.736 110.532 174.942 110.781 175.193 110.978C175.445 111.175 175.736 111.314 176.046 111.388C176.766 111.498 177.499 111.498 178.219 111.388C178.305 111.814 178.381 112.203 178.445 112.583C178.591 113.415 178.702 114.162 178.787 114.798H175.291V122.149H184.486V114.785H180.93C181.16 114.273 181.412 113.693 181.677 113.048C181.839 112.651 182.006 112.224 182.172 111.789C182.338 111.823 183.704 112.1 184.341 111.955C184.655 111.906 184.955 111.79 185.22 111.613C185.485 111.436 185.708 111.203 185.873 110.931C185.939 110.799 185.977 110.655 185.983 110.507C185.989 110.36 185.965 110.213 185.91 110.076C185.856 109.939 185.773 109.815 185.667 109.712C185.562 109.609 185.435 109.53 185.297 109.479C184.443 109.193 183.162 110.15 182.701 110.79C182.671 110.824 182.415 111.268 182.274 111.55C182.343 111.371 182.411 111.195 182.475 111.012C182.612 110.645 182.735 110.273 182.868 109.881C182.928 109.684 182.983 109.488 183.043 109.292C183.103 109.095 183.15 108.865 183.201 108.677C183.316 108.195 183.41 107.704 183.491 107.204C184.148 107.469 184.842 107.629 185.549 107.678C185.868 107.678 186.183 107.609 186.472 107.474C186.761 107.339 187.017 107.142 187.222 106.897C187.307 106.776 187.366 106.639 187.394 106.494C187.422 106.35 187.42 106.201 187.387 106.057C187.354 105.913 187.291 105.778 187.202 105.66C187.114 105.542 187.001 105.444 186.872 105.373C186.082 104.967 184.669 105.719 184.106 106.278C184.072 106.312 183.713 106.756 183.521 107.008C183.568 106.705 183.615 106.406 183.653 106.103C183.764 105.224 183.845 104.327 183.935 103.439C183.961 103.166 183.99 102.893 184.02 102.62C184.131 102.662 185.485 103.166 186.155 103.119C186.744 103.076 187.487 102.863 187.828 102.338C187.912 102.217 187.97 102.079 187.998 101.935C188.026 101.79 188.023 101.641 187.989 101.497C187.956 101.354 187.893 101.219 187.804 101.101C187.715 100.983 187.603 100.886 187.474 100.814C186.688 100.387 185.271 101.155 184.712 101.715C184.669 101.757 184.153 102.402 184.033 102.568C184.097 101.967 184.165 101.369 184.255 100.784C184.375 99.9927 184.546 99.2099 184.767 98.4406C184.819 98.4406 186.227 98.9913 186.902 98.9443C187.221 98.9435 187.536 98.8732 187.825 98.7383C188.114 98.6034 188.37 98.4071 188.575 98.1631C188.66 98.0426 188.719 97.9054 188.747 97.7607C188.776 97.6159 188.773 97.4668 188.74 97.323C188.707 97.1792 188.644 97.044 188.555 96.9262C188.467 96.8084 188.354 96.7106 188.225 96.6392C187.435 96.2337 186.022 96.9807 185.459 97.5399C185.42 97.5783 185.032 98.0692 184.848 98.304H184.806C185.049 97.5349 185.36 96.7891 185.736 96.0757C185.937 95.683 186.163 95.3159 186.368 94.9659C187.004 95.3045 187.688 95.5448 188.396 95.6787C188.713 95.7117 189.034 95.6753 189.336 95.5721C189.639 95.4689 189.915 95.3014 190.146 95.0811C190.243 94.9705 190.316 94.8407 190.359 94.7002C190.403 94.5597 190.416 94.4116 190.399 94.2655C190.382 94.1194 190.334 93.9786 190.259 93.8522C190.183 93.7257 190.083 93.6165 189.962 93.5316C189.22 93.0407 187.734 93.6298 187.115 94.1249C187.081 94.1505 186.769 94.4622 186.543 94.6927C186.646 94.5347 186.744 94.3682 186.846 94.2231C187.213 93.6639 187.589 93.173 187.926 92.7419C188.118 92.4986 188.298 92.2851 188.464 92.0845C189.187 92.0913 189.906 91.9891 190.598 91.7814C190.896 91.6664 191.165 91.4876 191.386 91.2575C191.608 91.0274 191.776 90.7516 191.879 90.4496C191.919 90.2973 191.924 90.138 191.894 89.9835C191.863 89.8291 191.799 89.6834 191.704 89.5574C191.61 89.4315 191.488 89.3284 191.349 89.256C191.209 89.1835 191.055 89.1436 190.897 89.1391ZM181.126 112.843C180.81 113.577 180.503 114.231 180.238 114.785H179.303C179.205 114.128 179.073 113.347 178.877 112.472C178.795 112.045 178.697 111.618 178.595 111.153C179.009 110.984 179.414 110.793 179.807 110.581C180.343 111.04 180.939 111.424 181.579 111.721C181.442 112.109 181.284 112.485 181.126 112.843Z" fill="#263238"/>
<path d="M5.93837 125.274L10.8901 172.712" stroke="#263238" stroke-width="2" stroke-miterlimit="10"/>
<path d="M10.0919 163.632L7.84656 161.263" stroke="#263238" stroke-width="2" stroke-miterlimit="10"/>
<path d="M8.52956 161.972C8.52402 161.609 8.44163 161.252 8.28784 160.924C8.13404 160.596 7.91235 160.304 7.6374 160.068C7.06112 159.556 4.02607 158.279 3.74007 159.346C3.42845 160.508 6.5318 162.787 8.52956 161.972Z" fill="#0A8432" stroke="#263238" stroke-miterlimit="10"/>
<path d="M8.52971 161.972L5.64407 160.175" stroke="#263238" stroke-width="0.5" stroke-miterlimit="10"/>
<path d="M10.6555 169.028L8.41013 166.659" stroke="#263238" stroke-width="2" stroke-miterlimit="10"/>
<path d="M9.09319 167.367C9.08765 167.005 9.00526 166.648 8.85147 166.32C8.69768 165.991 8.47598 165.7 8.20103 165.464C7.62475 164.951 4.5897 163.675 4.3037 164.742C3.99208 165.903 7.09543 168.183 9.09319 167.367Z" fill="#0A8432" stroke="#263238" stroke-miterlimit="10"/>
<path d="M9.09291 167.367L6.20727 165.57" stroke="#263238" stroke-width="0.5" stroke-miterlimit="10"/>
<path d="M8.71723 150.468L6.47189 148.098" stroke="#263238" stroke-width="2" stroke-miterlimit="10"/>
<path d="M7.15489 148.807C7.14936 148.445 7.06697 148.088 6.91317 147.759C6.75938 147.431 6.53768 147.139 6.26273 146.903C5.68646 146.387 2.65141 145.115 2.3654 146.182C2.05379 147.343 5.15714 149.622 7.15489 148.807Z" fill="#0A8432" stroke="#263238" stroke-miterlimit="10"/>
<path d="M7.15505 148.807L4.2694 147.01" stroke="#263238" stroke-width="0.5" stroke-miterlimit="10"/>
<path d="M9.28086 155.863L7.03552 153.494" stroke="#263238" stroke-width="2" stroke-miterlimit="10"/>
<path d="M7.71842 154.203C7.71288 153.84 7.63049 153.483 7.4767 153.155C7.3229 152.827 7.10121 152.535 6.82626 152.299C6.24998 151.782 3.21493 150.51 2.92893 151.577C2.61731 152.739 5.73774 155.018 7.71842 154.203Z" fill="#0A8432" stroke="#263238" stroke-miterlimit="10"/>
<path d="M7.71868 154.203L4.83303 152.406" stroke="#263238" stroke-width="0.5" stroke-miterlimit="10"/>
<path d="M7.80378 141.704L5.55844 139.331" stroke="#263238" stroke-width="2" stroke-miterlimit="10"/>
<path d="M6.24144 140.043C6.23703 139.68 6.15471 139.323 6.00005 138.994C5.8454 138.666 5.62202 138.374 5.34501 138.14C4.76874 137.623 1.73796 136.351 1.45195 137.418C1.14034 138.579 4.24369 140.859 6.24144 140.043Z" fill="#0A8432" stroke="#263238" stroke-miterlimit="10"/>
<path d="M6.2416 140.043L3.35595 138.246" stroke="#263238" stroke-width="0.5" stroke-miterlimit="10"/>
<path d="M6.88606 132.902L4.64072 130.528" stroke="#263238" stroke-width="2" stroke-miterlimit="10"/>
<path d="M5.31086 131.241C5.30644 130.878 5.22412 130.52 5.06947 130.192C4.91481 129.864 4.69143 129.572 4.41443 129.337C3.83815 128.821 0.807371 127.545 0.521368 128.616C0.21829 129.777 3.32164 132.057 5.31086 131.241Z" fill="#0A8432" stroke="#263238" stroke-miterlimit="10"/>
<path d="M5.32381 131.241L2.43389 129.44" stroke="#263238" stroke-width="0.5" stroke-miterlimit="10"/>
<path d="M9.71639 160.439L11.4196 157.656" stroke="#263238" stroke-width="2" stroke-miterlimit="10"/>
<path d="M10.8985 158.493C10.8304 158.138 10.8382 157.773 10.9213 157.421C11.0045 157.069 11.1611 156.739 11.3809 156.452C11.8376 155.829 14.5397 153.955 15.0434 154.941C15.5898 156.025 13.0243 158.881 10.8985 158.493Z" fill="#0A8432" stroke="#263238" stroke-miterlimit="10"/>
<path d="M10.8987 158.493L13.4984 156.008" stroke="#263238" stroke-width="0.5" stroke-miterlimit="10"/>
<path d="M8.23076 146.242L9.93824 143.458" stroke="#263238" stroke-width="2" stroke-miterlimit="10"/>
<path d="M9.41744 144.295C9.34873 143.939 9.35619 143.573 9.43933 143.221C9.52248 142.868 9.67942 142.538 9.89981 142.25C10.3566 141.627 13.0587 139.753 13.5624 140.739C14.1088 141.811 11.5433 144.683 9.41744 144.295Z" fill="#0A8432" stroke="#263238" stroke-miterlimit="10"/>
<path d="M9.41738 144.295L12.017 141.811" stroke="#263238" stroke-width="0.5" stroke-miterlimit="10"/>
<path d="M7.58193 140.005L9.28942 137.222" stroke="#263238" stroke-width="2" stroke-miterlimit="10"/>
<path d="M8.76856 138.058C8.69862 137.703 8.70507 137.336 8.78749 136.983C8.86991 136.629 9.02642 136.298 9.24666 136.009C9.70768 135.386 12.4098 133.512 12.9092 134.498C13.4556 135.57 10.8901 138.443 8.76856 138.058Z" fill="#0A8432" stroke="#263238" stroke-miterlimit="10"/>
<path d="M8.76856 138.058L11.3682 135.574" stroke="#263238" stroke-width="0.5" stroke-miterlimit="10"/>
<path d="M6.62586 130.857L8.33334 128.074" stroke="#263238" stroke-width="2" stroke-miterlimit="10"/>
<path d="M7.81241 128.911C7.74306 128.554 7.7502 128.188 7.83336 127.834C7.91652 127.481 8.0738 127.149 8.29477 126.862C8.75152 126.238 11.4536 124.364 11.9573 125.35C12.5037 126.422 9.93822 129.295 7.81241 128.911Z" fill="#0A8432" stroke="#263238" stroke-miterlimit="10"/>
<path d="M7.81254 128.911L10.4122 126.426" stroke="#263238" stroke-width="0.5" stroke-miterlimit="10"/>
<path d="M5.89567 125.009C5.82632 124.653 5.83347 124.286 5.91663 123.933C5.99979 123.579 6.15706 123.248 6.37803 122.96C6.83479 122.337 9.53688 120.463 10.0406 121.449C10.587 122.52 8.02149 125.393 5.89567 125.009Z" fill="#0A8432" stroke="#263238" stroke-miterlimit="10"/>
<path d="M5.89574 125.009L8.49538 122.525" stroke="#263238" stroke-width="0.5" stroke-miterlimit="10"/>
<path d="M6.04957 125.116C5.68885 125.15 5.32503 125.107 4.98213 124.99C4.63923 124.873 4.32505 124.684 4.06035 124.437C3.49261 123.916 1.926 121.022 2.94195 120.634C4.06462 120.19 6.65572 123.045 6.04957 125.116Z" fill="#0A8432" stroke="#263238" stroke-miterlimit="10"/>
<path d="M6.04957 125.116L3.85118 122.269" stroke="#263238" stroke-width="0.5" stroke-miterlimit="10"/>
<path d="M18.9963 131.805L14.0745 179.247" stroke="#263238" stroke-width="2" stroke-miterlimit="10"/>
<path d="M15.1632 170.198L13.4558 167.419" stroke="#263238" stroke-width="2" stroke-miterlimit="10"/>
<path d="M13.9766 168.251C14.0453 167.895 14.0379 167.529 13.9547 167.177C13.8716 166.824 13.7146 166.494 13.4942 166.206C13.0332 165.583 10.3311 163.713 9.82743 164.695C9.2853 165.771 11.8508 168.639 13.9766 168.251Z" fill="#0A8432" stroke="#263238" stroke-miterlimit="10"/>
<path d="M13.9763 168.251L11.5218 165.899" stroke="#263238" stroke-width="0.5" stroke-miterlimit="10"/>
<path d="M16.5293 157.033L14.8218 154.25" stroke="#263238" stroke-width="2" stroke-miterlimit="10"/>
<path d="M15.3422 155.086C15.4115 154.73 15.4044 154.363 15.3212 154.01C15.238 153.657 15.0808 153.325 14.8598 153.037C14.403 152.414 11.6967 150.54 11.1972 151.526C10.6509 152.61 13.2163 155.475 15.3422 155.086Z" fill="#0A8432" stroke="#263238" stroke-miterlimit="10"/>
<path d="M15.3424 155.086L12.8878 152.73" stroke="#263238" stroke-width="0.5" stroke-miterlimit="10"/>
<path d="M15.97 162.428L14.2625 159.645" stroke="#263238" stroke-width="2" stroke-miterlimit="10"/>
<path d="M14.7833 160.482C14.852 160.126 14.8446 159.76 14.7614 159.408C14.6783 159.055 14.5213 158.725 14.3009 158.437C13.8399 157.814 11.1378 155.94 10.6341 156.926C10.092 157.998 12.6575 160.87 14.7833 160.482Z" fill="#0A8432" stroke="#263238" stroke-miterlimit="10"/>
<path d="M14.783 160.482L12.3285 158.126" stroke="#263238" stroke-width="0.5" stroke-miterlimit="10"/>
<path d="M17.4384 148.269L15.7309 145.486" stroke="#263238" stroke-width="2" stroke-miterlimit="10"/>
<path d="M16.2517 146.323C16.321 145.966 16.3139 145.6 16.2307 145.246C16.1476 144.893 15.9903 144.562 15.7693 144.274C15.3126 143.655 12.6062 141.781 12.1068 142.767C11.5604 143.838 14.1259 146.711 16.2517 146.323Z" fill="#0A8432" stroke="#263238" stroke-miterlimit="10"/>
<path d="M16.2515 146.323L13.797 143.966" stroke="#263238" stroke-width="0.5" stroke-miterlimit="10"/>
<path d="M18.3519 139.467L16.6444 136.684" stroke="#263238" stroke-width="2" stroke-miterlimit="10"/>
<path d="M17.1652 137.521C17.2345 137.164 17.2274 136.797 17.1442 136.444C17.061 136.091 16.9038 135.759 16.6828 135.472C16.226 134.848 13.5197 132.979 13.0202 133.965C12.4738 135.036 15.0393 137.905 17.1652 137.521Z" fill="#0A8432" stroke="#263238" stroke-miterlimit="10"/>
<path d="M17.1653 137.521L14.7108 135.164" stroke="#263238" stroke-width="0.5" stroke-miterlimit="10"/>
<path d="M15.4491 166.996L17.6945 164.627" stroke="#263238" stroke-width="2" stroke-miterlimit="10"/>
<path d="M17.0114 165.335C17.0169 164.973 17.0993 164.616 17.2531 164.288C17.4069 163.96 17.6286 163.668 17.9036 163.432C18.4798 162.919 21.5106 161.639 21.8009 162.706C22.1125 163.867 19.0092 166.151 17.0114 165.335Z" fill="#0A8432" stroke="#263238" stroke-miterlimit="10"/>
<path d="M17.0114 165.335L20.0678 163.44" stroke="#263238" stroke-width="0.5" stroke-miterlimit="10"/>
<path d="M16.9219 152.798L19.1672 150.429" stroke="#263238" stroke-width="2" stroke-miterlimit="10"/>
<path d="M18.4842 151.138C18.4923 150.774 18.578 150.416 18.7356 150.087C18.8931 149.759 19.1188 149.468 19.3977 149.234C19.9739 148.717 23.0047 147.441 23.295 148.508C23.5853 149.669 20.4862 151.953 18.4842 151.138Z" fill="#0A8432" stroke="#263238" stroke-miterlimit="10"/>
<path d="M18.4842 151.138L21.5405 149.242" stroke="#263238" stroke-width="0.5" stroke-miterlimit="10"/>
<path d="M17.5707 146.557L19.816 144.188" stroke="#263238" stroke-width="2" stroke-miterlimit="10"/>
<path d="M19.133 144.897C19.1385 144.535 19.2209 144.177 19.3747 143.849C19.5285 143.521 19.7502 143.229 20.0251 142.993C20.6014 142.481 23.6322 141.2 23.9182 142.267C24.2341 143.433 21.1307 145.712 19.133 144.897Z" fill="#0A8432" stroke="#263238" stroke-miterlimit="10"/>
<path d="M19.133 144.897L22.1894 143.002" stroke="#263238" stroke-width="0.5" stroke-miterlimit="10"/>
<path d="M18.5182 137.414L20.7635 135.04" stroke="#263238" stroke-width="2" stroke-miterlimit="10"/>
<path d="M20.0808 135.749C20.0839 135.384 20.1652 135.023 20.319 134.692C20.4729 134.361 20.6959 134.066 20.973 133.828C21.5492 133.316 24.58 132.035 24.8703 133.107C25.1819 134.285 22.0828 136.564 20.0808 135.749Z" fill="#0A8432" stroke="#263238" stroke-miterlimit="10"/>
<path d="M20.0808 135.749L23.1372 133.854" stroke="#263238" stroke-width="0.5" stroke-miterlimit="10"/>
<path d="M19.0091 131.54C19.0146 131.178 19.097 130.821 19.2508 130.492C19.4046 130.164 19.6263 129.872 19.9012 129.636C20.4775 129.12 23.5083 127.843 23.7986 128.911C24.0931 130.072 21.0111 132.355 19.0091 131.54Z" fill="#0A8432" stroke="#263238" stroke-miterlimit="10"/>
<path d="M19.0091 131.54L22.0655 129.645" stroke="#263238" stroke-width="0.5" stroke-miterlimit="10"/>
<path d="M19.1375 131.694C18.7771 131.652 18.4299 131.534 18.1191 131.347C17.8083 131.16 17.5413 130.909 17.3361 130.61C16.8836 129.982 15.9317 126.836 17.0245 126.661C18.2112 126.448 20.1577 129.773 19.1375 131.694Z" fill="#0A8432" stroke="#263238" stroke-miterlimit="10"/>
<path d="M19.1373 131.672L17.5707 128.437" stroke="#263238" stroke-width="0.5" stroke-miterlimit="10"/>
<path d="M13.3533 112.485V172.481" stroke="#263238" stroke-width="2" stroke-miterlimit="10"/>
<path d="M13.4043 163.462L11.4151 160.87" stroke="#263238" stroke-width="2" stroke-miterlimit="10"/>
<path d="M12.0214 161.647C12.0537 161.286 12.0088 160.921 11.8895 160.578C11.7703 160.235 11.5795 159.922 11.3299 159.658C10.8091 159.09 7.9149 157.524 7.53072 158.54C7.09958 159.658 9.94681 162.249 12.0214 161.647Z" fill="#0A8432" stroke="#263238" stroke-miterlimit="10"/>
<path d="M12.0215 161.647L9.33646 159.56" stroke="#263238" stroke-width="0.5" stroke-miterlimit="10"/>
<path d="M13.4043 152.184L11.4151 149.597" stroke="#263238" stroke-width="2" stroke-miterlimit="10"/>
<path d="M12.0214 150.374C12.0537 150.012 12.0088 149.648 11.8895 149.305C11.7703 148.962 11.5795 148.648 11.3299 148.384C10.8091 147.812 7.9149 146.229 7.53072 147.262C7.09958 148.384 9.94681 150.976 12.0214 150.374Z" fill="#0A8432" stroke="#263238" stroke-miterlimit="10"/>
<path d="M12.0215 150.374L9.33646 148.282" stroke="#263238" stroke-width="0.5" stroke-miterlimit="10"/>
<path d="M13.4043 138.951L11.4151 136.36" stroke="#263238" stroke-width="2" stroke-miterlimit="10"/>
<path d="M12.0214 137.136C12.0537 136.775 12.0088 136.41 11.8895 136.067C11.7703 135.724 11.5795 135.411 11.3299 135.147C10.8091 134.575 7.9149 133.013 7.53072 134.025C7.09958 135.147 9.94681 137.738 12.0214 137.136Z" fill="#0A8432" stroke="#263238" stroke-miterlimit="10"/>
<path d="M12.0215 137.136L9.33646 135.045" stroke="#263238" stroke-width="0.5" stroke-miterlimit="10"/>
<path d="M13.4043 130.136L11.4151 127.545" stroke="#263238" stroke-width="2" stroke-miterlimit="10"/>
<path d="M12.0214 128.322C12.0531 127.961 12.0078 127.597 11.8886 127.255C11.7694 126.913 11.579 126.6 11.3299 126.337C10.8091 125.765 7.9149 124.181 7.53072 125.214C7.09958 126.337 9.94681 128.928 12.0214 128.322Z" fill="#0A8432" stroke="#263238" stroke-miterlimit="10"/>
<path d="M12.0215 128.322L9.33646 126.234" stroke="#263238" stroke-width="0.5" stroke-miterlimit="10"/>
<path d="M13.4043 121.287L11.4151 118.696" stroke="#263238" stroke-width="2" stroke-miterlimit="10"/>
<path d="M12.0214 119.472C12.0531 119.112 12.0078 118.748 11.8886 118.406C11.7694 118.064 11.579 117.751 11.3299 117.488C10.8091 116.916 7.9149 115.332 7.53072 116.365C7.09958 117.488 9.94681 120.079 12.0214 119.472Z" fill="#0A8432" stroke="#263238" stroke-miterlimit="10"/>
<path d="M12.0215 119.473L9.33646 117.385" stroke="#263238" stroke-width="0.5" stroke-miterlimit="10"/>
<path d="M13.3572 166.902L15.3465 164.311" stroke="#263238" stroke-width="2" stroke-miterlimit="10"/>
<path d="M14.7406 165.088C14.7089 164.727 14.7541 164.363 14.8733 164.021C14.9925 163.679 15.183 163.366 15.4321 163.103C15.9529 162.531 18.8471 160.947 19.2312 161.98C19.6624 163.103 16.8365 165.694 14.7406 165.088Z" fill="#0A8432" stroke="#263238" stroke-miterlimit="10"/>
<path d="M14.7405 165.088L17.5835 162.89" stroke="#263238" stroke-width="0.5" stroke-miterlimit="10"/>
<path d="M13.3572 148.969L15.3465 146.382" stroke="#263238" stroke-width="2" stroke-miterlimit="10"/>
<path d="M14.7405 147.159C14.7082 146.798 14.7531 146.433 14.8723 146.09C14.9916 145.747 15.1823 145.434 15.432 145.17C15.9528 144.598 18.847 143.036 19.2312 144.047C19.6623 145.17 16.8364 147.761 14.7405 147.159Z" fill="#0A8432" stroke="#263238" stroke-miterlimit="10"/>
<path d="M14.7405 147.159L17.5835 144.957" stroke="#263238" stroke-width="0.5" stroke-miterlimit="10"/>
<path d="M13.3572 140.12L15.3465 137.529" stroke="#263238" stroke-width="2" stroke-miterlimit="10"/>
<path d="M14.7406 138.306C14.7089 137.945 14.7541 137.582 14.8733 137.239C14.9925 136.897 15.183 136.584 15.4321 136.321C15.9529 135.749 18.8471 134.187 19.2312 135.198C19.6624 136.321 16.8365 138.912 14.7406 138.306Z" fill="#0A8432" stroke="#263238" stroke-miterlimit="10"/>
<path d="M14.7405 138.306L17.5835 136.108" stroke="#263238" stroke-width="0.5" stroke-miterlimit="10"/>
<path d="M13.3572 128.424L15.3465 125.833" stroke="#263238" stroke-width="2" stroke-miterlimit="10"/>
<path d="M14.7406 126.61C14.7089 126.249 14.7541 125.885 14.8733 125.543C14.9925 125.201 15.183 124.888 15.4321 124.625C15.9529 124.053 18.8471 122.469 19.2312 123.502C19.6624 124.625 16.8365 127.216 14.7406 126.61Z" fill="#0A8432" stroke="#263238" stroke-miterlimit="10"/>
<path d="M14.7405 126.61L17.5835 124.407" stroke="#263238" stroke-width="0.5" stroke-miterlimit="10"/>
<path d="M13.3572 119.225L15.3465 116.634" stroke="#263238" stroke-width="2" stroke-miterlimit="10"/>
<path d="M14.7405 117.415C14.7082 117.053 14.7531 116.689 14.8723 116.346C14.9916 116.003 15.1823 115.689 15.432 115.426C15.9528 114.854 18.847 113.27 19.2312 114.303C19.6623 115.426 16.8364 118.034 14.7405 117.415Z" fill="#0A8432" stroke="#263238" stroke-miterlimit="10"/>
<path d="M14.7405 117.415L17.5835 115.212" stroke="#263238" stroke-width="0.5" stroke-miterlimit="10"/>
<path d="M13.2423 113.338C13.2081 112.978 13.2518 112.614 13.3703 112.271C13.4889 111.929 13.6796 111.616 13.9296 111.353C14.4504 110.781 17.3445 109.219 17.733 110.231C18.1641 111.349 15.3126 113.94 13.2423 113.338Z" fill="#0A8432" stroke="#263238" stroke-miterlimit="10"/>
<path d="M13.2424 113.334L16.0853 111.131" stroke="#263238" stroke-width="0.5" stroke-miterlimit="10"/>
<path d="M13.379 113.458C13.0162 113.452 12.6589 113.369 12.3307 113.214C12.0025 113.06 11.7109 112.837 11.4751 112.561C10.9629 111.985 9.69081 108.95 10.758 108.664C11.9191 108.353 14.1986 111.46 13.379 113.458Z" fill="#0A8432" stroke="#263238" stroke-miterlimit="10"/>
<path d="M13.3788 113.458L11.4878 110.397" stroke="#263238" stroke-width="0.5" stroke-miterlimit="10"/>
<path d="M15.8248 188.041H9.46873L8.67475 171.995H16.6188L15.8248 188.041Z" fill="#263238" stroke="#263238" stroke-miterlimit="10"/>
<path d="M42.9094 65.1789H4.73868V4.41387H51.9975V65.1789H45.3896" stroke="#263238" stroke-miterlimit="10"/>
<path d="M50.2855 6.61654H6.45443V62.9763H50.2855V6.61654Z" stroke="#263238" stroke-miterlimit="10"/>
<path d="M15.2354 22.0522C16.0111 22.77 16.8402 23.4279 17.7156 24.0201C27.6318 30.7476 44.4505 27.5631 50.115 37.1207" stroke="#263238" stroke-miterlimit="10"/>
<path d="M9.39573 6.84705C9.1582 9.36466 9.44442 11.9042 10.2364 14.3058C11.0283 16.7074 12.3089 18.919 13.9974 20.8015" stroke="#263238" stroke-miterlimit="10"/>
<path d="M13.1522 37.8934C17.9886 35.3322 24.2508 33.5265 27.4566 38.713C31.1746 44.7361 13.9974 55.3609 13.9974 62.9678" stroke="#263238" stroke-miterlimit="10"/>
<path d="M6.56539 42.256C8.2213 40.918 9.97653 39.7079 11.8159 38.6361" stroke="#263238" stroke-miterlimit="10"/>
<path d="M29.4033 6.84705C29.4033 6.84705 35.7765 16.7633 50.2943 14.1039" stroke="#263238" stroke-miterlimit="10"/>
<path d="M31.3071 16.584C31.3364 16.819 31.3507 17.0557 31.3498 17.2926C31.3477 18.7175 30.8243 20.0924 29.8783 21.1579C28.9324 22.2235 27.6292 22.9062 26.2146 23.0771C24.8 23.2481 23.3718 22.8956 22.1992 22.086C21.0266 21.2765 20.1908 20.0659 19.8492 18.6826C19.5077 17.2992 19.6842 15.8387 20.3453 14.5765C21.0064 13.3143 22.1065 12.3375 23.4381 11.8305C24.7698 11.3235 26.2409 11.3213 27.5741 11.8242C28.9072 12.3271 30.0103 13.3004 30.6753 14.5606" stroke="#263238" stroke-miterlimit="10"/>
<path d="M45.8631 25.1726C45.8605 25.7151 45.6973 26.2447 45.394 26.6945C45.0907 27.1442 44.6609 27.494 44.1588 27.6997C43.6568 27.9054 43.1051 27.9576 42.5734 27.8499C42.0417 27.7422 41.5539 27.4794 41.1715 27.0946C40.789 26.7098 40.5292 26.2203 40.4248 25.688C40.3205 25.1556 40.3762 24.6042 40.5849 24.1035C40.7937 23.6028 41.1462 23.1752 41.5978 22.8747C42.0495 22.5741 42.5801 22.4142 43.1226 22.415C43.4839 22.415 43.8417 22.4865 44.1753 22.6253C44.5089 22.764 44.8118 22.9674 45.0665 23.2237C45.3212 23.48 45.5227 23.7841 45.6594 24.1186C45.7961 24.4531 45.8653 24.8113 45.8631 25.1726Z" stroke="#263238" stroke-miterlimit="10"/>
<path d="M45.9015 43.686C47.4474 44.0882 48.8897 44.8158 50.1317 45.8204" stroke="#263238" stroke-miterlimit="10"/>
<path d="M35.3879 63.0104C33.7065 61.4685 32.5298 59.4548 32.0119 57.233C31.4939 55.0111 31.6588 52.6847 32.485 50.5582C33.3111 48.4316 34.7601 46.604 36.6422 45.3146C38.5242 44.0253 40.7518 43.3341 43.0331 43.3317C43.2551 43.3317 43.46 43.3317 43.6863 43.3317" stroke="#263238" stroke-miterlimit="10"/>
<path d="M131.237 188.041H199.11" stroke="#263238" stroke-miterlimit="10"/>
<path d="M0.615115 188.041H127.823" stroke="#263238" stroke-miterlimit="10"/>
<path d="M162.625 8.11479H76.4702V167.717H162.625V8.11479Z" fill="white"/>
<path d="M162.625 140.5H76.4702V167.717H162.625V140.5Z" fill="#DEDEDE"/>
<path d="M165.213 39.5154C165.494 39.5154 165.765 39.4034 165.964 39.2041C166.163 39.0048 166.275 38.7344 166.275 38.4525V27.8106C166.275 27.5287 166.163 27.2584 165.964 27.059C165.765 26.8597 165.494 26.7477 165.213 26.7477C165.146 26.7412 165.079 26.7412 165.012 26.7477V6.85981C165.012 5.04048 164.289 3.29566 163.003 2.00919C161.716 0.72273 159.971 1.32828e-06 158.152 1.32828e-06H82.532C81.6307 -0.00055947 80.7383 0.176461 79.9055 0.520948C79.0727 0.865434 78.316 1.37064 77.6786 2.00768C77.0411 2.64473 76.5355 3.40114 76.1905 4.23369C75.8454 5.06624 75.6679 5.95861 75.6679 6.85981V167.487C75.6679 169.307 76.3911 171.053 77.6783 172.341C78.9656 173.628 80.7115 174.351 82.532 174.351H158.152C159.972 174.35 161.717 173.626 163.003 172.339C164.289 171.052 165.012 169.307 165.012 167.487V69.7677C165.079 69.7742 165.146 69.7742 165.213 69.7677C165.495 69.7666 165.765 69.6537 165.964 69.4537C166.164 69.2536 166.275 68.9828 166.275 68.7005V58.08C166.275 57.7981 166.163 57.5278 165.964 57.3284C165.765 57.1291 165.494 57.0171 165.213 57.0171C165.145 57.0177 165.078 57.0248 165.012 57.0384V54.6309C165.078 54.6445 165.145 54.6517 165.213 54.6522C165.494 54.6511 165.764 54.5388 165.963 54.3397C166.162 54.1406 166.274 53.8709 166.275 53.5893V42.9432C166.274 42.6616 166.162 42.3919 165.963 42.1928C165.764 41.9937 165.494 41.8814 165.213 41.8803C165.145 41.8808 165.078 41.888 165.012 41.9016V39.4898C165.078 39.5049 165.145 39.5135 165.213 39.5154ZM161.038 164.004H79.642V11.8371H161.038V164.004Z" fill="#263238"/>
<path d="M158.267 13.4165H151.519V17.1175H158.267V13.4165Z" stroke="#263238" stroke-width="0.821067" stroke-linecap="round" stroke-linejoin="round"/>
<path d="M156.782 13.4165H151.519V17.1175H156.782V13.4165Z" fill="#263238" stroke="#263238" stroke-width="0.725073" stroke-linecap="round" stroke-linejoin="round"/>
<path d="M159.206 14.4538H158.254V16.0844H159.206V14.4538Z" fill="#263238" stroke="#263238" stroke-width="0.725073" stroke-linecap="round" stroke-linejoin="round"/>
<path d="M82.7111 14.5648H81.4732V16.6863H82.7111V14.5648Z" fill="#263238" stroke="#263238" stroke-width="0.883086" stroke-linecap="round" stroke-linejoin="round"/>
<path d="M84.6576 13.8221H83.4197V16.6864H84.6576V13.8221Z" fill="#263238" stroke="#263238" stroke-width="0.883086" stroke-linecap="round" stroke-linejoin="round"/>
<path d="M86.6001 12.9384H85.3622V16.6864H86.6001V12.9384Z" fill="#263238" stroke="#263238" stroke-width="0.883086" stroke-linecap="round" stroke-linejoin="round"/>
<path d="M159.117 19.175H80.9525V39.716H159.117V19.175Z" fill="#0A8432"/>
<path d="M100.708 22.1332V37.2145" stroke="white" stroke-miterlimit="10"/>
<path d="M120.626 22.1332V37.2145" stroke="white" stroke-miterlimit="10"/>
<path d="M140.548 22.1332V37.2145" stroke="white" stroke-miterlimit="10"/>
<path opacity="0.15" d="M164.307 69.7677C164.374 69.7742 164.441 69.7742 164.508 69.7677C164.79 69.7666 165.061 69.6537 165.26 69.4536C165.459 69.2536 165.571 68.9828 165.571 68.7005V64.8886L160.333 74.1218V164.004H109.378L103.491 174.351H157.443C159.264 174.351 161.01 173.628 162.297 172.341C163.584 171.053 164.307 169.307 164.307 167.487V69.7677Z" fill="white"/>
<path d="M117.036 110.534V105.655H119.473V103.2H117.044C117.044 102.385 117.044 101.565 117.044 100.75H121.932V98.3126H124.374V100.737H126.824V95.8367H134.166V98.2742H136.595V95.8367H134.158V93.378H129.261V88.5202H121.915V90.9619H117.044V95.8581H119.469V98.2998H117.032V100.746H114.59V98.2955H107.252V95.8581H114.59V76.2732H117.044C117.044 78.6296 117.044 80.9859 117.044 83.3422V83.6069H119.49V78.7278H121.928V83.6154H124.387V86.0529H136.621V88.4946H139.071V90.9576H136.633V93.4121H139.062V98.3126H141.517V103.205H139.088V108.088H141.483V110.534H146.37V112.976H139.062V117.863H136.621V115.422H131.712V112.976H129.27V110.534H134.14V108.088H121.936V110.521H117.036V110.534ZM131.712 103.192V100.759H129.283V103.187H131.72V105.625H136.595V103.192H131.712ZM126.811 103.192H124.408V105.612H126.828L126.811 103.192ZM131.724 90.9277H134.145V88.5031H131.724V90.9277Z" fill="#263238"/>
<path d="M95.0138 83.5983V66.4894H112.118V83.5983H95.0138ZM97.4683 68.9439V81.1566H109.677V68.9439H97.4683Z" fill="#263238"/>
<path d="M146.383 83.6026H129.278V66.4979H146.383V83.6026ZM143.941 68.9439H131.733V81.1524H143.941V68.9439Z" fill="#263238"/>
<path d="M95.0177 100.75H112.127V117.859H95.0177V100.75ZM109.681 103.205H97.4679V115.417H109.681V103.205Z" fill="#263238"/>
<path d="M117.032 76.2733V71.3771H114.59V66.4937H126.803V71.3685H124.408V73.8188H126.828V78.7022H124.391V76.2733H121.932V73.8316H119.49V76.2647H117.027L117.032 76.2733ZM119.486 71.36H121.911V68.9439H119.486V71.36Z" fill="#263238"/>
<path d="M107.239 88.5031V90.9491H112.127V93.3908H104.797V98.2827H95.0219V93.4164H97.4423V95.8367H102.351V88.5031H107.243H107.239Z" fill="#263238"/>
<path d="M117.027 110.53V112.976H119.473V115.417H121.911V117.863H114.59V110.534H117.019L117.027 110.53Z" fill="#263238"/>
<path d="M102.351 88.5031H97.4594V90.9405H95.0219V86.0742H102.343V88.5073L102.351 88.5031Z" fill="#263238"/>
<path d="M146.383 93.3908H143.959V88.5116H141.517V86.0699H146.383V93.3908Z" fill="#263238"/>
<path d="M107.243 88.5116V86.0742H112.122V88.5031H107.239L107.243 88.5116Z" fill="#263238"/>
<path d="M141.508 98.2998V95.8624H143.937V98.2913H141.483L141.508 98.2998Z" fill="#263238"/>
<path d="M143.963 100.754H146.383V103.179H143.963V100.754Z" fill="#263238"/>
<path d="M124.374 83.6154V81.178H126.807V83.6069H124.37L124.374 83.6154Z" fill="#263238"/>
<path d="M117.036 105.655H114.59V103.213H117.019V105.655H117.036Z" fill="#263238"/>
<path d="M141.508 108.088V105.655H143.937V108.084H141.508V108.088Z" fill="#263238"/>
<path d="M139.054 90.9576H141.483V93.3993H139.054V90.9448V90.9576Z" fill="#263238"/>
<path d="M126.807 115.417H124.382V112.997H126.807V115.417Z" fill="#263238"/>
<path d="M131.712 115.422V117.859H129.283V115.43H131.72L131.712 115.422Z" fill="#263238"/>
<path d="M146.383 117.868H143.963V115.443H146.383V117.868Z" fill="#263238"/>
<path d="M126.824 95.8367H124.408V93.4078H126.841V95.8367H126.824Z" fill="#263238"/>
<path d="M107.226 78.7064H99.9096V71.3899H107.226V78.7064Z" fill="#263238"/>
<path d="M134.17 78.7022V71.3856H141.483V78.7022H134.17Z" fill="#263238"/>
<path d="M99.9096 112.967V105.655H107.226V112.971L99.9096 112.967Z" fill="#263238"/>
<path d="M102.121 60.6925H91.4065V72.5125" stroke="#0A8432" stroke-width="2" stroke-miterlimit="10"/>
<path d="M141.086 60.6925H151.796V72.5125" stroke="#0A8432" stroke-width="2" stroke-miterlimit="10"/>
<path d="M102.121 122.939H91.4065V111.119" stroke="#0A8432" stroke-width="2" stroke-miterlimit="10"/>
<path d="M141.086 122.939H151.796V111.119" stroke="#0A8432" stroke-width="2" stroke-miterlimit="10"/>
<path d="M69.5208 63.2537H65.9649C65.3355 63.2537 64.8252 63.764 64.8252 64.3935V74.3524C64.8252 74.9818 65.3355 75.4921 65.9649 75.4921H69.5208C70.1502 75.4921 70.6605 74.9818 70.6605 74.3524V64.3935C70.6605 63.764 70.1502 63.2537 69.5208 63.2537Z" fill="#263238" stroke="#263238" stroke-miterlimit="10"/>
<path d="M70.1399 64.3337H65.3377V74.4079H70.1399V64.3337Z" fill="white" stroke="#263238" stroke-miterlimit="10"/>
<path d="M18.399 123.229C20.1116 123.22 21.7879 122.733 23.2397 121.825C23.1458 124.548 23.0732 126.61 23.0732 126.61C23.0732 126.61 23.5427 127.429 23.7775 127.784C24.0123 128.138 26.0058 129.308 26.2406 130.366C26.4753 131.425 27.5212 132.01 27.4145 133.534C27.3077 135.058 26.0058 133.414 26.2406 133.768C26.4753 134.123 27.1797 135.292 27.1797 136.351C27.1797 137.41 24.9514 137.405 24.1276 136.701C23.3037 135.997 20.6101 134.353 20.3754 132.829L19.4576 129.414L18.399 123.229Z" fill="white" stroke="#263238" stroke-miterlimit="10"/>
<path d="M23.2738 131.694L23.8458 134.255C23.8458 134.255 25.6941 135.677 25.835 136.675" fill="white"/>
<path d="M23.2738 131.694L23.8458 134.255C23.8458 134.255 25.6941 135.677 25.835 136.675" stroke="#263238" stroke-miterlimit="10"/>
<path d="M26.236 133.768L25.4079 132.121" stroke="#263238" stroke-miterlimit="10"/>
<path d="M32.4981 185.808C32.4981 185.808 31.828 191.302 32.3487 191.972C32.6424 192.394 33.0163 192.755 33.4492 193.032C33.8821 193.31 34.3654 193.499 34.8715 193.59C36.0582 193.739 38.0645 193.069 38.0645 193.069C39.4185 193.433 40.8253 193.558 42.2223 193.441C44.3566 193.219 45.7824 192.403 45.9318 191.362C46.0812 190.32 44.2243 189.881 43.187 188.766C42.1497 187.652 40.4934 185.68 40.4934 185.68L40.0666 184.237C40.0666 184.237 37.5438 185.518 35.9131 185.573C34.9909 185.629 34.0655 185.554 33.1641 185.351L32.4981 185.808Z" fill="white" stroke="#263238" stroke-miterlimit="10"/>
<path d="M45.9318 191.375C45.9487 191.253 45.937 191.128 45.8976 191.012C45.4067 191.217 44.7792 191.464 44.0023 191.746C41.7741 192.566 40.6599 191.895 39.5501 191.895C38.4402 191.895 38.3591 193.082 35.2429 192.267C33.2068 191.733 32.4427 191.046 32.1524 190.628C32.1115 191.085 32.1788 191.546 32.3488 191.972C32.6424 192.394 33.0163 192.755 33.4492 193.032C33.8821 193.31 34.3654 193.499 34.8716 193.59C36.0583 193.739 38.0646 193.069 38.0646 193.069C39.4185 193.433 40.8253 193.558 42.2223 193.441C44.3737 193.232 45.7824 192.416 45.9318 191.375Z" fill="white" stroke="#263238" stroke-miterlimit="10"/>
<path d="M28.5413 117.607C28.5413 117.607 25.5532 127.639 26.6204 134.682C27.6875 141.725 32.81 154.958 32.81 154.958C32.81 154.958 32.1697 159.867 32.1697 161.575C32.1697 163.282 30.6756 166.484 31.7428 169.899C32.81 173.314 32.81 182.278 32.81 182.918C32.81 183.559 32.3831 186.974 32.3831 186.974C32.3831 186.974 33.2369 188.254 36.4384 188.254C39.6399 188.254 40.4937 185.693 40.4937 185.693C40.4937 185.693 43.6952 166.697 43.6952 163.709C43.6952 160.721 47.1102 149.622 48.3908 145.14C49.2472 142.055 50.4877 139.089 52.0832 136.313C52.9369 134.819 52.446 116.753 52.446 116.753L28.1144 114.619L28.5413 117.607Z" fill="#737373" stroke="#263238" stroke-miterlimit="10"/>
<path d="M45.3386 187.221C45.3386 187.221 48.5316 188.48 50.0896 189.223C51.6477 189.966 52.685 190.039 52.685 191.23C52.685 192.42 49.8677 193.603 48.1602 193.902C46.4527 194.201 43.7037 194.124 43.4091 194.196C43.1146 194.269 37.5439 195.088 36.878 193.675C36.2121 192.263 36.9506 187.443 36.9506 187.443C39.7342 187.919 42.584 187.843 45.3386 187.221Z" fill="white" stroke="#263238" stroke-miterlimit="10"/>
<path d="M43.4092 194.196C43.7037 194.124 46.4527 194.196 48.1602 193.902C49.8677 193.607 52.685 192.416 52.685 191.23C52.6861 191.073 52.6631 190.918 52.6168 190.769C51.896 191.189 51.1505 191.565 50.3842 191.895C48.3054 192.788 45.5606 193.381 41.4199 193.308C39.8155 193.305 38.2179 193.1 36.6646 192.698C36.6884 193.034 36.7662 193.364 36.8951 193.675C37.544 195.088 43.1103 194.273 43.4092 194.196Z" fill="white" stroke="#263238" stroke-miterlimit="10"/>
<path d="M52.6593 118.461C52.6593 118.461 53.9399 135.749 51.3787 148.769C48.8174 161.788 44.5487 179.503 44.3353 180.357C44.1219 181.211 45.8294 183.559 45.8294 183.559V186.974C45.8294 186.974 44.3353 188.468 40.9203 188.895C37.5054 189.321 36.4382 188.254 36.4382 188.254C36.4382 188.254 35.5845 182.491 35.5845 178.436C35.5845 174.381 36.4382 160.508 36.4382 160.508C36.4382 160.508 38.3591 146.421 38.1457 144.287C37.9322 142.152 37.2919 135.536 37.2919 135.536L33.877 131.48" fill="#737373"/>
<path d="M52.6593 118.461C52.6593 118.461 53.9399 135.749 51.3787 148.769C48.8174 161.788 44.5487 179.503 44.3353 180.357C44.1219 181.211 45.8294 183.559 45.8294 183.559V186.974C45.8294 186.974 44.3353 188.468 40.9203 188.895C37.5054 189.321 36.4382 188.254 36.4382 188.254C36.4382 188.254 35.5845 182.491 35.5845 178.436C35.5845 174.381 36.4382 160.508 36.4382 160.508C36.4382 160.508 38.3591 146.421 38.1457 144.287C37.9322 142.152 37.2919 135.536 37.2919 135.536L33.877 131.48" stroke="#263238" stroke-miterlimit="10"/>
<path d="M16.7809 115.208L23.4956 114.03C23.4657 114.939 23.6578 109.194 23.6578 108.767C23.6578 107.828 25.8861 101.937 25.8861 101.937C25.8861 101.937 27.6448 109.569 27.6448 110.508C27.6448 111.447 26.9405 118.619 27.8796 119.545C28.8187 120.471 32.1056 122.362 39.3837 122.128C46.6619 121.893 52.0618 121.304 53.4705 119.895C54.8791 118.486 53.2357 114.145 53.1162 113.56C52.9966 112.976 54.9944 97.5954 54.9944 97.5954C54.9944 97.5954 62.8574 105.813 67.5529 104.639C72.2485 103.465 70.0202 85.165 70.0202 85.165L70.255 79.8846C70.255 79.8846 71.779 76.0129 71.779 75.4238C71.779 74.8347 70.255 70.613 70.255 70.613C70.255 70.613 69.3159 69.7891 68.7268 71.7869C68.3967 72.8599 68.161 73.9597 68.0225 75.0738C68.0225 75.0738 66.6138 76.1281 66.7419 77.6563C66.8124 78.5781 67.0091 79.4859 67.3267 80.3541L64.1508 90.7143C64.1508 90.7143 60.6291 86.7231 60.3943 86.0187C60.1595 85.3144 60.2748 82.7318 57.3422 81.2036C54.4096 79.6754 48.4206 79.5602 48.4206 79.5602L31.8708 79.6797C31.8708 79.6797 24.1231 80.3627 22.3858 81.8866C20.6484 83.4105 15.2271 102.782 15.2271 105.715C15.2271 106.632 15.7052 109.475 16.3754 112.993L16.7809 115.208Z" fill="white" stroke="#263238" stroke-miterlimit="10"/>
<path d="M70.2552 70.6215C70.2552 70.6215 69.9009 73.5541 70.1357 74.1432C70.4724 75.1638 70.553 76.2515 70.3705 77.3106" stroke="#263238" stroke-miterlimit="10"/>
<path d="M67.5529 104.66C72.2485 103.486 70.0202 85.1735 70.0202 85.1735L70.0715 83.9911C69.5584 83.6021 68.9635 83.335 68.3319 83.2101C67.7003 83.0851 67.0485 83.1055 66.426 83.2697L64.1508 90.7143C64.1508 90.7143 60.6291 86.7231 60.3943 86.0187C60.1595 85.3144 60.2748 82.7318 57.3422 81.2036C54.4096 79.6754 48.4206 79.5602 48.4206 79.5602L31.8708 79.6797C31.8708 79.6797 24.1231 80.3627 22.3858 81.8866C20.6484 83.4105 15.2271 102.782 15.2271 105.715C15.2271 107.456 16.9602 116.139 18.4201 123.216C20.1243 123.207 21.7925 122.725 23.2395 121.825C23.4102 116.749 23.6664 109.377 23.6664 108.767C23.6664 107.828 25.8946 101.937 25.8946 101.937C25.8946 101.937 27.6533 109.569 27.6533 110.508C27.6533 111.447 26.949 118.619 27.8881 119.545C28.8272 120.471 32.1141 122.362 39.3923 122.128C46.6704 121.893 52.0703 121.304 53.479 119.895C54.8877 118.486 53.2442 114.145 53.1247 113.56C53.0052 112.976 55.0029 97.5954 55.0029 97.5954C55.0029 97.5954 62.8574 105.834 67.5529 104.66Z" fill="#0A8432" stroke="#263238" stroke-miterlimit="10"/>
<path d="M23.581 95.4995L25.8861 101.958L21.1393 93.8433" stroke="#263238" stroke-miterlimit="10"/>
<path d="M22.279 91.8541L23.0944 94.1378" stroke="#263238" stroke-miterlimit="10"/>
<path d="M38.5345 95.9563C39.5718 98.287 41.0957 101.211 42.9099 103.094" stroke="#263238" stroke-miterlimit="10"/>
<path d="M37.0785 92.2809C37.0785 92.2809 37.3987 93.2414 37.9707 94.6372" stroke="#263238" stroke-miterlimit="10"/>
<path d="M39.6398 100.105C39.6398 100.105 42.2011 105.228 43.4817 106.223" stroke="#263238" stroke-miterlimit="10"/>
<path d="M59.0112 93.8945L59.9844 92.9895" stroke="#263238" stroke-miterlimit="10"/>
<path d="M57.4232 92.5627L54.9943 97.6168L58.1275 94.7141" stroke="#263238" stroke-miterlimit="10"/>
<path d="M68.5221 95.4099C68.3813 94.4153 64.151 90.693 64.151 90.693C64.151 90.693 68.5221 92.4218 69.6619 93.9884" stroke="#263238" stroke-miterlimit="10"/>
<path d="M50.064 64.163C50.064 64.163 50.2988 67.0998 50.6531 67.5779C51.0074 68.056 51.2379 71.6844 50.6531 72.7431C50.0683 73.8017 49.714 75.0909 49.3725 75.4409C49.031 75.7909 47.729 75.7952 47.2381 75.7952C46.7472 75.7952 41.4882 75.5604 41.4882 75.5604L41.6077 68.1628C41.6077 68.1628 42.9054 62.6391 50.064 64.163Z" fill="white" stroke="#263238" stroke-miterlimit="10"/>
<path d="M40.6773 55.95C40.6773 55.95 35.8622 57.4739 34.8078 61.6871C33.7535 65.9003 37.1556 70.724 37.1556 70.724C37.1556 70.724 38.0947 74.1389 38.9143 74.8347C39.7339 75.5305 43.0208 74.8347 44.0795 74.5999C45.1381 74.3652 47.4944 68.0261 47.4944 68.0261C47.4944 68.0261 47.4944 69.5501 48.1988 69.5501C48.9031 69.5501 48.7879 67.5566 48.7879 67.2023C48.7879 66.848 52.0748 64.3849 52.0748 60.1632C52.0748 55.9414 48.425 54.0717 45.01 54.3065C41.5951 54.5413 40.6773 55.95 40.6773 55.95Z" fill="#263238" stroke="#263238" stroke-miterlimit="10"/>
<path d="M50.653 79.3041C50.653 79.3041 49.9487 76.841 49.5944 76.491C49.2401 76.1409 47.0118 74.728 43.3749 74.4932C39.738 74.2584 34.338 74.378 33.8685 74.6127C33.3989 74.8475 33.2794 76.841 33.2794 76.841C33.2794 76.841 31.7555 78.2497 31.4012 79.0735C31.0469 79.8974 30.6968 80.2432 33.9624 82.9453C37.228 85.6473 39.0123 86.7017 42.4144 85.8779C45.8166 85.054 50.747 80.1279 50.747 80.1279L50.653 79.3041Z" fill="#0A8432" stroke="#263238" stroke-miterlimit="10"/>
<path d="M42.2566 80.9689C44.5671 80.1791 46.79 79.1535 48.8902 77.9082" stroke="#263238" stroke-miterlimit="10"/>
<path d="M33.2794 77.3106C33.2794 77.3106 35.4137 81.5366 39.1489 81.5366C39.658 81.5304 40.1654 81.4761 40.6643 81.3744" stroke="#263238" stroke-miterlimit="10"/>
</svg>
