<svg width="20" height="20" viewBox="0 0 20 20" fill="none" xmlns="http://www.w3.org/2000/svg">
<path d="M12.875 3.74979C12.875 3.11059 13.0977 2.49136 13.5047 1.99853C13.9118 1.50564 14.4779 1.16998 15.1056 1.04925C15.7334 0.928518 16.3836 1.03026 16.9445 1.33698C17.5054 1.64371 17.9419 2.13625 18.1789 2.72993C18.416 3.32361 18.4388 3.98133 18.2435 4.59002C18.0482 5.19871 17.6469 5.72034 17.1086 6.06522C16.5704 6.4101 15.9288 6.55669 15.2942 6.47979C14.7245 6.41075 14.1924 6.16548 13.7709 5.78074L7.0794 9.49879C7.14076 9.83008 7.14076 10.1699 7.0794 10.5011L13.771 14.2192C14.2147 13.8147 14.7802 13.5651 15.3818 13.5119C16.0486 13.453 16.714 13.6392 17.2532 14.0358C17.7925 14.4324 18.1686 15.012 18.311 15.666C18.4535 16.32 18.3525 17.0036 18.027 17.5885C17.7015 18.1734 17.1738 18.6195 16.543 18.8432C15.9121 19.0668 15.2213 19.0527 14.6 18.8035C13.9788 18.5543 13.4698 18.087 13.1685 17.4893C12.8966 16.9501 12.8106 16.3381 12.9205 15.7479L6.22913 12.0307C5.873 12.3559 5.43663 12.5826 4.9633 12.6863C4.42611 12.8039 3.86597 12.7579 3.35523 12.554C2.8445 12.3501 2.40662 11.9977 2.09816 11.5425C1.7897 11.0872 1.62482 10.5499 1.62482 9.99997C1.62482 9.45004 1.7897 8.91274 2.09816 8.45746C2.40662 8.00219 2.8445 7.64985 3.35523 7.44596C3.86597 7.24207 4.42611 7.19599 4.9633 7.31367C5.43663 7.41736 5.87299 7.644 6.22912 7.96918L12.9207 4.25109C12.8902 4.08587 12.8749 3.91807 12.875 3.74979ZM12.875 3.74979L13.125 3.74997M12.875 3.74979L13.125 3.74997M12.875 3.74979C12.875 3.74985 12.875 3.74992 12.875 3.74999L13.125 3.74997M12.875 3.74979L13.125 3.74997M13.125 3.74997C13.125 3.16882 13.3274 2.60581 13.6975 2.15773C14.0675 1.70965 14.5822 1.40451 15.1529 1.29475C15.7235 1.18499 16.3146 1.27749 16.8245 1.55633C17.3344 1.83517 17.7312 2.28293 17.9467 2.82264C18.1623 3.36235 18.183 3.96028 18.0055 4.51364C17.8279 5.06699 17.4631 5.5412 16.9738 5.85473C16.4844 6.16826 15.9012 6.30152 15.3243 6.2316C14.7473 6.16169 14.2128 5.89297 13.8125 5.47163L6.79501 9.3708C6.90223 9.78339 6.90223 10.2165 6.79501 10.6291L13.8125 14.5283C14.2319 14.0874 14.7977 13.8145 15.4038 13.761C16.01 13.7074 16.6149 13.8767 17.1051 14.2372C17.5953 14.5977 17.9372 15.1246 18.0667 15.7192C18.1962 16.3138 18.1044 16.9352 17.8085 17.4669C17.5126 17.9986 17.0329 18.4042 16.4594 18.6075C15.8859 18.8109 15.2579 18.798 14.6931 18.5715C14.1284 18.3449 13.6656 17.9201 13.3917 17.3767C13.1177 16.8334 13.0514 16.2088 13.205 15.62L6.18751 11.7216C5.84322 12.0841 5.39816 12.3351 4.9098 12.4421C4.42145 12.549 3.91223 12.5071 3.44792 12.3218C2.98362 12.1364 2.58555 11.8161 2.30513 11.4022C2.02471 10.9884 1.87482 10.4999 1.87482 9.99997C1.87482 9.50003 2.02471 9.01157 2.30513 8.59769C2.58555 8.1838 2.98362 7.8635 3.44792 7.67814C3.91223 7.49279 4.42145 7.4509 4.9098 7.55788C5.39816 7.66486 5.84322 7.91581 6.18751 8.2783L13.205 4.37913L13.125 3.74997Z" fill="#0A8432" stroke="#0A8432" stroke-width="0.5"/>
</svg>
