<svg width="24" height="20" viewBox="0 0 24 20" fill="none" xmlns="http://www.w3.org/2000/svg">
<g clip-path="url(#clip0_54_882)">
<path fill-rule="evenodd" clip-rule="evenodd" d="M18.5642 1.21338H5.43032C3.98598 1.21338 3.47045 1.3905 2.94463 1.68166C2.37368 1.9978 1.9256 2.46172 1.62026 3.05285C1.33905 3.59726 1.16797 4.13102 1.16797 5.62642V14.3761C1.16797 15.8715 1.33905 16.4053 1.62026 16.9497C1.9256 17.5408 2.37368 18.0047 2.94463 18.3209C3.47045 18.612 3.98598 18.7891 5.43032 18.7891H18.5642C20.0085 18.7891 20.524 18.612 21.0498 18.3209C21.6208 18.0047 22.0689 17.5408 22.3742 16.9497C22.6554 16.4053 22.8265 15.8715 22.8265 14.3761V5.62642C22.8265 4.13102 22.6554 3.59726 22.3742 3.05285C22.0689 2.46172 21.6208 1.9978 21.0498 1.68166C20.524 1.3905 20.0085 1.21338 18.5642 1.21338Z" fill="#FF4B4B" stroke="#CECECE" stroke-width="1.17073"/>
<path d="M9.24066 5.14505L8.86545 5.20472C8.74763 5.22345 8.63745 5.13976 8.61936 5.01777C8.61215 4.9692 8.62061 4.91952 8.64343 4.87643L8.82591 4.53179C8.84328 4.499 8.84395 4.45945 8.8277 4.42605L8.65694 4.07503C8.60332 3.96481 8.64616 3.83045 8.75261 3.77494C8.79501 3.75283 8.84325 3.74581 8.88989 3.75496L9.26286 3.82815C9.29835 3.83512 9.33488 3.82356 9.36054 3.79723L9.63022 3.52062C9.7149 3.43376 9.85155 3.43442 9.93544 3.5221C9.96885 3.55701 9.9902 3.60235 9.99621 3.6511L10.0442 4.04097C10.0488 4.07807 10.0707 4.11047 10.1028 4.1276L10.4402 4.30767C10.5462 4.36421 10.5878 4.49897 10.5332 4.60867C10.5115 4.65235 10.4764 4.68739 10.4335 4.70837L10.0902 4.87613C10.0575 4.8921 10.0345 4.92368 10.0287 4.9606L9.96759 5.3485C9.9484 5.4703 9.83747 5.55292 9.71982 5.53305C9.67298 5.52513 9.62996 5.50145 9.59743 5.46567L9.33724 5.17948C9.31248 5.15224 9.27636 5.13937 9.24066 5.14505Z" fill="#FFC300"/>
<path d="M11.9026 7.17944L11.6424 7.46563C11.5607 7.5555 11.4241 7.55977 11.3373 7.47518C11.3027 7.4415 11.2799 7.39696 11.2722 7.34846L11.2111 6.96056C11.2053 6.92365 11.1823 6.89206 11.1496 6.8761L10.8063 6.70833C10.6985 6.65566 10.6524 6.52248 10.7033 6.41087C10.7235 6.36643 10.7574 6.33015 10.7996 6.30763L11.137 6.12757C11.1691 6.11043 11.191 6.07803 11.1956 6.04093L11.2436 5.65106C11.2587 5.52864 11.3667 5.44206 11.485 5.45767C11.5321 5.46389 11.5759 5.486 11.6096 5.52059L11.8793 5.7972C11.9049 5.82352 11.9414 5.83508 11.9769 5.82812L12.3499 5.75493C12.467 5.73195 12.58 5.81161 12.6022 5.93286C12.611 5.98115 12.6042 6.0311 12.5829 6.07499L12.4121 6.42601C12.3959 6.45942 12.3965 6.49896 12.4139 6.53176L12.5964 6.8764C12.6537 6.98461 12.6154 7.12043 12.5109 7.17976C12.4692 7.20338 12.4213 7.21214 12.3744 7.20468L11.9991 7.14501C11.9634 7.13933 11.9273 7.15221 11.9026 7.17944Z" fill="#FFC300"/>
<path d="M9.2405 12.0174L8.8653 12.077C8.74748 12.0958 8.6373 12.0121 8.6192 11.8901C8.612 11.8415 8.62046 11.7918 8.64328 11.7487L8.82576 11.4041C8.84313 11.3713 8.84379 11.3318 8.82754 11.2984L8.65679 10.9473C8.60317 10.8371 8.646 10.7028 8.75246 10.6473C8.79485 10.6251 8.8431 10.6181 8.88974 10.6273L9.26271 10.7005C9.2982 10.7074 9.33473 10.6959 9.36039 10.6695L9.63007 10.3929C9.71474 10.3061 9.8514 10.3067 9.93529 10.3944C9.96869 10.4293 9.99005 10.4747 9.99606 10.5234L10.0441 10.9133C10.0486 10.9504 10.0706 10.9828 10.1027 10.9999L10.4401 11.18C10.546 11.2365 10.5877 11.3713 10.5331 11.481C10.5113 11.5247 10.4763 11.5597 10.4333 11.5807L10.09 11.7484C10.0574 11.7644 10.0344 11.796 10.0286 11.8329L9.96744 12.2208C9.94824 12.3426 9.83731 12.4252 9.71967 12.4054C9.67283 12.3974 9.62981 12.3738 9.59727 12.338L9.33709 12.0518C9.31233 12.0246 9.27621 12.0117 9.2405 12.0174Z" fill="#FFC300"/>
<path d="M11.6528 10.1151L11.3168 10.298C11.2113 10.3554 11.0808 10.3134 11.0253 10.2042C11.0032 10.1607 10.9956 10.1109 11.0036 10.0624L11.0678 9.67505C11.0739 9.63819 11.0621 9.60057 11.0362 9.57447L10.7644 9.30013C10.679 9.21398 10.6773 9.07251 10.7605 8.98414C10.7936 8.94895 10.837 8.92605 10.884 8.91898L11.2597 8.86246C11.2954 8.85708 11.3263 8.83384 11.3423 8.8003L11.5103 8.44785C11.5631 8.33719 11.6925 8.29175 11.7994 8.34637C11.8419 8.36812 11.8764 8.40379 11.8974 8.44785L12.0654 8.8003C12.0814 8.83384 12.1123 8.85708 12.148 8.86246L12.5237 8.91898C12.6417 8.93673 12.7234 9.05012 12.7062 9.17225C12.6994 9.22088 12.6773 9.26582 12.6433 9.30013L12.3715 9.57447C12.3456 9.60057 12.3338 9.63819 12.3399 9.67505L12.4041 10.0624C12.4242 10.1841 12.3453 10.2996 12.2278 10.3204C12.1811 10.3287 12.1329 10.3209 12.0909 10.298L11.7549 10.1151C11.723 10.0977 11.6848 10.0977 11.6528 10.1151Z" fill="#FFC300"/>
<path d="M6.32215 9.45699L5.57547 9.86342C5.34102 9.99103 5.05103 9.89771 4.92777 9.65496C4.87869 9.5583 4.86175 9.44758 4.87958 9.33994L5.02218 8.47911C5.03575 8.3972 5.00952 8.31361 4.95204 8.2556L4.34796 7.64595C4.15828 7.45452 4.1544 7.14014 4.33929 6.94375C4.41292 6.86555 4.50939 6.81466 4.61377 6.79896L5.44858 6.67336C5.52802 6.66141 5.5967 6.60975 5.63222 6.53522L6.00556 5.75201C6.12279 5.50609 6.41038 5.40511 6.64791 5.52649C6.74249 5.57482 6.81905 5.65408 6.86573 5.75201L7.23907 6.53522C7.2746 6.60975 7.34327 6.66141 7.42272 6.67336L8.25752 6.79896C8.51965 6.83839 8.70128 7.09037 8.66319 7.36177C8.64802 7.46984 8.59886 7.56972 8.52333 7.64595L7.91926 8.2556C7.86178 8.31361 7.83554 8.3972 7.84911 8.47911L7.99172 9.33994C8.03649 9.61024 7.86115 9.86695 7.60008 9.91331C7.49612 9.93177 7.38918 9.91423 7.29582 9.86342L6.54915 9.45699C6.47809 9.41831 6.3932 9.41831 6.32215 9.45699Z" fill="#FFC300"/>
</g>
<defs>
<clipPath id="clip0_54_882">
<rect width="24" height="20" fill="white"/>
</clipPath>
</defs>
</svg>
