<svg width="79" height="81" viewBox="0 0 79 81" fill="none" xmlns="http://www.w3.org/2000/svg">
<path d="M49.0576 6.10819C37.6826 6.10819 28.4279 17.4932 28.4279 31.4808C28.4279 45.4684 37.6826 56.8534 49.0576 56.8534C60.4325 56.8534 69.6873 45.4684 69.6873 31.4808C69.6873 17.4932 60.4325 6.10819 49.0576 6.10819ZM49.0576 54.7834C38.8282 54.7834 30.4979 44.3329 30.4979 31.4808C30.4979 18.6387 38.8181 8.17819 49.0576 8.17819C59.2971 8.17819 67.6173 18.6287 67.6173 31.4808C67.6173 44.3329 59.287 54.7834 49.0576 54.7834Z" fill="#DC6D26"/>
<path d="M42.0236 27.7527C32.6885 26.6273 22.9012 25.522 13.7068 28.0642C11.8277 28.5868 8.49159 29.9634 6.82353 31.1693C9.88833 35.6107 17.0529 34.7968 24.5994 35.6911L59.9603 40.1024C60.7641 40.1928 61.4374 40.424 62.181 40.1125C62.6734 39.9115 62.8743 39.8914 63.4069 39.7407C63.6983 39.6603 64.2711 39.1578 64.4721 39.0976L70.8931 39.4894C74.0383 38.354 73.9981 34.1939 76.6007 32.6765C75.4551 31.8526 73.1239 31.5109 71.6869 31.3401C61.7891 30.1342 51.9013 28.9485 42.0236 27.7527Z" fill="#DC6D26"/>
<path d="M74.4704 16.9003L71.2347 16.1869C69.6069 15.8251 68.0092 16.8601 67.6474 18.4779L66.0698 25.6325C65.487 28.2652 64.0601 30.6166 62.0504 32.4052C60.9752 33.3598 60.1914 34.6461 59.8598 36.1433C59.7995 36.4146 59.7392 36.696 59.6789 36.9673C59.5181 37.7209 59.3473 38.4645 59.1865 39.2181C58.9454 40.3335 58.6941 41.4389 58.453 42.5543C58.1515 43.9209 57.8501 45.2774 57.5486 46.644C57.217 48.1513 56.8854 49.6485 56.5538 51.1558C56.2122 52.6832 55.8806 54.2206 55.5389 55.748C55.2174 57.195 54.9058 58.642 54.5843 60.089C54.313 61.335 54.0316 62.5911 53.7603 63.8371C53.5493 64.7817 53.3483 65.7262 53.1373 66.6607C53.0067 67.2536 52.7856 67.9068 52.7253 68.5097C52.6751 68.982 53.489 69.3035 53.8206 69.4643C55.2073 70.1375 57.7697 70.9414 60.7441 71.6046C63.7285 72.2578 66.3913 72.5994 67.9288 72.5793C68.3408 72.5693 69.0743 72.6095 69.3054 72.1975C69.3255 72.1573 69.3456 72.107 69.3557 72.0568C69.848 69.7657 70.3505 67.4747 70.8529 65.1836C71.5362 62.0786 72.2095 58.9736 72.8928 55.8686C73.566 52.7837 74.2393 49.6887 74.9226 46.6038C75.3647 44.6042 75.7968 42.5945 76.2389 40.5948C76.2992 40.3335 76.3495 40.0723 76.4097 39.811C76.7413 38.3037 76.5605 36.8065 75.9877 35.5002C74.9125 33.0383 74.601 30.295 75.1838 27.6724L76.7614 20.5178C77.1131 18.8598 76.0882 17.252 74.4704 16.9003Z" fill="#4596CE"/>
<path d="M77.9271 10.3285C77.4146 9.77586 76.6208 9.72562 75.9073 9.71557C75.8772 9.71557 75.8571 9.71557 75.8269 9.71557C75.7566 9.71557 75.7465 9.83616 75.8169 9.8462C75.9676 9.8663 76.1284 9.8864 76.2992 9.91654C76.9926 10.0472 77.7261 10.2984 77.9371 11.0018C78.1883 11.876 78.0577 13.0115 78.0677 13.9159C78.0677 14.8303 78.1079 15.7949 77.9773 16.7094C77.8768 17.3927 77.5352 17.9755 77.1232 18.5081C77.1332 18.4277 77.1433 18.3473 77.1533 18.2568C77.2036 18.2367 77.2538 18.2066 77.3041 18.1865C77.4749 18.086 77.3543 17.8448 77.1935 17.8549L77.2036 17.7343C77.2438 17.1314 77.3242 16.4079 77.1634 15.815C77.0428 15.4031 76.7614 15.0413 76.3997 14.8001C76.0781 14.5891 75.7063 14.4786 75.3144 14.5389C75.2642 14.5389 75.2542 14.6193 75.3044 14.6293C75.7566 14.7298 76.0882 14.9006 76.3193 15.1317C77.0026 15.805 76.8921 16.9304 76.7212 18.0056C76.3595 18.1363 76.0078 18.1463 75.6561 18.1162C75.3144 18.086 74.9627 18.0358 74.6412 17.9855C73.8273 17.875 73.0133 17.7645 72.2094 17.6037C71.285 17.4228 70.4409 17.1615 69.627 16.7998C69.1949 16.6089 68.7628 16.3979 68.3307 16.1567C68.3106 16.1466 68.3106 16.1265 68.3106 16.1165C68.3809 15.8251 68.4613 15.5437 68.5518 15.2523C68.7326 14.7097 68.9035 14.1068 69.4461 13.8254C69.7475 13.6647 70.0189 13.6546 70.3103 13.7149C70.461 13.745 70.6017 13.7852 70.7624 13.8455C70.9634 13.9159 71.0237 13.6245 70.883 13.524C70.7323 13.4134 70.5715 13.3531 70.4007 13.313C69.7777 13.1823 69.0743 13.4938 68.7125 14.0164C68.4513 14.4082 68.3006 14.8906 68.18 15.3629C68.1699 15.4131 68.1096 15.4031 68.0996 15.3528C68.0594 14.2374 68.4915 13.0617 68.9738 12.1071C69.5164 11.042 70.8026 8.15805 72.32 9.09256C72.3602 9.11266 72.4004 9.14281 72.4406 9.17295C72.5712 9.26339 72.732 9.1428 72.7119 9.03227C72.7119 9.00213 72.6918 8.97198 72.6616 8.95188C70.9433 7.56518 69.6772 10.1376 68.9839 11.3535C68.4111 12.3583 67.9288 13.4436 67.7881 14.5891C67.7177 15.1317 67.7077 15.8351 67.9388 16.3778C67.8182 17.0008 67.7479 17.6037 67.7479 18.2166C67.7479 18.287 67.8584 18.297 67.8785 18.2267C67.969 17.7645 68.0594 17.3022 68.1498 16.84C68.1599 16.8098 68.2001 16.7998 68.2202 16.8199C68.2704 16.8802 68.3307 16.9304 68.391 16.9706C68.4714 17.0309 68.5719 16.9505 68.5216 16.8601C68.4312 16.7094 68.3709 16.5586 68.3106 16.3979C68.6824 16.6993 69.1044 16.9505 69.5566 17.1515C70.5414 17.5936 71.6568 17.8248 72.6415 18.0056C73.3148 18.1262 73.9981 18.2367 74.6814 18.3272C74.9929 18.3674 75.2943 18.4076 75.5858 18.4377C75.9375 18.4679 76.2791 18.4779 76.6007 18.4076C76.6308 18.4076 76.6509 18.4277 76.6509 18.4578C76.6107 18.699 76.5806 18.9301 76.5504 19.1512C76.4399 19.2717 76.47 19.3722 76.5303 19.4426C76.5504 19.5531 76.7212 19.5531 76.7815 19.4627C76.8016 19.4325 76.8217 19.4024 76.8318 19.3722C77.4749 18.6387 78.1079 17.8649 78.3089 16.8802C78.54 15.6945 78.4496 14.3681 78.4295 13.1622C78.4194 12.3181 78.5802 11.0219 77.9271 10.3285Z" fill="#773D6B"/>
<path d="M68.3508 15.9658C68.0493 15.8954 67.7479 16.0864 67.6776 16.3979L67.3861 17.7343C67.3158 18.0358 67.5067 18.3372 67.8182 18.4076C68.1197 18.4779 68.4212 18.287 68.4915 17.9755L68.7829 16.639C68.8532 16.3376 68.6623 16.0361 68.3508 15.9658Z" fill="#773D6B"/>
<path d="M77.2136 17.865C76.9122 17.7946 76.6107 17.9856 76.5404 18.2971L76.249 19.6335C76.1786 19.935 76.3696 20.2364 76.6811 20.3068C76.9825 20.3771 77.284 20.1862 77.3543 19.8747L77.6457 18.5382C77.7161 18.2368 77.5251 17.9353 77.2136 17.865Z" fill="#773D6B"/>
<path d="M75.8973 19.3421C73.4253 19.6033 70.9232 19.0507 68.7527 17.885C68.7326 17.875 68.7025 17.9051 68.7226 17.9252C69.6672 18.8497 70.8529 19.2215 72.1391 19.4627C73.3148 19.6837 74.7919 20.0053 75.9475 19.6134C76.0882 19.5631 76.058 19.332 75.8973 19.3421Z" fill="white"/>
<path d="M76.2992 9.90651C76.1786 9.82612 76.048 9.75578 75.9073 9.70554C75.8269 9.67539 75.7465 9.64525 75.6661 9.6352L73.2042 9.09258C73.0334 9.06243 72.8726 9.04233 72.7119 9.05238C72.5812 9.05238 72.4506 9.08253 72.32 9.11267C71.6869 9.2835 71.1744 9.79597 71.0237 10.4793L69.5466 17.1716C70.5313 17.6137 71.6467 17.8449 72.6315 18.0257C73.3047 18.1463 73.988 18.2569 74.6713 18.3473C74.9828 18.3875 75.2843 18.4277 75.5757 18.4578L77.0428 11.8057C77.2136 11.0621 76.8921 10.3185 76.2992 9.90651Z" fill="#602651"/>
<path d="M61.6987 40.5345L56.2925 65.0831L55.8906 66.922C57.2673 67.4244 59.1061 67.9469 61.1359 68.389C63.5275 68.9116 65.708 69.2331 67.2455 69.3135L67.6072 67.6857L73.0535 42.926C71.5161 42.8456 69.3356 42.5241 66.944 42.0016C64.9142 41.5594 63.0753 41.0369 61.6987 40.5345Z" fill="white"/>
<path d="M63.7586 52.6631C62.7035 53.6579 61.97 54.8336 61.5479 56.3006C61.2867 57.205 61.2163 58.1998 61.4776 59.074C61.97 60.7321 63.829 61.5862 65.276 60.6115C66.3612 59.8779 66.8837 58.7223 67.0344 57.4361C67.2957 55.2757 66.4818 52.7535 65.4669 51.3467C65.3965 51.2362 63.8591 52.5726 63.7586 52.6631Z" fill="#9DE2F4"/>
<path d="M63.1557 59.3956C62.9045 58.9736 62.7638 58.4912 62.7236 58.019C62.6231 56.8232 63.1959 55.7078 63.7687 54.6929C63.8089 54.6225 63.6983 54.5723 63.6581 54.6326C63.015 55.7178 62.3619 56.9337 62.5126 58.23C62.6131 59.1343 63.1859 60.1995 64.1706 60.521C64.251 60.5512 64.2811 60.4306 64.2209 60.3904C63.7787 60.1291 63.417 59.8277 63.1557 59.3956Z" fill="white"/>
<path d="M70.9835 46.4129C66.9641 46.634 62.603 44.574 62.5628 44.5539C62.4825 44.5137 62.392 44.5539 62.3619 44.6242C62.3217 44.7046 62.3619 44.7951 62.4322 44.8252C62.4624 44.8353 64.4218 45.7698 66.944 46.3225C68.2101 46.6038 69.627 46.7847 71.0036 46.7143C71.084 46.7143 71.1544 46.634 71.1443 46.5536C71.1343 46.4732 71.0639 46.4129 70.9835 46.4129Z" fill="#602651"/>
<path d="M70.2701 49.6384C66.2507 49.8595 61.8896 47.7996 61.8494 47.7795C61.769 47.7393 61.6786 47.7795 61.6484 47.8498C61.6082 47.9302 61.6484 48.0206 61.7188 48.0508C61.7489 48.0608 63.7084 48.9953 66.2306 49.548C67.4967 49.8294 68.9135 50.0102 70.2902 49.9399C70.3706 49.9399 70.4409 49.8595 70.4309 49.7791C70.4208 49.6987 70.3605 49.6384 70.2701 49.6384Z" fill="#602651"/>
<path d="M66.7631 65.5554C62.7437 65.7764 58.3827 63.7165 58.3425 63.6964C58.2621 63.6562 58.1716 63.6964 58.1415 63.7667C58.1013 63.8471 58.1415 63.9376 58.2118 63.9677C58.242 63.9777 60.2014 64.9123 62.7236 65.4649C63.9897 65.7463 65.4066 65.9272 66.7832 65.8568C66.8636 65.8568 66.934 65.7764 66.9239 65.696C66.9239 65.6157 66.8536 65.5554 66.7631 65.5554Z" fill="#602651"/>
<path d="M0.231679 12.5493C0.231679 12.5493 -0.863613 17.7343 1.70882 21.3016C4.28124 24.8688 7.78819 26.7278 9.54669 25.4617C11.3052 24.1956 10.642 20.2766 8.06955 16.7094C5.49712 13.1421 0.231679 12.5493 0.231679 12.5493Z" fill="#7A9B3B"/>
<path d="M21.0523 18.5885C17.8166 19.111 14.9327 21.0001 13.3551 23.9142C13.0938 24.3965 12.8828 24.8889 12.712 25.3913C12.5814 25.522 12.4407 25.6727 12.31 25.8134C12.1392 25.9842 11.9684 26.1751 11.8076 26.356C10.2601 28.0542 8.95383 29.9433 8.12985 32.1038C7.23552 34.5054 7.03455 37.0878 7.54703 39.5598C7.78819 40.7556 8.19014 41.9312 8.7629 43.0466C9.21509 43.9309 9.76776 44.7448 10.4008 45.4683C11.1545 46.3425 12.0287 47.1062 12.9933 47.7393C16.6008 50.1208 21.3839 50.6634 25.4636 48.7542C26.0866 48.4628 26.6895 48.1312 27.2623 47.7393C28.247 47.0962 29.1514 46.3325 29.9854 45.4683C30.4879 44.9458 30.9602 44.3931 31.4023 43.8103C31.5631 43.5892 31.7339 43.3682 31.8846 43.1371C31.965 43.0366 32.0152 42.9461 32.0755 42.8456C32.2062 42.6547 32.3368 42.4638 32.4473 42.2628C32.5277 42.1423 32.588 42.0317 32.6584 41.9111C32.7186 41.8006 32.7789 41.7102 32.8292 41.5996C33.0502 41.1977 33.2512 40.7957 33.4522 40.3938C33.6029 40.0723 33.7436 39.7607 33.8742 39.4291C34.1455 38.776 34.3767 38.0927 34.5776 37.4194C34.7485 36.8065 34.8992 36.2036 35.0097 35.5805C35.0399 35.4399 35.06 35.2791 35.0901 35.1384C35.2911 33.8723 35.3614 32.5961 35.2911 31.3501C35.281 31.2094 35.271 31.0587 35.2509 30.9281C34.6279 24.1353 28.2169 17.453 21.0523 18.5885Z" fill="#E32A3E"/>
<path d="M11.8579 25.5622C10.7726 24.9994 9.54669 24.6276 8.30067 24.5372C7.0647 24.4367 5.76844 24.4066 4.59275 24.8487C3.42712 25.2808 2.32178 25.9038 1.50785 26.8785L1.58824 27.0091C2.80411 26.7981 3.90945 26.5469 5.00475 26.3459C6.10004 26.1651 7.15513 25.8234 8.27052 25.7832C9.37586 25.7129 10.4913 25.9038 11.5564 26.2856C12.6517 26.6072 13.5963 27.2805 14.5509 27.9638L14.6614 27.8532C13.8575 26.9689 12.9632 26.1148 11.8579 25.5622Z" fill="#9B5153"/>
<path d="M14.9126 25.6426C14.8021 26.2254 14.6413 26.778 14.3901 27.2805C14.1489 27.793 13.8173 28.2652 13.4154 28.6873C13.0235 29.1294 12.5412 29.4912 12.0588 29.9132C12.6818 29.7826 13.2948 29.5414 13.8173 29.1395C14.3599 28.7677 14.792 28.225 15.0935 27.6221C15.3849 27.0192 15.5356 26.346 15.5256 25.6928C15.5256 25.0396 15.3648 24.3965 15.1236 23.8137C15.0432 24.4568 15.0232 25.0597 14.9126 25.6426Z" fill="#D8122F"/>
<path d="M32.0655 41.3584C31.4324 42.1121 31.2013 43.0466 31.3922 43.8103C32.1861 42.7552 32.8794 41.5996 33.4522 40.4038C32.9498 40.5646 32.4674 40.8962 32.0655 41.3584Z" fill="#D8122F"/>
<path d="M60.1009 13.5642L60.5732 4.209L49.0576 3.14385C49.0576 3.14385 47.8015 12.4086 47.8015 12.4187C47.0378 18.0659 43.2395 22.5777 41.6418 27.9437C40.3857 32.144 40.5264 37.0879 40.1244 41.459C39.4311 48.8447 38.7478 56.2303 38.0544 63.606C38.0444 63.6864 38.0343 63.7668 38.0343 63.8471C37.8133 66.2387 38.9588 68.7307 41.1192 69.8662C42.6064 70.64 44.3147 70.861 45.9827 71.0319C50.9869 71.5544 59.5081 73.2626 60.1914 65.9171C61.2364 54.7432 62.4222 43.5692 63.3768 32.4052C63.6581 29.1696 62.5729 26.9087 61.6082 23.9444C60.5029 20.5982 59.9201 17.0912 60.1009 13.5642Z" fill="#CC271F"/>
<path d="M59.5382 1.14418C58.2319 0.641748 56.8452 0.370437 55.4585 0.189564C54.0216 0.00868965 52.5545 -0.0716988 51.1075 0.0790295C50.4242 0.149369 49.7409 0.269952 49.1179 0.551311C48.8868 0.651797 48.6456 0.792477 48.4949 1.0035C48.324 1.24466 48.2939 1.55617 48.2638 1.84757C48.1834 2.6816 48.103 3.52568 48.0326 4.35971C47.9924 4.7918 47.9523 5.25403 48.1633 5.63588C48.3241 5.94738 48.6255 6.1584 48.927 6.32923C49.7409 6.81156 50.6553 7.10297 51.5697 7.32403C53.5192 7.79632 55.549 7.96714 57.5587 7.82646C58.3927 7.76617 59.2368 7.65564 60.0407 7.41447C60.3924 7.30394 60.7742 7.15321 60.9651 6.8417C61.0958 6.63068 61.1259 6.38952 61.1561 6.14835C61.2867 5.17364 61.5278 4.1085 61.5278 3.11369C61.5278 3.01321 61.5278 2.92277 61.5178 2.82228C61.4776 1.94806 60.2718 1.42554 59.5382 1.14418Z" fill="#CC271F"/>
<path d="M55.0566 0.702038C51.7205 0.390533 48.9671 0.742232 48.8968 1.49587C48.8265 2.23947 51.4692 3.10364 54.8054 3.41515C58.1415 3.72665 60.8948 3.37495 60.9651 2.62131C61.0355 1.87772 58.3927 1.01354 55.0566 0.702038Z" fill="#E03B3B"/>
<path d="M40.9585 51.9095L40.5766 56.0193C40.5565 56.2705 40.5666 56.5117 40.6168 56.7428C42.9079 57.3658 45.8119 57.8883 48.9973 58.1797C52.8861 58.5415 56.4232 58.5114 58.9755 58.1597C59.0157 58.029 59.0459 57.8883 59.0559 57.7376L59.4177 53.9091C56.9759 53.0952 53.489 52.4018 49.5801 52.03C46.3344 51.7386 43.34 51.7085 40.9585 51.9095Z" fill="#E03B3B"/>
<path d="M59.9904 7.24367C54.1623 8.59018 49.3992 6.3795 49.349 6.3594C49.2586 6.31921 49.148 6.3594 49.1078 6.44984C49.0676 6.54028 49.1078 6.65081 49.1983 6.691C49.2284 6.7111 51.3185 7.67576 54.4135 7.96717C56.0614 8.1179 58.0108 8.0777 60.0808 7.60542C60.1813 7.58533 60.2416 7.48484 60.2215 7.38435C60.1914 7.28387 60.0909 7.22358 59.9904 7.24367Z" fill="#AD0505"/>
<path d="M60.5129 4.03814C54.7953 6.01771 48.7561 2.96295 48.6958 2.9328C48.6054 2.88256 48.4949 2.92275 48.4446 3.01319C48.3944 3.10363 48.4346 3.21416 48.525 3.2644C48.5652 3.2845 51.3085 4.6712 54.8656 5.0028C56.6643 5.17363 58.664 5.07314 60.6335 4.38984C60.734 4.3597 60.7842 4.24916 60.7441 4.15873C60.7139 4.05824 60.6134 4.008 60.5129 4.03814Z" fill="#E03B3B"/>
<path d="M61.8092 27.4613C59.498 28.6672 55.8404 28.4963 53.4187 28.3758C50.3941 28.2351 47.3292 27.6322 44.3147 26.5771C44.2242 26.5469 44.1137 26.5972 44.0836 26.6876C44.0534 26.7881 44.1037 26.8886 44.1941 26.9187C46.7866 27.8231 49.3992 28.4059 52.0018 28.6471C52.4641 28.6873 52.9363 28.7275 53.3986 28.7476C55.8605 28.8581 59.5684 29.039 61.97 27.7929C62.0604 27.7427 62.0906 27.6322 62.0504 27.5417C62.0102 27.4513 61.8996 27.4111 61.8092 27.4613Z" fill="#AD0505"/>
<path d="M60.0306 39.0775C57.5587 39.3387 54.313 39.3387 50.7859 39.0071C47.8719 38.7358 45.1889 38.2736 43.0084 37.7209C42.6466 37.6305 42.2849 37.8716 42.2447 38.2434C42.2447 38.2535 40.2952 59.1846 40.2952 59.1846C40.2852 59.2751 40.2852 59.3655 40.2852 59.4459C40.2852 59.7172 40.4862 59.9483 40.7474 60.0186C42.9682 60.5914 45.7215 61.0637 48.7159 61.3451C52.6047 61.7068 56.1418 61.6666 58.6941 61.325C58.7343 61.1943 58.7645 61.0537 58.7745 60.9029L60.724 39.9718C60.734 39.8613 60.734 39.7608 60.734 39.6603C60.7039 39.3086 60.3823 39.0373 60.0306 39.0775Z" fill="#E6D2CA"/>
<path d="M59.6789 39.3086C57.207 39.5698 54.0417 39.5497 50.7759 39.2382C48.0728 38.987 45.4803 38.5549 43.2897 38.0023C43.0787 37.952 42.8576 37.9922 42.6768 38.1128C42.5059 38.2334 42.3954 38.4143 42.3753 38.6253L40.4962 58.843C40.4862 58.9334 40.4862 59.0238 40.4862 59.1143C40.4862 59.4358 40.7173 59.7172 41.0389 59.7976C43.2696 60.3804 45.9325 60.8225 48.7461 61.0838C52.3837 61.4254 55.8203 61.4154 58.4027 61.0637C58.453 61.0536 58.5032 61.0235 58.5133 60.9733C58.5535 60.8426 58.5836 60.7019 58.5937 60.5412L60.4828 40.3335C60.4928 40.223 60.4928 40.1225 60.4928 40.012C60.4828 39.811 60.4024 39.6301 60.2416 39.4895C60.0909 39.3588 59.8899 39.2885 59.6789 39.3086ZM60.2115 40.3034L58.3224 60.511C58.3123 60.6216 58.2922 60.722 58.2721 60.8024C55.7097 61.1441 52.3435 61.1441 48.7662 60.8125C45.9626 60.5512 43.3098 60.1091 41.0991 59.5363C40.8982 59.4861 40.7575 59.3152 40.7575 59.1143C40.7575 59.0339 40.7575 58.9535 40.7675 58.8731L42.6567 38.6554C42.6667 38.5348 42.7371 38.4243 42.8375 38.3439C42.928 38.2836 43.0385 38.2535 43.149 38.2635C43.1691 38.2635 43.1993 38.2736 43.2194 38.2736C45.4301 38.8363 48.0326 39.2583 50.7558 39.5096C54.0417 39.8211 57.2271 39.8412 59.7091 39.5799C59.8397 39.5698 59.9703 39.61 60.0608 39.6904C60.1512 39.7708 60.2115 39.8813 60.2115 40.012C60.2215 40.1125 60.2215 40.213 60.2115 40.3034Z" fill="#441837"/>
<path d="M50.2634 43.7098C49.9218 43.5189 49.5299 43.6093 49.1681 43.5491C48.6456 43.4586 48.7059 42.8055 48.6556 42.3935C48.6155 41.9614 48.5451 41.5293 48.324 41.1575C48.2437 40.9465 48.1331 40.7556 47.9824 40.5747C47.9322 40.5144 47.8719 40.4541 47.7915 40.434C47.6809 40.4039 47.5604 40.4641 47.4599 40.4943C47.3091 40.5445 47.0177 40.6048 47.0579 40.8259C47.0981 41.0068 47.3393 41.1274 47.4498 41.258C47.5905 41.4288 47.691 41.6298 47.7513 41.8408C47.8015 42.0217 47.8317 42.2025 47.8317 42.3834C47.7613 42.6949 47.6809 43.0064 47.5805 43.3179C46.8369 43.3983 46.1837 43.9309 46.0129 44.6745C45.9928 44.775 46.0732 44.8855 46.1837 44.8353C46.5053 44.6946 46.8369 44.5841 47.1785 44.5037C47.2288 44.5439 47.3091 44.5539 47.3493 44.4836C48.4044 44.2525 49.4997 44.3127 50.5247 44.6544C50.595 44.6845 50.6855 44.6343 50.6955 44.5539C50.7256 44.2123 50.5649 43.8807 50.2634 43.7098Z" fill="#9BB765"/>
<path d="M50.5247 44.3429C47.0378 43.1973 44.3348 44.1721 44.8573 47.8096C45.1487 49.8394 45.5607 53.889 46.2038 55.8485C46.6359 57.1447 47.691 59.1544 49.0777 57.7577C50.1328 56.6925 50.9568 52.03 51.218 50.4423C51.4893 48.7039 52.8057 45.0965 50.5247 44.3429Z" fill="#CC271F"/>
<path d="M51.1477 50.0203C50.1428 50.161 49.349 50.9448 48.7863 51.7788C47.0177 54.4015 48.4145 57.7276 51.4492 58.5214C53.6598 59.0942 56.1217 57.6572 56.5438 55.3661C56.6543 54.7733 56.5639 54.1603 56.3327 53.5675C55.5389 51.5376 53.1072 49.739 51.1477 50.0203Z" fill="#E24134"/>
<path d="M55.8605 51.2463C55.6394 51.2664 55.4083 51.2865 55.1872 51.3166C55.1771 51.1156 55.1972 50.9147 55.2676 50.7137C55.2776 50.6835 55.2475 50.6534 55.2173 50.6634C55.0365 50.7237 54.8656 50.8041 54.7049 50.9046C54.6446 50.5429 54.4838 50.1811 54.1522 50.0002C54.1321 49.9902 54.102 49.9902 54.0919 50.0103C53.9814 50.2012 53.8608 50.3821 53.7402 50.563C53.69 50.4524 53.6297 50.3419 53.5593 50.2515C53.3584 49.9701 53.0469 49.8093 52.7454 49.6586C52.7153 49.6385 52.665 49.6686 52.6851 49.7088C52.7956 50.0706 52.6952 50.4323 52.5947 50.784C52.5846 50.8343 52.655 50.8544 52.6751 50.8041C52.6952 50.7438 52.7153 50.6735 52.7354 50.6032C52.7454 50.6534 52.7655 50.6936 52.7856 50.7338C52.7052 50.774 52.655 50.8644 52.7354 50.9549C53.3584 51.598 54.1321 52.0903 54.9862 52.3817C55.0365 52.4018 55.0968 52.3918 55.137 52.3616C55.4183 52.0803 55.7097 51.7989 55.9911 51.5276C56.0815 51.407 56.0112 51.2362 55.8605 51.2463Z" fill="#9BB765"/>
<path d="M55.5088 52.3617C54.9058 52.1707 54.3029 51.9899 53.7603 51.6482C53.2378 51.3267 52.8358 50.8343 52.4138 50.4122C52.243 50.2414 51.9817 50.5027 52.1425 50.6735C52.5846 51.1357 53.0167 51.6382 53.5694 51.9798C54.1321 52.3315 54.7752 52.5325 55.4083 52.7335C55.6494 52.8038 55.7399 52.432 55.5088 52.3617Z" fill="#CC271F"/>
<path d="M49.1782 54.7231C49.0375 53.8287 49.2686 52.8942 49.8012 52.1607C49.8615 52.0803 49.8414 51.9597 49.761 51.8994C49.6806 51.8391 49.56 51.8592 49.4997 51.9396C48.9069 52.7535 48.6556 53.7885 48.8064 54.7733C48.9571 55.7681 49.5098 56.6725 50.3137 57.2754C50.3438 57.2955 50.3739 57.3055 50.4041 57.3156C50.4644 57.3256 50.5247 57.2955 50.5649 57.2452C50.6252 57.1649 50.6051 57.0443 50.5247 56.984C49.8112 56.4414 49.3188 55.6174 49.1782 54.7231Z" fill="white"/>
<path d="M48.4446 44.5237C47.8015 44.5941 46.9172 44.6845 46.3143 45.2271C45.8622 45.6391 45.6009 46.2722 45.5707 47.0057C45.5506 47.6488 45.6913 48.2618 45.832 48.8647C45.8521 48.9451 45.9224 48.9953 45.9928 49.0054C46.0129 49.0054 46.033 49.0054 46.0531 49.0054C46.1536 48.9853 46.2139 48.8848 46.1938 48.7843C46.0531 48.2116 45.9224 47.6086 45.9425 47.0258C45.9626 46.3928 46.1938 45.8401 46.5656 45.5085C47.0378 45.0764 47.7211 44.9759 48.4848 44.8955C48.5853 44.8855 48.6556 44.7951 48.6456 44.6946C48.6356 44.584 48.5451 44.5137 48.4446 44.5237Z" fill="white"/>
<path d="M45.1588 33.2794C45.1588 32.7569 44.998 32.2745 44.9276 31.7922C44.3046 27.8431 44.0132 26.1449 43.2696 22.5174L40.0038 6.33922H31.754L28.9605 22.5174C28.4279 25.9741 28.0863 27.3708 27.3025 31.7922C27.212 32.2745 27.0714 32.7569 27.0714 33.2794V79.3319C27.0714 79.9147 27.1919 80.4674 27.3829 80.9899H44.8673C45.0583 80.4674 45.1789 79.9147 45.1789 79.3319V33.2794H45.1588Z" fill="#A5DBD6"/>
<g opacity="0.5">
<path d="M44.4554 33.2794C44.4554 33.0081 44.3951 32.7267 44.3348 32.4253C44.2946 32.2444 44.2544 32.0736 44.2343 31.9027C43.6213 28.014 43.3299 26.3358 42.5763 22.6581L41.079 15.2121L39.4311 7.04263H32.3469L30.9401 15.2121L29.6538 22.6279C29.3222 24.7984 29.0509 26.1952 28.7193 27.9637C28.5184 29.0289 28.2872 30.2648 27.9858 31.9128C27.9556 32.0535 27.9255 32.2042 27.8953 32.3449C27.825 32.6664 27.7647 32.9779 27.7647 33.2693V79.3219C27.7647 79.9147 27.8953 80.4674 28.1164 80.9799H44.1037C44.3247 80.4774 44.4554 79.9147 44.4554 79.3219V33.2794Z" fill="white"/>
</g>
<path d="M39.0693 1.78726C36.4567 1.30493 33.2412 1.34512 31.9449 2.25954C31.2415 2.76197 31.4324 3.10362 31.4324 7.04265C31.4324 8.05755 31.4525 8.7509 32.176 9.34377C34.658 11.3836 40.044 10.4391 40.5666 8.60017C40.6469 8.33891 40.6469 8.02741 40.657 7.72595C40.7575 3.79697 41.4709 2.22939 39.0693 1.78726Z" fill="#FFD243"/>
<path d="M36.0749 1.87766C33.7436 1.87766 31.8444 2.28965 31.8444 2.80213C31.8444 3.31461 33.7336 3.7266 36.0749 3.7266C38.4061 3.7266 40.3053 3.31461 40.3053 2.80213C40.3053 2.28965 38.4162 1.87766 36.0749 1.87766Z" fill="#FFD86C"/>
<path d="M40.0641 5.26408C35.4318 7.28384 31.8746 5.29423 31.8444 5.27413C31.764 5.22389 31.6535 5.25404 31.6033 5.33442C31.553 5.41481 31.5832 5.52535 31.6635 5.57559C31.6836 5.58564 33.3417 6.52015 35.8538 6.52015C37.1199 6.52015 38.597 6.28904 40.2048 5.58564C40.2952 5.54544 40.3354 5.44496 40.2952 5.35452C40.2551 5.26408 40.1546 5.22389 40.0641 5.26408Z" fill="#F9B60D"/>
<path d="M44.4553 33.2794C44.4553 33.0081 44.3951 32.7267 44.3348 32.4253C44.2946 32.2444 44.2544 32.0736 44.2343 31.9028C43.6213 28.014 43.3299 26.3359 42.5763 22.6581L41.079 15.2121H30.93L29.6438 22.6279C29.3122 24.7984 29.0409 26.1952 28.7093 27.9637C28.5083 29.0289 28.2772 30.2648 27.9757 31.9128C27.9456 32.0535 27.9154 32.2042 27.8853 32.3449C27.8149 32.6664 27.7547 32.9779 27.7547 33.2694V79.3219C27.7547 79.9147 27.8853 80.4674 28.1064 80.9799H44.0936C44.3147 80.4774 44.4453 79.9147 44.4453 79.3219V33.2794H44.4553Z" fill="#2B1326"/>
<path d="M36.0246 14.3379C33.201 14.3379 30.92 14.7499 30.92 15.2624C30.92 15.7748 33.201 16.1868 36.0246 16.1868C38.8483 16.1868 41.1293 15.7748 41.1293 15.2624C41.1293 14.7499 38.8483 14.3379 36.0246 14.3379Z" fill="#472541"/>
<path d="M27.0513 37.4094V66.7712C29.0409 67.1129 31.4525 67.344 34.0752 67.4144H37.9037C40.6369 67.334 43.1189 67.0928 45.1587 66.7311V37.7711C42.8576 38.1027 40.1043 38.3037 37.13 38.3037C33.211 38.3037 29.6538 37.9621 27.0513 37.4094Z" fill="#E6D2CA"/>
<path d="M30.6285 37.761C29.4227 37.6204 28.2269 37.3892 27.0513 37.1179V37.8716C29.4227 38.4544 31.8947 38.6956 34.3164 38.7659C37.3611 38.8563 40.3957 38.6453 43.4204 38.3338C43.9931 38.2735 44.5759 38.2132 45.1587 38.1429V37.339C43.2596 37.5601 41.3503 37.7811 39.4411 37.9017C36.5069 38.0926 33.5527 38.1127 30.6285 37.761Z" fill="#FFD243"/>
<path d="M30.3773 66.6507C29.272 66.5904 28.1566 66.51 27.0513 66.4296V67.143C32.4976 67.6254 38.0042 67.8967 43.4103 67.0024C43.9931 66.9119 44.5759 66.8014 45.1487 66.6708V65.8568C43.2495 66.2889 41.3202 66.5602 39.3607 66.7009C36.3763 66.9019 33.3718 66.8315 30.3773 66.6507Z" fill="#FFD243"/>
<path d="M29.5835 67.0425L29.2318 67.0224C28.9906 71.6347 28.7394 76.3977 29.8347 80.9899H30.1965C29.0911 76.4279 29.3423 71.6649 29.5835 67.0425Z" fill="white"/>
<path d="M31.4626 55.3661C31.2716 55.1551 31.141 54.8235 31.2114 54.5321C31.2516 54.3813 31.3621 54.2407 31.5128 54.2105C31.6535 54.1804 31.8243 54.2909 31.8042 54.4517C31.7741 54.6325 32.0554 54.7129 32.0856 54.5321C32.1258 54.2909 32.0152 54.0698 31.7942 53.9693C31.5631 53.8588 31.2917 53.9492 31.1209 54.1201C30.7391 54.512 30.9099 55.1651 31.2214 55.5369C31.4023 55.758 31.6535 55.8585 31.8846 56.0192C32.1057 56.17 32.2062 56.4111 32.1559 56.6724C32.0956 56.9437 31.8846 57.1447 31.6233 57.2351C31.4726 57.2854 30.8295 57.3959 30.9501 57.0643C31.0104 56.9035 30.7592 56.803 30.6788 56.9538C30.5482 57.1748 30.6788 57.4361 30.8999 57.5366C31.131 57.6471 31.4324 57.617 31.6635 57.5466C32.1459 57.4059 32.5177 56.9739 32.4775 56.4614C32.4574 56.2202 32.3569 55.9991 32.166 55.8484C31.9349 55.6575 31.6535 55.5771 31.4626 55.3661Z" fill="#59264C"/>
<path d="M34.2159 54.5923C34.1556 54.4316 34.0752 54.2406 33.8943 54.2004C33.7235 54.1603 33.5527 54.2607 33.4622 54.4014C33.3417 54.5823 33.2814 54.8235 33.2211 55.0345C33.1507 55.2656 33.0804 55.4967 33.0302 55.7379C32.9096 56.2705 32.8392 56.8131 32.8091 57.3557C32.799 57.5466 33.0904 57.5466 33.1005 57.3557C33.1206 56.9939 33.1708 56.6222 33.2311 56.2604C33.2512 56.2805 33.2814 56.2905 33.3115 56.2805C33.4823 56.2604 33.6532 56.2504 33.834 56.2403C33.9144 56.2403 34.0049 56.2403 34.0852 56.2403C34.1355 56.2403 34.1757 56.2504 34.2259 56.2504C34.2561 56.582 34.3063 56.9236 34.4169 57.2251C34.4771 57.3959 34.7485 57.3356 34.6982 57.1447C34.5776 56.7126 34.5274 56.2805 34.4872 55.8384C34.4369 55.4264 34.3867 54.9842 34.2159 54.5923ZM34.0953 55.9388C34.0049 55.9388 33.9144 55.9388 33.824 55.9388C33.6431 55.9489 33.4522 55.9589 33.2713 55.9991C33.2914 55.9288 33.2914 55.8484 33.3115 55.7781C33.3718 55.5269 33.4421 55.2756 33.5225 55.0244C33.5527 54.934 33.6833 54.3914 33.8441 54.4919C33.9144 54.5321 33.9546 54.733 33.9848 54.8034C34.025 54.9139 34.0551 55.0244 34.0752 55.135C34.1254 55.3661 34.1556 55.6072 34.1757 55.8384C34.1757 55.8685 34.1857 55.8987 34.1857 55.9388C34.1556 55.9489 34.1254 55.9489 34.0953 55.9388Z" fill="#59264C"/>
<path d="M37.1199 55.6374C37.1199 55.0948 37.1199 54.5622 37.1099 54.0196C37.1099 53.8387 36.8285 53.8387 36.8185 54.0196C36.8084 54.512 36.8084 54.9943 36.8084 55.4867C36.8185 55.4766 36.7883 55.5269 36.7682 55.6173C36.6778 55.959 36.5672 56.3509 36.2959 56.6121C36.0447 56.8533 35.6629 56.9136 35.4418 56.6021C35.2107 56.2705 35.2911 55.8082 35.3212 55.4264C35.3514 54.9943 35.3815 54.5622 35.4016 54.1301C35.4117 53.9493 35.1303 53.9493 35.1203 54.1301C35.0801 54.6728 35.0298 55.2154 34.9997 55.7479C34.9695 56.18 35.0097 56.6724 35.3715 56.9638C35.7031 57.2251 36.1352 57.1346 36.4467 56.8834C36.6175 56.7428 36.728 56.5619 36.7984 56.3609C36.7984 56.3911 36.7984 56.4212 36.7984 56.4413C36.7984 56.7026 36.7783 56.9739 36.8084 57.2251C36.8285 57.3658 37.0697 57.3658 37.0898 57.2251C37.13 56.9739 37.0998 56.7026 37.0998 56.4413C37.13 56.18 37.1199 55.9087 37.1199 55.6374Z" fill="#59264C"/>
<path d="M39.8531 56.9136C39.4311 56.9939 38.9487 57.0743 38.5367 56.9337C38.1248 56.7829 37.9137 56.4011 37.8735 55.979C37.8334 55.5469 37.9137 55.0948 38.0745 54.6928C38.2252 54.3009 38.6372 53.8387 39.0995 54.0598C39.2703 54.1402 39.421 53.8889 39.2502 53.7985C38.8684 53.6076 38.4262 53.7282 38.1348 54.0095C37.8133 54.321 37.6826 54.7833 37.6022 55.2153C37.4515 56.0293 37.6022 56.9839 38.4966 57.2653C38.9688 57.416 39.4813 57.3255 39.9536 57.2351C40.1546 57.1949 40.0641 56.8734 39.8531 56.9136Z" fill="#59264C"/>
<path d="M41.7221 55.1249C41.6217 55.1048 41.5212 55.1249 41.4106 55.1249C41.3102 55.135 41.2197 55.135 41.1192 55.145C40.9283 55.1551 40.7374 55.1752 40.5465 55.1852C40.5264 55.1852 40.5163 55.1953 40.4962 55.1953C40.5163 54.8134 40.5364 54.4316 40.5766 54.0497C40.5766 54.0598 40.6871 54.0296 40.6972 54.0196C40.7675 53.9995 40.8278 53.9794 40.8982 53.9593C41.1293 53.9091 41.3503 53.9392 41.5815 53.9894C41.6619 54.0095 41.7623 53.9593 41.7824 53.8789C41.8025 53.7885 41.7523 53.7081 41.6719 53.6779C41.27 53.5373 40.8379 53.6076 40.4359 53.7282C40.3555 53.7483 40.2952 53.8086 40.2852 53.899C40.1847 54.723 40.1345 55.557 40.1646 56.3911C40.1747 56.6724 40.1345 57.1145 40.4862 57.215C40.667 57.2653 40.868 57.2452 41.0489 57.2351C41.2499 57.2251 41.4609 57.215 41.6619 57.1748C41.8427 57.1346 41.8025 56.8332 41.6217 56.8533C41.3001 56.8834 40.9484 56.9538 40.6269 56.9035C40.5264 56.8935 40.5163 56.8432 40.5063 56.7528C40.4962 56.6724 40.4962 56.6021 40.4962 56.5217C40.4862 56.3408 40.4862 56.17 40.4862 55.9891C40.4862 55.8283 40.4962 55.6575 40.4962 55.4967C40.5163 55.5068 40.5364 55.5068 40.5565 55.5068C40.7474 55.4967 40.9384 55.4867 41.1293 55.4766L41.4207 55.4565C41.5212 55.4465 41.6317 55.4565 41.7322 55.4264C41.8025 55.4063 41.8528 55.346 41.8528 55.2757C41.8427 55.2154 41.7925 55.135 41.7221 55.1249Z" fill="#59264C"/>
<path d="M40.6369 50.5629C40.5364 50.5428 40.4359 50.5629 40.3254 50.5629C40.2249 50.573 40.1345 50.573 40.034 50.583C39.8431 50.5931 39.6521 50.6132 39.4612 50.6232C39.4411 50.6232 39.4311 50.6333 39.411 50.6333C39.4311 50.2514 39.4512 49.8696 39.4914 49.4877C39.4914 49.4978 39.6019 49.4676 39.612 49.4576C39.6823 49.4375 39.7426 49.4174 39.8129 49.3973C40.044 49.347 40.2651 49.3772 40.4962 49.4274C40.5766 49.4475 40.6771 49.3973 40.6972 49.3169C40.7173 49.2265 40.6671 49.1461 40.5867 49.1159C40.1847 48.9752 39.7526 49.0456 39.3607 49.1662C39.2804 49.1863 39.2201 49.2466 39.21 49.337C39.1095 50.161 39.0593 50.995 39.0894 51.829C39.0995 52.1104 39.0593 52.5525 39.411 52.653C39.5919 52.7033 39.7928 52.6832 39.9737 52.6731C40.1747 52.6631 40.3857 52.653 40.5867 52.6128C40.7675 52.5726 40.7273 52.2712 40.5465 52.2913C40.2249 52.3214 39.8732 52.3918 39.5517 52.3415C39.4512 52.3315 39.4411 52.2812 39.4311 52.1908C39.421 52.1104 39.421 52.0401 39.421 51.9597C39.411 51.7788 39.411 51.608 39.411 51.4271C39.411 51.2663 39.421 51.0955 39.421 50.9347C39.4411 50.9448 39.4612 50.9448 39.4813 50.9448C39.6722 50.9347 39.8632 50.9247 40.0541 50.9146L40.3455 50.8945C40.446 50.8845 40.5565 50.8945 40.657 50.8644C40.7273 50.8443 40.7776 50.784 40.7776 50.7136C40.7474 50.6534 40.6972 50.573 40.6369 50.5629Z" fill="#59264C"/>
<path d="M42.315 50.6734C42.7672 50.5026 43.2897 50.3418 43.2093 49.7791C43.1189 49.0858 42.3552 48.9752 41.7824 49.0054C41.7322 48.9149 41.5614 48.935 41.5714 49.0657C41.5614 49.126 41.5614 49.1561 41.5714 49.1762C41.5915 49.7188 41.6016 50.2514 41.5915 50.794C41.5815 51.3668 41.5312 51.9496 41.5111 52.5224C41.5011 52.6831 41.7322 52.6731 41.7523 52.5224C41.8126 51.9898 41.8427 51.4371 41.8528 50.8945C42.8476 50.784 43.3098 51.8391 43.5711 52.6128C43.6213 52.7635 43.8625 52.6932 43.8123 52.5525C43.6515 52.0702 43.4606 51.5678 43.1089 51.1859C42.8978 50.9347 42.6265 50.7538 42.315 50.6734ZM41.8126 49.2365C42.0538 49.2264 42.2949 49.2264 42.516 49.3068C42.7471 49.3872 42.9782 49.5982 42.9782 49.8595C42.9782 50.1308 42.717 50.2916 42.4858 50.372C42.2748 50.4524 42.0538 50.5026 41.8528 50.6232C41.8528 50.1509 41.8427 49.6887 41.8126 49.2365Z" fill="#59264C"/>
<path d="M30.1663 49.4777C29.9252 49.3571 29.6538 49.3873 29.4227 49.4877C28.86 49.739 28.7294 50.3318 28.7294 50.8945C28.5987 51.407 28.5786 51.9697 28.9806 52.3717C29.1715 52.5525 29.4328 52.6932 29.7041 52.6832C30.0055 52.6731 30.2166 52.4822 30.3673 52.241C30.719 51.6582 30.8195 50.9347 30.6687 50.2816C30.5984 49.9701 30.4678 49.6284 30.1663 49.4777ZM30.2166 51.7889C30.1362 51.9898 30.0156 52.2511 29.7945 52.3315C29.6237 52.3918 29.4227 52.3114 29.282 52.2109C29.0409 52.03 28.9705 51.7688 28.9705 51.4974C28.9404 51.3065 28.9605 51.1056 29.0007 50.9247C29.0107 50.8845 29.0208 50.8443 29.0308 50.8041C29.0509 50.6735 29.0811 50.5328 29.1213 50.4122C29.1514 50.2213 29.2318 50.0605 29.3725 49.9399C29.5132 49.8193 29.7041 49.739 29.885 49.759C30.1261 49.7892 30.2367 50.0203 30.2969 50.2313C30.4577 50.7237 30.4276 51.2965 30.2166 51.7889Z" fill="#59264C"/>
<path d="M34.9494 50.4423C34.7585 50.2313 34.6279 49.8997 34.6982 49.6083C34.7384 49.4576 34.849 49.3169 34.9997 49.2867C35.1404 49.2566 35.3112 49.3671 35.2911 49.5279C35.2609 49.7088 35.5423 49.7892 35.5724 49.6083C35.6126 49.3671 35.5021 49.1461 35.281 49.0456C35.0499 48.9351 34.7786 49.0255 34.6078 49.1963C34.2259 49.5882 34.3968 50.2414 34.7083 50.6132C34.8891 50.8342 35.1404 50.9347 35.3715 51.0955C35.5925 51.2462 35.693 51.4874 35.6428 51.7486C35.5825 52.02 35.3715 52.2209 35.1102 52.3114C34.9595 52.3616 34.3164 52.4721 34.437 52.1405C34.4973 51.9798 34.246 51.8793 34.1656 52.03C34.035 52.2511 34.1656 52.5123 34.3867 52.6128C34.6178 52.7234 34.9193 52.6932 35.1504 52.6229C35.6327 52.4822 36.0045 52.0501 35.9643 51.5376C35.9442 51.2965 35.8438 51.0754 35.6528 50.9247C35.4217 50.7438 35.1404 50.6634 34.9494 50.4423Z" fill="#59264C"/>
<path d="M32.8191 50.4826C32.5076 50.5228 32.2564 50.3218 32.0755 50.0907C31.9851 49.9701 31.9047 49.8294 31.8243 49.6988C31.7339 49.548 31.6535 49.3973 31.5932 49.2466C31.5731 49.1863 31.5229 49.1562 31.4626 49.1662C31.4123 49.1763 31.3621 49.2466 31.3822 49.2968C31.5028 49.6485 31.7037 49.9902 31.9248 50.2816C32.1459 50.563 32.4775 50.774 32.8493 50.7237C32.9799 50.7036 32.9498 50.4725 32.8191 50.4826Z" fill="#59264C"/>
<path d="M33.0502 48.9351C32.9598 49.6184 32.8493 50.3017 32.6583 50.9649C32.4976 51.5577 32.2162 52.1908 31.6133 52.442C31.4525 52.5123 31.543 52.7334 31.7037 52.6631C32.3167 52.4018 32.6483 51.7888 32.8392 51.1859C33.0603 50.4524 33.1909 49.6887 33.2613 48.9351C33.2814 48.7944 33.0703 48.7944 33.0502 48.9351Z" fill="#59264C"/>
<path d="M38.5669 49.1361C37.7932 49.126 37.0295 49.116 36.2557 49.1059C36.105 49.1059 36.105 49.337 36.2557 49.3471C36.6074 49.3571 36.9491 49.3672 37.3008 49.3772C37.3108 49.6385 37.3209 49.8897 37.3008 50.1409C37.2907 50.4223 37.2405 50.6936 37.1902 50.9649C37.1099 51.4673 37.0596 51.9798 37.0596 52.4822C37.0596 52.5124 37.0596 52.5727 37.0596 52.5727C37.0596 52.7334 37.2907 52.7234 37.3008 52.5727C37.351 52.02 37.3611 51.4673 37.4515 50.9146C37.5419 50.4022 37.562 49.8997 37.5319 49.3873C37.8735 49.3973 38.2152 49.4074 38.5669 49.4174C38.7478 49.4074 38.7478 49.1361 38.5669 49.1361Z" fill="#59264C"/>
<path d="M74.5407 47.6187L74.2393 51.1256C75.0331 50.7136 75.5355 50.2414 75.6863 49.7088C75.6963 49.6987 75.6963 49.6786 75.6963 49.6585C75.7064 49.6083 75.7164 49.548 75.7265 49.4978C75.7265 49.4676 75.7365 49.4274 75.7265 49.3973C75.7365 49.337 75.7264 49.2767 75.7164 49.2164C75.636 48.6738 75.2341 48.1312 74.5407 47.6187Z" fill="#9DE2F4"/>
<path d="M43.9127 46.0913C43.8223 46.2119 43.762 46.3526 43.7319 46.4832C43.7118 46.5535 43.7017 46.6239 43.6917 46.6942C43.6816 46.7847 43.6816 46.8651 43.6917 46.9555C43.7017 47.0359 43.7218 47.1163 43.7419 47.2067C43.9027 47.7192 44.375 48.2317 45.0985 48.7341L45.4502 44.9257C44.7166 45.2573 44.1941 45.6492 43.9127 46.0913Z" fill="#9DE2F4"/>
<path d="M73.2444 51.3869C70.7524 52.2812 66.6727 52.6932 62.0403 52.5023C60.3019 52.4319 58.4228 52.2712 56.7045 52.04C51.9114 51.3969 47.7211 50.1911 45.5104 48.8145C45.4401 48.7743 45.3497 48.7944 45.3095 48.8647C45.2693 48.935 45.2894 49.0255 45.3597 49.0657C47.6106 50.4624 51.841 51.6884 56.6744 52.3315C57.5285 52.452 58.4228 52.5425 59.3373 52.6229C60.2517 52.7033 61.1661 52.7635 62.0504 52.7937C66.7129 52.9846 70.8428 52.5726 73.365 51.6582C73.4454 51.6281 73.4856 51.5477 73.4555 51.4673C73.4052 51.3969 73.3148 51.3567 73.2444 51.3869Z" fill="#79D3E8"/>
<path d="M73.4454 49.0356C70.9534 49.9299 66.8737 50.3419 62.2413 50.151C60.5029 50.0806 58.6238 49.9198 56.9055 49.6887C52.1124 49.0456 47.9221 47.8498 45.7114 46.4631C45.6411 46.4229 45.5507 46.443 45.5105 46.5134C45.4703 46.5837 45.4904 46.6742 45.5607 46.7144C47.8116 48.1111 52.042 49.337 56.8754 49.9801C57.7295 50.1007 58.6238 50.1911 59.5382 50.2715C60.4527 50.3519 61.3671 50.4122 62.2513 50.4424C66.9139 50.6333 71.0438 50.2213 73.566 49.3069C73.6464 49.2767 73.6866 49.1963 73.6565 49.116C73.6062 49.0456 73.5258 49.0054 73.4454 49.0356Z" fill="#79D3E8"/>
<path d="M75.2943 79.8544C77.7562 65.897 78.5802 51.6582 77.7462 37.4998C77.6558 35.9121 77.8467 33.6914 76.46 32.4956C75.847 31.9631 72.1492 34.8671 71.3453 35.1685C68.2805 36.3241 65.2659 37.8917 61.97 38.3037C57.016 39.0473 51.5496 37.5199 46.656 36.8266C41.0489 36.0227 35.4217 35.2992 29.7945 34.6561C26.1067 34.234 22.4088 33.8421 18.721 33.4904C15.6763 33.199 11.7071 33.5407 8.92367 32.1439C8.38105 31.8726 7.79824 31.2396 7.21542 31.0989C5.66794 30.7371 6.45173 36.9873 6.43163 37.8615C6.38139 40.4742 6.28091 43.0968 6.14023 45.7095C6.18042 45.7999 6.21057 45.8903 6.25076 45.9908C6.6527 46.9454 7.14508 47.88 7.74799 48.7341C8.22028 49.4073 8.71265 50.0504 9.17489 50.7237C9.66727 51.4572 9.90843 52.1606 9.59693 53.0248C9.0945 54.4618 8.09969 55.6877 7.66761 57.1749C7.50683 57.7074 7.42644 58.2702 7.54702 58.8228C7.63746 59.265 7.84848 59.6669 8.04945 60.0688C8.61217 61.1641 9.01411 62.2896 9.03421 63.5456C9.0744 66.1683 7.85853 68.5197 6.78333 70.8308C6.6527 71.1122 6.53212 71.3936 6.43163 71.6649C6.3211 71.896 6.25076 72.1171 6.17037 72.3482C5.49712 74.4684 5.44688 76.4982 5.29615 78.9099C5.25595 79.6032 5.21576 80.2966 5.17556 80.9899H75.1838C75.2039 80.6081 75.2341 80.2262 75.2943 79.8544Z" fill="#ECA469"/>
<path d="M58.664 79.5229C59.3473 78.7893 60.0607 78.0156 59.9703 76.9705C59.9301 76.4982 59.7191 76.0963 59.5081 75.7145C59.4377 75.5838 59.3674 75.4532 59.3071 75.3326C58.3625 73.2928 59.4277 70.861 60.3723 68.6905C63.3667 61.8073 63.6782 56.17 61.2565 51.9496C61.146 51.7386 61.0053 51.5276 60.8847 51.3166C60.5632 50.794 60.2617 50.3017 60.0708 49.749C59.5583 48.2518 60.0005 46.5938 60.4225 44.996C60.5431 44.5639 60.6436 44.1419 60.744 43.7299C61.1259 42.082 61.2364 40.3737 61.0957 38.6654C60.8345 38.6654 60.5833 38.6152 60.3321 38.5348C60.4928 40.223 60.3923 41.9312 60.0105 43.5591C59.9201 43.961 59.8095 44.3831 59.6889 44.8051C59.2368 46.5134 58.7645 48.2819 59.3573 50.0002C59.5684 50.6232 59.9201 51.1759 60.2416 51.7185C60.3622 51.9195 60.4928 52.1205 60.6034 52.3214C62.8944 56.3308 62.5729 61.7269 59.6689 68.4192C58.674 70.7103 57.5486 73.3028 58.6238 75.6441C58.6941 75.7848 58.7645 75.9255 58.8449 76.0662C59.0157 76.4078 59.1865 76.7193 59.2167 77.0409C59.277 77.7543 58.7142 78.3673 58.1013 79.0104C57.5386 79.6032 56.9658 80.2263 56.8151 81H57.5988C57.7596 80.4775 58.2018 80.0052 58.664 79.5229Z" fill="#DC6D26"/>
<path d="M21.1628 54.8838C19.8465 54.2105 18.299 54.0699 16.8017 53.9493C14.8021 53.7785 12.9331 53.6177 11.7674 52.2209L11.265 52.643C12.5914 54.2507 14.7016 54.4316 16.7415 54.6024C18.1784 54.723 19.6555 54.8637 20.8614 55.4666C21.2533 55.6676 21.3839 55.8384 21.3638 56.1097C21.3336 56.4614 21.0422 56.783 20.6503 56.8835C20.1881 56.994 19.6455 57.0241 19.0627 57.0643L18.6607 57.0945C17.9573 57.1447 17.4147 57.6371 17.3142 58.3405C17.2137 59.0339 17.5755 59.677 18.2387 59.9282L18.309 59.9583C19.1732 60.2899 19.4646 61.0536 19.4445 61.6666C19.4244 62.2795 19.0828 63.0131 18.1985 63.2844C17.5755 63.4653 16.9424 63.5959 16.3094 63.6562C15.9577 63.6863 15.5859 63.7064 15.2241 63.7165C13.9379 63.7667 12.6115 63.827 11.5464 64.6008C10.9535 65.0328 10.5415 65.7965 10.8831 66.4396C11.0841 66.8215 11.4861 67.0024 11.7674 67.133L16.3596 69.2432C17.1032 69.5848 17.274 70.2983 17.1936 70.8007C17.1132 71.3132 16.7214 71.9462 15.8974 72.0367C15.8069 72.0467 15.7165 72.0467 15.616 72.0568C14.5609 72.1271 13.4556 71.9663 12.4005 71.8156C11.9784 71.7553 11.5464 71.695 11.1344 71.6548C9.56679 71.474 7.98916 71.474 6.44169 71.6649C6.3211 71.896 6.25076 72.1171 6.17038 72.3482C7.78819 72.1372 9.41606 72.1271 11.0439 72.2979C11.4559 72.3482 11.878 72.3984 12.3 72.4587C13.3953 72.6195 14.5207 72.7702 15.6562 72.6999C15.7567 72.6898 15.8572 72.6898 15.9677 72.6697C16.9525 72.5692 17.686 71.8558 17.8468 70.8811C18.0076 69.9164 17.5353 69.0322 16.6309 68.6202L12.0387 66.51C11.7775 66.3894 11.5564 66.2688 11.4559 66.098C11.2951 65.8066 11.5765 65.3544 11.9282 65.0931C12.8326 64.4299 14.0082 64.3797 15.2442 64.3294C15.616 64.3194 15.9979 64.2993 16.3596 64.2591C17.0329 64.1988 17.7162 64.0682 18.3794 63.8672C19.3842 63.5758 20.0575 62.6915 20.0977 61.6465C20.1379 60.5914 19.5249 59.6669 18.5401 59.2951L18.4196 59.6066L18.4698 59.275C18.0176 59.1042 17.9171 58.7023 17.9674 58.4108C18.0176 58.1194 18.2286 57.7476 18.7009 57.7275L19.1029 57.6974C19.6857 57.6672 20.2986 57.6271 20.8111 57.4964C21.4844 57.3256 21.9667 56.783 22.0169 56.1298C22.0873 55.3561 21.4341 55.0245 21.1628 54.8838Z" fill="#DC6D26"/>
<path d="M33.8843 10.8511C22.5093 10.8511 13.2546 22.2361 13.2546 36.2237C13.2546 50.2112 22.5093 61.5963 33.8843 61.5963C45.2592 61.5963 54.514 50.2112 54.514 36.2237C54.524 22.2361 45.2693 10.8511 33.8843 10.8511ZM33.8843 59.5263C23.6549 59.5263 15.3246 49.0758 15.3246 36.2237C15.3246 23.3716 23.6448 12.9211 33.8843 12.9211C44.1238 12.9211 52.444 23.3716 52.444 36.2237C52.444 49.0758 44.1238 59.5263 33.8843 59.5263Z" fill="#ECA469"/>
</svg>
